<svg width="21" height="21" viewBox="0 0 21 21" fill="none" xmlns="http://www.w3.org/2000/svg">
<path d="M9.01259 5.89746C9.0712 5.96066 9.11678 6.03478 9.14674 6.11559C9.1767 6.19641 9.19045 6.28233 9.1872 6.36846C9.18395 6.45459 9.16377 6.53923 9.1278 6.61756C9.09183 6.69589 9.04079 6.76636 8.97759 6.82496L6.43309 9.18746L8.97759 11.55C9.04078 11.6086 9.09182 11.679 9.12778 11.7574C9.16375 11.8357 9.18393 11.9203 9.18718 12.0065C9.19043 12.0926 9.17668 12.1785 9.14673 12.2593C9.11677 12.3401 9.07119 12.4143 9.01259 12.4775C8.95398 12.5407 8.88351 12.5917 8.80518 12.6277C8.72685 12.6636 8.64221 12.6838 8.55608 12.6871C8.46996 12.6903 8.38403 12.6766 8.30322 12.6466C8.22241 12.6166 8.14828 12.5711 8.08509 12.5125L5.02259 9.66871C4.95632 9.60728 4.90346 9.53283 4.86731 9.45001C4.83116 9.3672 4.8125 9.27782 4.8125 9.18746C4.8125 9.0971 4.83116 9.00772 4.86731 8.92491C4.90346 8.8421 4.95632 8.76764 5.02259 8.70621L8.08509 5.86246C8.14828 5.80385 8.2224 5.75826 8.30322 5.7283C8.38403 5.69834 8.46996 5.68459 8.55609 5.68784C8.64221 5.69109 8.72686 5.71128 8.80519 5.74725C8.88351 5.78321 8.95399 5.83425 9.01259 5.89746ZM12.0226 6.82496C11.9594 6.76636 11.9083 6.69588 11.8724 6.61756C11.8364 6.53923 11.8162 6.45459 11.813 6.36846C11.8097 6.28233 11.8235 6.19641 11.8534 6.1156C11.8834 6.03478 11.929 5.96066 11.9876 5.89746C12.0462 5.83426 12.1167 5.78322 12.195 5.74726C12.2733 5.7113 12.358 5.69112 12.4441 5.68787C12.5302 5.68462 12.6161 5.69836 12.697 5.72832C12.7778 5.75828 12.8519 5.80386 12.9151 5.86246L15.9776 8.70621C16.0438 8.76764 16.0967 8.8421 16.1329 8.92491C16.169 9.00772 16.1877 9.0971 16.1877 9.18746C16.1877 9.27782 16.169 9.3672 16.1329 9.45001C16.0967 9.53283 16.0438 9.60728 15.9776 9.66871L12.9151 12.5125C12.8519 12.5711 12.7778 12.6166 12.697 12.6466C12.6161 12.6766 12.5302 12.6903 12.4441 12.6871C12.358 12.6838 12.2733 12.6636 12.195 12.6277C12.1167 12.5917 12.0462 12.5407 11.9876 12.4775C11.929 12.4143 11.8834 12.3401 11.8534 12.2593C11.8235 12.1785 11.8097 12.0926 11.813 12.0065C11.8162 11.9203 11.8364 11.8357 11.8724 11.7574C11.9083 11.679 11.9594 11.6086 12.0226 11.55L14.5671 9.18746L12.0226 6.82496Z" fill="white"/>
<path d="M1.3125 3.71875C1.3125 2.8735 1.9985 2.1875 2.84375 2.1875H18.1562C19.0015 2.1875 19.6875 2.8735 19.6875 3.71875V14.6563C19.6875 15.0624 19.5262 15.4518 19.239 15.739C18.9518 16.0262 18.5624 16.1875 18.1562 16.1875H9.6775L6.55113 19.3139C6.37267 19.4917 6.14558 19.6126 5.89848 19.6615C5.65138 19.7105 5.39533 19.6851 5.1626 19.5887C4.92987 19.4924 4.73089 19.3292 4.59073 19.1199C4.45057 18.9106 4.3755 18.6645 4.375 18.4126V16.1875H2.84375C2.43764 16.1875 2.04816 16.0262 1.76099 15.739C1.47383 15.4518 1.3125 15.0624 1.3125 14.6563V3.71875ZM2.84375 3.5C2.78573 3.5 2.73009 3.52305 2.68907 3.56407C2.64805 3.60509 2.625 3.66073 2.625 3.71875V14.6563C2.625 14.777 2.723 14.875 2.84375 14.875H5.03125C5.2053 14.875 5.37222 14.9441 5.49529 15.0672C5.61836 15.1903 5.6875 15.3572 5.6875 15.5313V18.3225L8.9425 15.0675C9.00335 15.0065 9.07563 14.9581 9.15521 14.9251C9.23478 14.892 9.32009 14.875 9.40625 14.875H18.1562C18.2143 14.875 18.2699 14.852 18.3109 14.8109C18.352 14.7699 18.375 14.7143 18.375 14.6563V3.71875C18.375 3.66073 18.352 3.60509 18.3109 3.56407C18.2699 3.52305 18.2143 3.5 18.1562 3.5H2.84375Z" fill="white"/>
</svg>
