<svg width="17" height="17" viewBox="0 0 17 17" fill="none" xmlns="http://www.w3.org/2000/svg">
<g clip-path="url(#clip0_115_4010)">
<path d="M6.93221 6.99382C6.30065 6.99382 5.68328 6.80648 5.15822 6.4555C4.63316 6.10453 4.224 5.60569 3.98253 5.02212C3.74106 4.43854 3.67812 3.79645 3.80168 3.17709C3.92523 2.55773 4.22973 1.98894 4.67664 1.54269C5.12356 1.09643 5.6928 0.792778 6.31234 0.670139C6.93188 0.547501 7.57388 0.611391 8.1571 0.853727C8.74032 1.09606 9.23855 1.50595 9.58874 2.03153C9.93894 2.55711 10.1254 3.17476 10.1244 3.80632C10.1219 4.65175 9.78466 5.46177 9.18641 6.05913C8.58816 6.6565 7.77764 6.99258 6.93221 6.99382ZM6.93221 1.55854C6.48764 1.55854 6.05306 1.69037 5.68341 1.93736C5.31377 2.18435 5.02566 2.53541 4.85553 2.94613C4.68541 3.35686 4.64089 3.80881 4.72762 4.24484C4.81435 4.68087 5.02843 5.08138 5.34279 5.39574C5.65715 5.7101 6.05766 5.92418 6.49369 6.01091C6.92972 6.09764 7.38167 6.05313 7.7924 5.883C8.20313 5.71287 8.55418 5.42476 8.80117 5.05512C9.04816 4.68547 9.17999 4.25089 9.17999 3.80632C9.17999 3.21017 8.94317 2.63844 8.52163 2.2169C8.10009 1.79536 7.52836 1.55854 6.93221 1.55854Z" fill="#E23C46"/>
<path d="M7.75378 14.9599C7.65058 14.8566 7.57096 14.7322 7.52042 14.5953C7.46988 14.4583 7.44961 14.3121 7.461 14.1665H1.88878V11.4371C2.55835 10.7226 3.37048 10.1567 4.2726 9.77603C5.17473 9.39533 6.14674 9.20831 7.12573 9.22708H7.46573C7.44405 9.06875 7.45919 8.90756 7.50997 8.75604C7.56075 8.60452 7.6458 8.46676 7.7585 8.35346L7.81517 8.30152C7.59323 8.30152 7.34295 8.27319 7.12573 8.27319C5.97369 8.24584 4.82998 8.47483 3.77728 8.9436C2.72458 9.41238 1.7892 10.1092 1.03878 10.9837C0.977476 11.0655 0.944336 11.1649 0.944336 11.2671V14.1665C0.944336 14.417 1.04384 14.6572 1.22096 14.8343C1.39807 15.0115 1.6383 15.111 1.88878 15.111H7.886L7.75378 14.9599Z" fill="#E23C46"/>
<path d="M12.6887 7.69259C12.7121 7.68776 12.7362 7.68776 12.7596 7.69259C12.7361 7.68834 12.7121 7.68834 12.6887 7.69259Z" fill="#E23C46"/>
<path d="M15.9045 11.012L14.9601 10.724C14.8926 10.493 14.8008 10.2698 14.6862 10.0581L15.1584 9.17981C15.1738 9.14468 15.1775 9.10555 15.169 9.06815C15.1605 9.03076 15.1402 8.99708 15.1112 8.97203L14.4265 8.28731C14.4006 8.25928 14.366 8.24078 14.3283 8.23478C14.2906 8.22878 14.252 8.23564 14.2187 8.25425L13.3498 8.72648C13.1359 8.6062 12.9094 8.50961 12.6745 8.43842L12.3865 7.49398C12.3743 7.45921 12.3511 7.42936 12.3204 7.40892C12.2897 7.38848 12.2533 7.37856 12.2165 7.38064H11.2484C11.2112 7.38021 11.1749 7.39199 11.1451 7.41417C11.1152 7.43634 11.0935 7.4677 11.0832 7.50342L10.7951 8.44787C10.5586 8.51668 10.3305 8.61171 10.1151 8.7312L9.25565 8.25898C9.22305 8.24073 9.18523 8.23406 9.14835 8.24006C9.11148 8.24606 9.07772 8.26438 9.0526 8.29203L8.35371 8.97203C8.32779 8.99932 8.31111 9.03407 8.30603 9.07135C8.30095 9.10864 8.30771 9.14658 8.32537 9.17981L8.79759 10.0393C8.6727 10.2521 8.57286 10.4787 8.5001 10.7145L7.55565 10.9979C7.51992 11.0082 7.48857 11.03 7.4664 11.0598C7.44422 11.0897 7.43244 11.126 7.43287 11.1631V12.1312C7.43566 12.1653 7.44897 12.1977 7.47097 12.2239C7.49296 12.2502 7.52255 12.2689 7.55565 12.2776L8.5001 12.5656C8.56989 12.7973 8.6649 13.0206 8.78343 13.2315L8.31121 14.1334C8.29319 14.1657 8.2862 14.2031 8.29132 14.2397C8.29643 14.2763 8.31336 14.3103 8.33954 14.3365L9.02426 15.0212C9.05101 15.0479 9.08549 15.0654 9.1228 15.0714C9.16011 15.0773 9.19833 15.0713 9.23204 15.0543L10.1151 14.582C10.3252 14.6951 10.5469 14.7853 10.7762 14.8512L11.0595 15.7956C11.0712 15.8306 11.0932 15.8611 11.1228 15.8831C11.1524 15.9051 11.188 15.9174 11.2248 15.9184H12.1929C12.2299 15.9181 12.2658 15.906 12.2955 15.884C12.3252 15.8619 12.3472 15.831 12.3582 15.7956L12.6462 14.8276C12.8725 14.7616 13.091 14.6714 13.2979 14.5584L14.1904 15.0306C14.2232 15.0481 14.2608 15.0543 14.2975 15.0483C14.3341 15.0423 14.3678 15.0245 14.3934 14.9976L15.1112 14.3554C15.1305 14.3277 15.1408 14.2947 15.1408 14.2609C15.1408 14.2272 15.1305 14.1942 15.1112 14.1665L14.639 13.2787C14.7536 13.0704 14.8454 12.8503 14.9129 12.6223L15.8573 12.3343C15.893 12.3239 15.9244 12.3022 15.9466 12.2723C15.9688 12.2425 15.9805 12.2062 15.9801 12.169V11.1773C15.9844 11.1454 15.9796 11.113 15.9663 11.0837C15.9529 11.0545 15.9315 11.0296 15.9045 11.012ZM11.7348 13.222C11.4225 13.223 11.1169 13.1311 10.8568 12.9582C10.5967 12.7852 10.3938 12.539 10.2738 12.2506C10.1539 11.9622 10.1222 11.6447 10.183 11.3383C10.2437 11.0319 10.394 10.7504 10.6148 10.5296C10.8357 10.3087 11.1172 10.1584 11.4236 10.0977C11.7299 10.037 12.0475 10.0686 12.3359 10.1886C12.6242 10.3085 12.8705 10.5114 13.0435 10.7715C13.2164 11.0316 13.3083 11.3372 13.3073 11.6495C13.3061 12.0662 13.14 12.4655 12.8454 12.7601C12.5507 13.0547 12.1515 13.2208 11.7348 13.222Z" fill="#E23C46"/>
</g>
<defs>
<clipPath id="clip0_115_4010">
<rect width="17" height="17" fill="white"/>
</clipPath>
</defs>
</svg>
