<svg width="28" height="28" viewBox="0 0 28 28" fill="none" xmlns="http://www.w3.org/2000/svg">
<g clip-path="url(#clip0_119_5232)">
<path fill-rule="evenodd" clip-rule="evenodd" d="M22.1669 5.53107V9.33324C22.6265 9.33324 23.0816 9.42377 23.5063 9.59966C23.9309 9.77555 24.3167 10.0334 24.6417 10.3584C24.9668 10.6834 25.2246 11.0692 25.4005 11.4938C25.5763 11.9185 25.6669 12.3736 25.6669 12.8332C25.6669 13.2929 25.5763 13.748 25.4005 14.1726C25.2246 14.5973 24.9668 14.9831 24.6417 15.3081C24.3167 15.6331 23.9309 15.8909 23.5063 16.0668C23.0816 16.2427 22.6265 16.3332 22.1669 16.3332V19.8332C22.1669 21.7559 19.9724 22.8537 18.4335 21.6999L16.0302 19.8962C14.7455 18.933 13.2497 18.2899 11.6669 18.0202V21.3382C11.667 22.1009 11.3914 22.838 10.8909 23.4135C10.3904 23.989 9.69876 24.3642 8.94342 24.4699C8.18809 24.5756 7.41999 24.4047 6.78073 23.9887C6.14147 23.5727 5.67413 22.9397 5.46487 22.2062L3.6332 15.7942C2.97406 15.0158 2.5451 14.069 2.39454 13.0602C2.24398 12.0513 2.37779 11.0205 2.78094 10.0836C3.18408 9.14662 3.84057 8.34068 4.67661 7.75637C5.51266 7.17205 6.49511 6.8325 7.51354 6.7759L11.0345 6.5799C12.7573 6.48404 14.4326 5.98063 15.9229 5.11107L18.6575 3.51507C20.2139 2.60857 22.1669 3.72974 22.1669 5.53107ZM6.5732 17.5909L7.70837 21.5657C7.763 21.7581 7.8854 21.9243 8.05297 22.0335C8.22054 22.1427 8.42196 22.1875 8.62004 22.1598C8.81812 22.1321 8.99947 22.0336 9.13062 21.8826C9.26176 21.7316 9.33384 21.5382 9.33354 21.3382V17.8266L7.51354 17.7251C7.19682 17.7075 6.8822 17.6626 6.5732 17.5909ZM19.8335 5.53107L17.0977 7.12824C15.4356 8.09709 13.5823 8.6919 11.6669 8.87124V15.6601C13.7517 15.9471 15.7362 16.7602 17.4302 18.0296L19.8335 19.8332V5.53107ZM9.33354 9.01124L7.64187 9.10457C6.85489 9.14802 6.1128 9.48493 5.56207 10.0488C5.01135 10.6126 4.69201 11.3625 4.66711 12.1502C4.6422 12.938 4.91353 13.7065 5.42754 14.304C5.94154 14.9015 6.66087 15.2847 7.44354 15.3777L7.64187 15.3952L9.33354 15.4886V9.01124ZM22.1669 11.6666V13.9999C22.4642 13.9996 22.7502 13.8857 22.9665 13.6816C23.1827 13.4775 23.3128 13.1985 23.3302 12.9016C23.3477 12.6048 23.2511 12.3125 23.0602 12.0844C22.8694 11.8564 22.5987 11.7099 22.3034 11.6747L22.1669 11.6666Z" fill="#DB0B18" fill-opacity="0.8"/>
</g>
<defs>
<clipPath id="clip0_119_5232">
<rect width="28" height="28" fill="white"/>
</clipPath>
</defs>
</svg>
