<svg width="15" height="15" viewBox="0 0 15 15" fill="none" xmlns="http://www.w3.org/2000/svg">
<path fill-rule="evenodd" clip-rule="evenodd" d="M13.5831 7.86375L13.5822 7.86937C13.5753 7.8795 13.5668 7.88837 13.5569 7.89562C13.4852 7.94792 13.3981 7.97495 13.3094 7.9725H10.3225C7.39939 7.9725 5.93501 11.5069 8.00126 13.5731C6.76333 13.6754 5.5237 13.397 4.44844 12.7751C3.37318 12.1532 2.51364 11.2176 1.98499 10.0936C1.45634 8.96951 1.28382 7.71076 1.49054 6.48594C1.69726 5.26111 2.27336 4.12871 3.14164 3.24044C4.00993 2.35218 5.12893 1.75047 6.34874 1.51594C7.56854 1.2814 8.83089 1.42525 9.96666 1.92819C11.1024 2.43114 12.0574 3.26916 12.7036 4.33C13.3498 5.39084 13.6563 6.62381 13.5822 7.86375H13.5831ZM13.3094 9.37875C14.1653 9.37875 14.9369 8.79937 14.9875 7.94531C15.079 6.40748 14.6946 4.87878 13.8868 3.56705C13.0789 2.25531 11.8867 1.22418 10.4722 0.613819C9.05772 0.00345951 7.4896 -0.156512 5.981 0.155652C4.47241 0.467816 3.09654 1.23697 2.04044 2.35855C0.98434 3.48014 0.299242 4.89973 0.0782838 6.42436C-0.142675 7.94898 0.111227 9.50466 0.805471 10.8799C1.49971 12.2552 2.60062 13.3833 3.95852 14.1109C5.31643 14.8385 6.86545 15.1302 8.39501 14.9466C9.56032 14.8087 9.82657 13.41 8.99595 12.5794C7.8147 11.3981 8.65189 9.37875 10.3225 9.37875H13.3094ZM9.3747 4.6875C9.3747 4.93614 9.27593 5.17459 9.10011 5.35041C8.9243 5.52623 8.68584 5.625 8.4372 5.625C8.18856 5.625 7.9501 5.52623 7.77429 5.35041C7.59847 5.17459 7.4997 4.93614 7.4997 4.6875C7.4997 4.43886 7.59847 4.2004 7.77429 4.02458C7.9501 3.84877 8.18856 3.75 8.4372 3.75C8.68584 3.75 8.9243 3.84877 9.10011 4.02458C9.27593 4.2004 9.3747 4.43886 9.3747 4.6875ZM5.6247 6.5625C5.87334 6.5625 6.1118 6.46373 6.28761 6.28791C6.46343 6.11209 6.5622 5.87364 6.5622 5.625C6.5622 5.37636 6.46343 5.1379 6.28761 4.96208C6.1118 4.78627 5.87334 4.6875 5.6247 4.6875C5.37606 4.6875 5.1376 4.78627 4.96179 4.96208C4.78597 5.1379 4.6872 5.37636 4.6872 5.625C4.6872 5.87364 4.78597 6.11209 4.96179 6.28791C5.1376 6.46373 5.37606 6.5625 5.6247 6.5625ZM5.6247 8.4375C5.6247 8.68614 5.52593 8.92459 5.35011 9.10041C5.1743 9.27623 4.93584 9.375 4.6872 9.375C4.43856 9.375 4.2001 9.27623 4.02429 9.10041C3.84847 8.92459 3.7497 8.68614 3.7497 8.4375C3.7497 8.18886 3.84847 7.9504 4.02429 7.77458C4.2001 7.59877 4.43856 7.5 4.6872 7.5C4.93584 7.5 5.1743 7.59877 5.35011 7.77458C5.52593 7.9504 5.6247 8.18886 5.6247 8.4375Z" fill="#DBD545"/>
</svg>
