<svg width="14" height="18" viewBox="0 0 14 18" fill="none" xmlns="http://www.w3.org/2000/svg">
<path d="M6.26816 3.25167C6.14486 2.91602 5.89781 2.64026 5.57768 2.48097C5.25754 2.32168 4.88858 2.29092 4.54649 2.395C2.92482 2.895 1.79149 4.28667 2.03482 5.89667C2.30696 7.68357 2.91247 9.40341 3.81982 10.9667C4.71747 12.5263 5.89426 13.9076 7.29149 15.0417C8.54816 16.0583 10.3115 15.7783 11.5548 14.6117C11.8164 14.3662 11.975 14.0307 11.9989 13.6728C12.0227 13.3149 11.9099 12.9613 11.6832 12.6833L10.7932 11.595C10.6149 11.3762 10.375 11.2159 10.1045 11.1351C9.8341 11.0542 9.54561 11.0565 9.27649 11.1417L7.22316 11.7917L6.86482 11.4217C6.41333 10.9534 6.0184 10.4337 5.68815 9.87334C5.36763 9.30661 5.11798 8.70264 4.94482 8.075L4.80649 7.58334L6.38982 6.125C6.59875 5.93101 6.74531 5.67929 6.81089 5.40183C6.87648 5.12437 6.85812 4.83368 6.75816 4.56667L6.26816 3.25167ZM4.05649 0.801669C4.80508 0.572632 5.61292 0.638551 6.31447 0.98592C7.01602 1.33329 7.55817 1.9358 7.82982 2.67L8.31815 3.98334C8.53358 4.56033 8.57254 5.18835 8.43008 5.78754C8.28763 6.38674 7.9702 6.93003 7.51816 7.34834L6.70149 8.1C6.80649 8.39 6.94815 8.72167 7.13149 9.04334C7.31482 9.36 7.52816 9.64834 7.72316 9.88334L8.77316 9.55C9.36018 9.36467 9.98931 9.35979 10.5791 9.53599C11.169 9.7122 11.6923 10.0614 12.0815 10.5383L12.9715 11.6267C13.4661 12.2315 13.7127 13.0016 13.6613 13.7812C13.6099 14.5609 13.2645 15.2919 12.6948 15.8267C11.0382 17.3817 8.33315 18.0267 6.24482 16.3367C4.68872 15.0743 3.37804 13.5365 2.37815 11.8C1.3659 10.0564 0.690293 8.13812 0.386488 6.145C-0.0135119 3.49 1.89149 1.46834 4.05649 0.803336" fill="#E23C46"/>
</svg>
