<svg width="24" height="24" viewBox="0 0 24 24" fill="none" xmlns="http://www.w3.org/2000/svg">
<path d="M12.5153 20.1859H6.37089C3.29867 20.1859 2.27783 18.1443 2.27783 16.0929V7.90678C2.27783 4.83455 3.29867 3.81372 6.37089 3.81372H12.5153C15.5876 3.81372 16.6084 4.83455 16.6084 7.90678V16.0929C16.6084 19.1651 15.5778 20.1859 12.5153 20.1859Z" stroke="white" stroke-width="2.25" stroke-linecap="round" stroke-linejoin="round"/>
<path d="M19.3112 16.9584L16.6084 15.0625V8.92782L19.3112 7.03199C20.6334 6.10838 21.7223 6.67227 21.7223 8.29588V15.7042C21.7223 17.3278 20.6334 17.8917 19.3112 16.9584Z" stroke="white" stroke-width="2.25" stroke-linecap="round" stroke-linejoin="round"/>
<path d="M11.514 11.0278C12.3194 11.0278 12.9723 10.3748 12.9723 9.56942C12.9723 8.764 12.3194 8.11108 11.514 8.11108C10.7086 8.11108 10.0557 8.764 10.0557 9.56942C10.0557 10.3748 10.7086 11.0278 11.514 11.0278Z" stroke="white" stroke-width="2.25" stroke-linecap="round" stroke-linejoin="round"/>
</svg>
