<svg width="30" height="29" viewBox="0 0 30 29" fill="none" xmlns="http://www.w3.org/2000/svg">
<path d="M26.9128 17.4843L24.375 15.0311V11.7812C24.3721 9.53542 23.5078 7.37039 21.9493 5.70483C20.3909 4.03926 18.2488 2.99147 15.9375 2.76406V0.90625H14.0625V2.76406C11.7512 2.99147 9.60915 4.03926 8.05066 5.70483C6.49217 7.37039 5.62791 9.53542 5.625 11.7812V15.0311L3.08719 17.4843C2.91136 17.6542 2.81255 17.8847 2.8125 18.125V20.8438C2.8125 21.0841 2.91127 21.3146 3.08709 21.4846C3.2629 21.6545 3.50136 21.75 3.75 21.75H10.3125V22.4542C10.2921 23.6039 10.7113 24.7204 11.4898 25.5898C12.2683 26.4592 13.3513 27.0204 14.5312 27.1658C15.183 27.2282 15.841 27.1581 16.4631 26.96C17.0851 26.7619 17.6573 26.4401 18.143 26.0154C18.6287 25.5906 19.017 25.0723 19.283 24.4938C19.549 23.9153 19.6868 23.2893 19.6875 22.6562V21.75H26.25C26.4986 21.75 26.7371 21.6545 26.9129 21.4846C27.0887 21.3146 27.1875 21.0841 27.1875 20.8438V18.125C27.1874 17.8847 27.0886 17.6542 26.9128 17.4843ZM17.8125 22.6562C17.8125 23.3773 17.5162 24.0688 16.9887 24.5787C16.4613 25.0886 15.7459 25.375 15 25.375C14.2541 25.375 13.5387 25.0886 13.0113 24.5787C12.4838 24.0688 12.1875 23.3773 12.1875 22.6562V21.75H17.8125V22.6562ZM25.3125 19.9375H4.6875V18.5002L7.22531 16.047C7.40114 15.8771 7.49995 15.6466 7.5 15.4062V11.7812C7.5 9.85843 8.29018 8.01436 9.6967 6.65473C11.1032 5.29509 13.0109 4.53125 15 4.53125C16.9891 4.53125 18.8968 5.29509 20.3033 6.65473C21.7098 8.01436 22.5 9.85843 22.5 11.7812V15.4062C22.5001 15.6466 22.5989 15.8771 22.7747 16.047L25.3125 18.5002V19.9375Z" fill="#4CD964"/>
</svg>
