<svg width="19" height="18" viewBox="0 0 19 18" fill="none" xmlns="http://www.w3.org/2000/svg">
<path d="M8.56249 9C8.56249 9.24864 8.66126 9.4871 8.83708 9.66291C9.01289 9.83873 9.25135 9.9375 9.49999 9.9375C9.74863 9.9375 9.98709 9.83873 10.1629 9.66291C10.3387 9.4871 10.4375 9.24864 10.4375 9C10.4375 8.75136 10.3387 8.5129 10.1629 8.33709C9.98709 8.16127 9.74863 8.0625 9.49999 8.0625C9.25135 8.0625 9.01289 8.16127 8.83708 8.33709C8.66126 8.5129 8.56249 8.75136 8.56249 9ZM12.4687 9C12.4687 9.24864 12.5675 9.4871 12.7433 9.66291C12.9191 9.83873 13.1576 9.9375 13.4062 9.9375C13.6549 9.9375 13.8933 9.83873 14.0692 9.66291C14.245 9.4871 14.3437 9.24864 14.3437 9C14.3437 8.75136 14.245 8.5129 14.0692 8.33709C13.8933 8.16127 13.6549 8.0625 13.4062 8.0625C13.1576 8.0625 12.9191 8.16127 12.7433 8.33709C12.5675 8.5129 12.4687 8.75136 12.4687 9ZM4.65624 9C4.65624 9.24864 4.75501 9.4871 4.93083 9.66291C5.10664 9.83873 5.3451 9.9375 5.59374 9.9375C5.84238 9.9375 6.08084 9.83873 6.25665 9.66291C6.43247 9.4871 6.53124 9.24864 6.53124 9C6.53124 8.75136 6.43247 8.5129 6.25665 8.33709C6.08084 8.16127 5.84238 8.0625 5.59374 8.0625C5.3451 8.0625 5.10664 8.16127 4.93083 8.33709C4.75501 8.5129 4.65624 8.75136 4.65624 9ZM17.5703 5.60938C17.1289 4.56055 16.4961 3.61914 15.6894 2.81055C14.8884 2.00663 13.9376 1.36762 12.8906 0.929688C11.8164 0.478516 10.6758 0.25 9.49999 0.25H9.46093C8.27733 0.255859 7.13085 0.490234 6.05272 0.951172C5.01475 1.3936 4.07277 2.03374 3.27929 2.83594C2.48046 3.64258 1.8535 4.58008 1.41991 5.625C0.970692 6.70703 0.744129 7.85742 0.749989 9.04102C0.756616 10.3974 1.07751 11.7338 1.68749 12.9453V15.9141C1.68749 16.1523 1.78215 16.3809 1.95064 16.5494C2.11912 16.7178 2.34765 16.8125 2.58593 16.8125H5.55663C6.76814 17.4225 8.10454 17.7434 9.46093 17.75H9.50194C10.6719 17.75 11.8066 17.5234 12.875 17.0801C13.9166 16.6474 14.864 16.0158 15.6641 15.2207C16.4707 14.4219 17.1055 13.4883 17.5488 12.4473C18.0098 11.3691 18.2441 10.2227 18.25 9.03906C18.2558 7.84961 18.0254 6.69531 17.5703 5.60938ZM14.6191 14.1641C13.25 15.5195 11.4336 16.2656 9.49999 16.2656H9.46679C8.28905 16.2598 7.11913 15.9668 6.08593 15.416L5.92186 15.3281H3.17186V12.5781L3.08397 12.4141C2.53319 11.3809 2.24022 10.2109 2.23436 9.0332C2.22655 7.08594 2.97069 5.25781 4.33593 3.88086C5.69921 2.50391 7.52147 1.74219 9.46874 1.73438H9.50194C10.4785 1.73438 11.4258 1.92383 12.3183 2.29883C13.1894 2.66406 13.9707 3.18945 14.6426 3.86133C15.3125 4.53125 15.8398 5.31445 16.2051 6.18555C16.584 7.08789 16.7734 8.04492 16.7695 9.0332C16.7578 10.9785 15.9941 12.8008 14.6191 14.1641Z" fill="#5BA3BA"/>
</svg>
