<svg width="26" height="26" viewBox="0 0 26 26" fill="none" xmlns="http://www.w3.org/2000/svg">
<path d="M10.6552 4.65412C10.6755 4.77843 10.6138 4.88162 10.4066 4.98562C9.98656 4.81788 9.53222 4.75405 9.08222 4.79956C8.56466 4.841 8.12997 5.00675 8.18847 5.35856C8.26972 5.71037 8.76778 5.91756 9.65747 5.83468C11.8301 5.64862 11.8098 4.17881 14.9964 3.88956C17.4794 3.66206 18.8663 4.42743 19.0524 5.35856C19.197 6.0825 18.5974 6.78612 16.7969 6.93156C15.2036 7.07618 14.2725 6.6415 14.1896 6.20762C14.1482 5.98012 14.2708 5.64862 15.0378 5.56575C15.1191 5.91756 15.5554 6.28968 16.5897 6.1865C17.3397 6.12312 17.9563 5.85012 17.8751 5.44387C17.7938 5.00918 17.0057 4.76137 15.7626 4.86456C13.2382 5.09206 12.6174 6.479 10.4651 6.66506C8.93759 6.80562 7.69609 6.24743 7.53034 5.4195C7.46859 5.10912 7.4686 4.38518 9.08222 4.23975C9.91016 4.178 10.5723 4.32181 10.6552 4.65412ZM2.58466 13.304C1.91372 14.1312 1.57458 15.1785 1.63322 16.242C1.66749 16.7278 1.8052 17.2006 2.03711 17.6289C2.26903 18.0571 2.58979 18.4308 2.97791 18.725C3.35635 19.0293 3.79817 19.2449 4.27088 19.3559C4.74359 19.467 5.23519 19.4707 5.70953 19.3669C6.12434 19.264 6.53156 19.1326 6.92828 18.9736C6.10841 18.9725 5.31583 18.679 4.69309 18.1457C4.31258 17.8808 3.99108 17.54 3.74887 17.1446C3.50666 16.7493 3.34901 16.3081 3.28585 15.8487C3.19416 15.4294 3.19118 14.9954 3.27709 14.5748C3.36301 14.1542 3.53591 13.7562 3.78472 13.4064C4.05534 13.0625 4.39301 12.7771 4.77723 12.5676C5.16145 12.3581 5.58422 12.2288 6.01991 12.1876C6.95261 12.1224 7.87777 12.394 8.62722 12.953C8.41384 12.6982 8.17838 12.4628 7.92359 12.2494C7.52577 11.9524 7.06658 11.748 6.57962 11.6513C6.09266 11.5546 5.59023 11.5679 5.1091 11.6904C4.09863 11.902 3.20063 12.4755 2.58466 13.304ZM13.6769 8.52325C11.404 8.54176 9.13526 8.32667 6.90634 7.88137C5.06766 7.42637 4.09509 6.92993 4.09509 6.28887C4.09509 6.01993 4.21941 5.79243 4.59153 5.5235C3.43291 5.9785 2.81216 6.35143 2.81216 6.93075C2.87391 7.57262 3.90903 8.21368 6.01991 8.71012C8.51186 9.26688 11.0614 9.52383 13.6143 9.4755C16.1666 9.52717 18.7158 9.27018 21.2063 8.71012C23.3188 8.21368 24.3312 7.5515 24.3312 6.93075C24.3312 6.47575 23.8762 6.037 23.0483 5.712C23.1446 5.77145 23.2251 5.85336 23.2828 5.95072C23.3405 6.04807 23.3738 6.15797 23.3798 6.271C23.3798 6.91287 22.4275 7.42962 20.5035 7.86431C18.2582 8.32825 15.9695 8.54917 13.6769 8.52325ZM21.2925 10.3026C18.7972 10.8388 16.2501 11.0955 13.698 11.068C11.1256 11.0882 8.55853 10.8316 6.04103 10.3026C4.26166 9.84762 3.30941 9.35037 2.97872 8.83362C3.31451 11.0106 4.0295 13.1119 5.09122 15.0419C5.85659 16.2006 6.62278 17.2146 7.38816 18.3114C7.70395 18.9204 7.94041 19.5672 8.09178 20.2362C8.60824 20.9395 9.35636 21.4378 10.2043 21.6435C11.2909 22.0346 12.445 22.2034 13.5981 22.1399H13.7224C14.9076 22.1913 16.0921 22.023 17.2162 21.6435C18.0324 21.4066 18.7506 20.9132 19.2645 20.2362H19.3262C19.4554 19.5694 19.6712 18.9223 19.9681 18.3114C20.7335 17.2146 21.4997 16.1989 22.265 15.0419C23.3051 13.1026 24.018 11.005 24.3751 8.83362C23.9615 9.41293 23.0093 9.91262 21.2917 10.3034L21.2925 10.3026Z" fill="#6F4E37"/>
</svg>
