<svg width="18" height="17" viewBox="0 0 18 17" fill="none" xmlns="http://www.w3.org/2000/svg">
<path d="M15.7827 6.09522L4.11606 0.261891C3.65564 0.0327317 3.13574 -0.0488505 2.62725 0.0282672C2.11877 0.105385 1.64644 0.337449 1.27467 0.692821C0.902895 1.04819 0.64977 1.50958 0.549803 2.01407C0.449836 2.51856 0.507893 3.0416 0.716059 3.51189L2.71606 7.98689C2.76144 8.09508 2.78481 8.21123 2.78481 8.32856C2.78481 8.44588 2.76144 8.56203 2.71606 8.67022L0.716059 13.1452C0.546642 13.5258 0.475022 13.9427 0.507707 14.358C0.540391 14.7733 0.676344 15.1739 0.903211 15.5233C1.13008 15.8727 1.44066 16.1599 1.80674 16.3587C2.17283 16.5576 2.58279 16.6618 2.99939 16.6619C3.38958 16.658 3.77397 16.5669 4.12439 16.3952L15.7911 10.5619C16.2049 10.3537 16.5527 10.0346 16.7958 9.64029C17.0389 9.24593 17.1676 8.7918 17.1676 8.32856C17.1676 7.86531 17.0389 7.41118 16.7958 7.01683C16.5527 6.62247 16.2049 6.3034 15.7911 6.09522H15.7827ZM15.0411 9.07022L3.37439 14.9036C3.22119 14.9771 3.04917 15.0021 2.88138 14.9751C2.71359 14.9481 2.55807 14.8705 2.43565 14.7526C2.31324 14.6347 2.22979 14.4822 2.1965 14.3156C2.16321 14.1489 2.18166 13.9761 2.24939 13.8202L4.24106 9.34522C4.26684 9.28547 4.2891 9.22425 4.30773 9.16189H10.0494C10.2704 9.16189 10.4824 9.07409 10.6386 8.91781C10.7949 8.76153 10.8827 8.54957 10.8827 8.32856C10.8827 8.10754 10.7949 7.89558 10.6386 7.7393C10.4824 7.58302 10.2704 7.49522 10.0494 7.49522H4.30773C4.2891 7.43286 4.26684 7.37165 4.24106 7.31189L2.24939 2.83689C2.18166 2.68103 2.16321 2.50818 2.1965 2.34153C2.22979 2.17488 2.31324 2.02239 2.43565 1.90451C2.55807 1.78663 2.71359 1.709 2.88138 1.68202C3.04917 1.65504 3.22119 1.68 3.37439 1.75356L15.0411 7.58689C15.1776 7.65682 15.2921 7.76307 15.3721 7.89393C15.4521 8.02479 15.4944 8.17519 15.4944 8.32856C15.4944 8.48193 15.4521 8.63233 15.3721 8.76319C15.2921 8.89405 15.1776 9.00029 15.0411 9.07022Z" fill="#000080" fill-opacity="0.8"/>
</svg>
