<svg width="14" height="14" viewBox="0 0 14 14" fill="none" xmlns="http://www.w3.org/2000/svg">
<path d="M12 12H1.5V1.5H12M12 0H1.5C1.10218 0 0.720644 0.158035 0.43934 0.43934C0.158035 0.720644 0 1.10218 0 1.5V12C0 12.3978 0.158035 12.7794 0.43934 13.0607C0.720644 13.342 1.10218 13.5 1.5 13.5H12C12.3978 13.5 12.7794 13.342 13.0607 13.0607C13.342 12.7794 13.5 12.3978 13.5 12V1.5C13.5 1.10218 13.342 0.720644 13.0607 0.43934C12.7794 0.158035 12.3978 0 12 0ZM10.125 9.9375C10.125 8.8125 7.875 8.25 6.75 8.25C5.625 8.25 3.375 8.8125 3.375 9.9375V10.5H10.125M6.75 6.9375C7.19755 6.9375 7.62677 6.75971 7.94324 6.44324C8.25971 6.12677 8.4375 5.69755 8.4375 5.25C8.4375 4.80245 8.25971 4.37323 7.94324 4.05676C7.62677 3.74029 7.19755 3.5625 6.75 3.5625C6.30245 3.5625 5.87323 3.74029 5.55676 4.05676C5.24029 4.37323 5.0625 4.80245 5.0625 5.25C5.0625 5.69755 5.24029 6.12677 5.55676 6.44324C5.87323 6.75971 6.30245 6.9375 6.75 6.9375Z" fill="#4CD964"/>
</svg>
