<svg width="17" height="17" viewBox="0 0 17 17" fill="none" xmlns="http://www.w3.org/2000/svg">
<g clip-path="url(#clip0_115_4018)">
<path d="M15.0313 6.6001C15.6305 6.94512 16.1163 7.45703 16.4295 8.0734C16.7427 8.68978 16.8698 9.38398 16.7953 10.0713C16.7208 10.7587 16.4478 11.4095 16.0098 11.9445C15.5717 12.4794 14.9875 12.8753 14.3283 13.0838C14.0953 14.1411 13.5083 15.0871 12.6643 15.7652C11.8204 16.4433 10.7702 16.8128 9.68756 16.8126H7.90631C7.74884 16.8126 7.59782 16.75 7.48647 16.6387C7.37512 16.5273 7.31256 16.3763 7.31256 16.2188C7.31256 16.0614 7.37512 15.9104 7.48647 15.799C7.59782 15.6877 7.74884 15.6251 7.90631 15.6251H9.68756C10.4245 15.6253 11.1435 15.397 11.7453 14.9717C12.3472 14.5463 12.8024 13.9449 13.0482 13.2501H12.6563C12.4988 13.2501 12.3478 13.1875 12.2365 13.0762C12.1251 12.9648 12.0626 12.8138 12.0626 12.6563V6.71885C12.0626 6.56138 12.1251 6.41035 12.2365 6.299C12.3478 6.18765 12.4988 6.1251 12.6563 6.1251H13.2501C13.4424 6.1251 13.6313 6.14054 13.8165 6.17022C13.6828 4.85316 13.065 3.63259 12.0828 2.74502C11.1006 1.85745 9.82389 1.36606 8.50006 1.36606C7.17623 1.36606 5.89952 1.85745 4.91731 2.74502C3.93509 3.63259 3.3173 4.85316 3.18362 6.17022C3.37095 6.14022 3.56035 6.12513 3.75006 6.1251H4.34381C4.50128 6.1251 4.65231 6.18765 4.76366 6.299C4.87501 6.41035 4.93756 6.56138 4.93756 6.71885V12.6563C4.93756 12.8138 4.87501 12.9648 4.76366 13.0762C4.65231 13.1875 4.50128 13.2501 4.34381 13.2501H3.75006C2.9651 13.251 2.20183 12.9926 1.57883 12.515C0.955839 12.0375 0.508003 11.3676 0.304905 10.6093C0.101808 9.85112 0.154821 9.04704 0.45571 8.32203C0.756598 7.59703 1.28851 6.9917 1.96881 6.6001C1.96881 4.8679 2.65692 3.20665 3.88177 1.98181C5.10662 0.75696 6.76787 0.0688477 8.50006 0.0688477C10.2323 0.0688477 11.8935 0.75696 13.1184 1.98181C14.3432 3.20665 15.0313 4.8679 15.0313 6.6001ZM3.75006 7.3126C3.12017 7.3126 2.51608 7.56282 2.07068 8.00822C1.62528 8.45362 1.37506 9.05771 1.37506 9.6876C1.37506 10.3175 1.62528 10.9216 2.07068 11.367C2.51608 11.8124 3.12017 12.0626 3.75006 12.0626V7.3126ZM15.6251 9.6876C15.6251 9.05771 15.3748 8.45362 14.9294 8.00822C14.484 7.56282 13.88 7.3126 13.2501 7.3126V12.0626C13.88 12.0626 14.484 11.8124 14.9294 11.367C15.3748 10.9216 15.6251 10.3175 15.6251 9.6876Z" fill="#20E871"/>
</g>
<defs>
<clipPath id="clip0_115_4018">
<rect width="17" height="17" fill="white"/>
</clipPath>
</defs>
</svg>
