<svg width="17" height="14" viewBox="0 0 17 14" fill="none" xmlns="http://www.w3.org/2000/svg">
<path d="M8.5 1.83335C7.56069 1.83335 6.65985 2.20649 5.99566 2.87068C5.33147 3.53488 4.95833 4.43571 4.95833 5.37502V6.79169H4.25C3.6975 6.79169 2.97146 7.0056 2.39417 7.47452C1.84025 7.92502 1.41667 8.61352 1.41667 9.62502C1.41667 10.6266 1.85229 11.3165 2.4225 11.7727C3.01467 12.2473 3.74425 12.4584 4.25 12.4584C4.93921 12.4584 5.83596 12.4477 6.56129 12.0893C6.90483 11.9193 7.19879 11.6749 7.41342 11.3123C7.63017 10.9461 7.79167 10.4127 7.79167 9.62502V8.85577L6.72917 9.91827L5.72758 8.91669L8.5 6.14427L11.2724 8.91669L10.2708 9.91827L9.20833 8.85577V9.62502C9.20833 10.6075 9.00575 11.4029 8.63317 12.0334C8.29276 12.6081 7.79003 13.0695 7.18817 13.3594C6.14408 13.875 4.94346 13.875 4.28967 13.875H4.25C3.42267 13.875 2.38142 13.5549 1.53708 12.8784C0.667958 12.1842 0 11.1026 0 9.62502C0 8.15735 0.639625 7.07502 1.50167 6.37448C2.09346 5.89849 2.79462 5.57762 3.54167 5.4409V5.37502C3.54167 4.05999 4.06406 2.79882 4.99393 1.86895C5.9238 0.939081 7.18497 0.416687 8.5 0.416687C9.81503 0.416687 11.0762 0.939081 12.0061 1.86895C12.9359 2.79882 13.4583 4.05999 13.4583 5.37502V5.4409C14.2054 5.57762 14.9065 5.89849 15.4983 6.37448C16.3618 7.07573 17 8.15735 17 9.62502C17 11.0955 16.3575 12.1849 15.4381 12.8883C14.5414 13.574 13.4087 13.875 12.3958 13.875H9.5625V12.4584H12.3958C13.1537 12.4584 13.969 12.2281 14.5775 11.7628C15.1633 11.3151 15.5833 10.6337 15.5833 9.62502C15.5833 8.61352 15.1597 7.92502 14.6058 7.47452C14.0278 7.0056 13.3025 6.79169 12.75 6.79169H12.0417V5.37502C12.0417 4.43571 11.6685 3.53488 11.0043 2.87068C10.3401 2.20649 9.43931 1.83335 8.5 1.83335Z" fill="#E23C46"/>
</svg>
