<svg width="17" height="19" viewBox="0 0 17 19" fill="none" xmlns="http://www.w3.org/2000/svg">
<path d="M3.60862 18.3449C3.10612 18.3449 2.6775 18.1679 2.32275 17.8139C1.96875 17.4599 1.79175 17.0313 1.79175 16.528V2.59489H0.666748V1.46989H5.16675V0.603638H11.9167V1.46989H16.4167V2.59489H15.2917V16.528C15.2917 17.0455 15.1185 17.4775 14.772 17.824C14.4247 18.1713 13.9924 18.3449 13.4749 18.3449H3.60862ZM14.1667 2.59489H2.91675V16.528C2.91675 16.7298 2.98162 16.8955 3.11137 17.0253C3.24112 17.155 3.40687 17.2199 3.60862 17.2199H13.4749C13.6474 17.2199 13.806 17.1479 13.9508 17.0039C14.0948 16.8591 14.1667 16.7005 14.1667 16.528V2.59489ZM6.07575 14.9699H7.20075V4.84489H6.07575V14.9699ZM9.88275 14.9699H11.0077V4.84489H9.88275V14.9699Z" fill="#D70606"/>
</svg>
