<svg width="213" height="213" viewBox="0 0 213 213" fill="none" xmlns="http://www.w3.org/2000/svg">
<path d="M84.9062 132H70.0938V84H85.5625C90.2188 84 94.2031 84.9609 97.5156 86.8828C100.828 88.7891 103.367 91.5312 105.133 95.1094C106.898 98.6719 107.781 102.937 107.781 107.906C107.781 112.906 106.891 117.211 105.109 120.82C103.328 124.414 100.734 127.18 97.3281 129.117C93.9219 131.039 89.7813 132 84.9062 132ZM75.9063 126.844H84.5313C88.5 126.844 91.7891 126.078 94.3984 124.547C97.0078 123.016 98.9531 120.836 100.234 118.008C101.516 115.18 102.156 111.812 102.156 107.906C102.156 104.031 101.523 100.695 100.258 97.8984C98.9922 95.0859 97.1016 92.9297 94.5859 91.4297C92.0703 89.9141 88.9375 89.1562 85.1875 89.1562H75.9063V126.844Z" fill="white"/>
<path d="M103.551 133V85H113.699V104.805H134.301V85H144.426V133H134.301V113.172H113.699V133H103.551Z" fill="white"/>
</svg>
