<svg width="21" height="19" viewBox="0 0 21 19" fill="none" xmlns="http://www.w3.org/2000/svg">
<path d="M19.3657 16.8393L18.6098 17.8467C17.9006 18.7907 16.7127 18.8966 15.8341 18.0944L14.0843 16.496C13.3228 15.7998 12.9852 14.5901 13.2497 13.5061L13.988 10.4878C13.352 9.43526 12.5133 8.54813 11.4729 7.82578C10.4756 7.12037 9.37155 6.66454 8.2262 6.48526L6.64328 8.6499C6.04335 9.46885 5.06881 9.6898 4.22738 9.19702L2.26468 8.05093C1.28512 7.47803 0.760945 6.11072 1.0373 4.85151L1.33282 3.50235C1.62775 2.15918 2.48203 1.14842 3.57538 0.851337C6.15779 0.14741 9.33735 1.1953 13.1175 3.99261C16.9033 6.79437 19.2055 9.80982 20.0214 13.0354C20.365 14.3926 20.1163 15.8399 19.3657 16.8393Z" fill="#E23C46"/>
</svg>
