<svg width="27" height="23" viewBox="0 0 27 23" fill="none" xmlns="http://www.w3.org/2000/svg">
<path d="M3.75 11.5V0.5M23 22.5V18.375M3.75 22.5V17M23 12.875V0.5M13.375 4.625V0.5M13.375 22.5V10.125" stroke="black" stroke-opacity="0.5" stroke-linecap="round"/>
<path d="M3.75 17C5.26878 17 6.5 15.7688 6.5 14.25C6.5 12.7312 5.26878 11.5 3.75 11.5C2.23122 11.5 1 12.7312 1 14.25C1 15.7688 2.23122 17 3.75 17Z" stroke="black" stroke-opacity="0.5" stroke-linecap="round"/>
<path d="M13.375 10.125C14.8938 10.125 16.125 8.89378 16.125 7.375C16.125 5.85622 14.8938 4.625 13.375 4.625C11.8562 4.625 10.625 5.85622 10.625 7.375C10.625 8.89378 11.8562 10.125 13.375 10.125Z" stroke="black" stroke-opacity="0.5" stroke-linecap="round"/>
<path d="M23 18.375C24.5188 18.375 25.75 17.1438 25.75 15.625C25.75 14.1062 24.5188 12.875 23 12.875C21.4812 12.875 20.25 14.1062 20.25 15.625C20.25 17.1438 21.4812 18.375 23 18.375Z" stroke="black" stroke-opacity="0.5" stroke-linecap="round"/>
</svg>
