<svg width="26" height="27" viewBox="0 0 26 27" fill="none" xmlns="http://www.w3.org/2000/svg">
<path d="M3.66438 4.57424C3.59825 4.6335 3.54516 4.70683 3.50871 4.78927C3.47226 4.8717 3.45331 4.96131 3.45312 5.05201V22.7813C3.45313 22.9491 3.51733 23.1101 3.63161 23.2288C3.74589 23.3475 3.90088 23.4141 4.0625 23.4141C4.22412 23.4141 4.37911 23.3475 4.49339 23.2288C4.60767 23.1101 4.67188 22.9491 4.67188 22.7813V18.012C7.52375 15.6084 9.94094 16.8519 12.7298 18.2831C14.367 19.1268 16.1312 20.0317 18.0111 20.0317C19.3893 20.0317 20.8305 19.5466 22.3336 18.1945C22.3998 18.1356 22.4532 18.0627 22.4899 17.9807C22.5267 17.8986 22.5462 17.8093 22.5469 17.7188V5.05201C22.547 4.93063 22.5135 4.81178 22.4504 4.70962C22.3873 4.60746 22.2972 4.52631 22.1909 4.47584C22.0846 4.42537 21.9665 4.40771 21.8509 4.42497C21.7352 4.44223 21.6267 4.49368 21.5384 4.57318C18.593 7.22256 16.1271 5.95377 13.2702 4.48459C10.4376 3.02807 7.21094 1.38803 3.66438 4.57424ZM21.3281 17.4203C18.4762 19.825 16.0591 18.5805 13.2702 17.1482C10.7047 15.8288 7.82945 14.3512 4.67188 16.4532V5.34943C7.52375 2.94475 9.94094 4.18928 12.7298 5.61943C15.2953 6.93885 18.1705 8.41647 21.3281 6.31869V17.4203Z" fill="white"/>
</svg>
