<svg width="17" height="17" viewBox="0 0 17 17" fill="none" xmlns="http://www.w3.org/2000/svg">
<g clip-path="url(#clip0_115_4016)">
<path d="M8.0625 12.4375H8.9375V7.625H8.0625V12.4375ZM8.5 6.37987C8.65283 6.37987 8.78058 6.32825 8.88325 6.225C8.9865 6.12175 9.03813 5.994 9.03813 5.84175C9.03813 5.68892 8.9865 5.56087 8.88325 5.45762C8.78058 5.35437 8.65283 5.30275 8.5 5.30275C8.34717 5.30275 8.21942 5.35437 8.11675 5.45762C8.0135 5.56087 7.96187 5.68892 7.96187 5.84175C7.96187 5.994 8.0135 6.12175 8.11675 6.225C8.21942 6.32825 8.34717 6.37987 8.5 6.37987ZM8.50263 16.375C7.41413 16.375 6.39038 16.1685 5.43138 15.7555C4.47296 15.3419 3.63908 14.7808 2.92975 14.072C2.22042 13.3638 1.65896 12.5308 1.24538 11.573C0.831792 10.6152 0.625 9.59171 0.625 8.50263C0.625 7.41413 0.8315 6.39038 1.2445 5.43138C1.65808 4.47296 2.21925 3.63908 2.928 2.92975C3.63617 2.22042 4.46917 1.65896 5.427 1.24538C6.38483 0.831792 7.40829 0.625 8.49737 0.625C9.58587 0.625 10.6096 0.8315 11.5686 1.2445C12.527 1.65808 13.3609 2.21925 14.0702 2.928C14.7796 3.63617 15.341 4.46917 15.7546 5.427C16.1682 6.38483 16.375 7.40829 16.375 8.49737C16.375 9.58587 16.1685 10.6096 15.7555 11.5686C15.3419 12.527 14.7808 13.3609 14.072 14.0702C13.3638 14.7796 12.5308 15.341 11.573 15.7546C10.6152 16.1682 9.59171 16.375 8.50263 16.375ZM8.5 15.5C10.4542 15.5 12.1094 14.8219 13.4656 13.4656C14.8219 12.1094 15.5 10.4542 15.5 8.5C15.5 6.54583 14.8219 4.89062 13.4656 3.53437C12.1094 2.17812 10.4542 1.5 8.5 1.5C6.54583 1.5 4.89062 2.17812 3.53437 3.53437C2.17812 4.89062 1.5 6.54583 1.5 8.5C1.5 10.4542 2.17812 12.1094 3.53437 13.4656C4.89062 14.8219 6.54583 15.5 8.5 15.5Z" fill="#297DDA" fill-opacity="0.8"/>
</g>
<defs>
<clipPath id="clip0_115_4016">
<rect width="17" height="17" fill="white"/>
</clipPath>
</defs>
</svg>
