<svg width="16" height="16" viewBox="0 0 16 16" fill="none" xmlns="http://www.w3.org/2000/svg">
<path d="M15.0175 11.7775L15.8725 11.0275L15.1225 9.73L14.035 10.0975C13.795 9.895 13.525 9.7375 13.225 9.625L13 8.5H11.5L11.275 9.6175C10.975 9.73 10.705 9.8875 10.465 10.09L9.3775 9.7225L8.6275 11.02L9.4825 11.77C9.4225 12.145 9.4225 12.34 9.4825 12.715L8.6275 13.465L9.3775 14.7625L10.465 14.395C10.705 14.5975 10.975 14.755 11.275 14.8675L11.5 16H13L13.225 14.8825C13.525 14.77 13.795 14.6125 14.035 14.41L15.1225 14.7775L15.8725 13.48L15.0175 12.73C15.0775 12.3475 15.0775 12.1525 15.0175 11.7775ZM12.25 13.75C11.425 13.75 10.75 13.075 10.75 12.25C10.75 11.425 11.425 10.75 12.25 10.75C13.075 10.75 13.75 11.425 13.75 12.25C13.75 13.075 13.075 13.75 12.25 13.75ZM6.25 3.25V7.3075L8.02 9.0775L8.8 7.735L7.75 6.6925V3.25H6.25ZM13.75 7C13.75 5.20979 13.0388 3.4929 11.773 2.22703C10.5071 0.961159 8.79021 0.25 7 0.25C4.8775 0.25 2.9875 1.24 1.75 2.77V1H0.25V5.5H4.75V4H2.695C3.17873 3.3064 3.82263 2.73971 4.57207 2.34801C5.32151 1.95632 6.15437 1.75118 7 1.75C9.895 1.75 12.25 4.105 12.25 7H13.75ZM6.145 12.1825C3.9025 11.815 2.1325 10.0075 1.81 7.75H0.295C0.67 11.125 3.5275 13.75 7 13.75H7.0525L6.145 12.1825Z" fill="#5BA3BA"/>
</svg>
