<svg width="13" height="13" viewBox="0 0 13 13" fill="none" xmlns="http://www.w3.org/2000/svg">
<g clip-path="url(#clip0_376_2435)">
<path d="M7.17285 11.9399C7.21517 12.1007 7.24691 12.2637 7.26807 12.4287C7.28923 12.5938 7.30404 12.763 7.3125 12.9365C7.85417 12.873 8.37044 12.7461 8.86133 12.5557C9.35221 12.3652 9.80713 12.1219 10.2261 11.8257C10.645 11.5295 11.0259 11.1867 11.3687 10.7974C11.7114 10.408 12.0034 9.98486 12.2446 9.52783C12.4858 9.0708 12.672 8.58838 12.8032 8.08057C12.9344 7.57275 13 7.0459 13 6.5C13 5.90332 12.9238 5.3278 12.7715 4.77344C12.6191 4.21908 12.4012 3.70068 12.1177 3.21826C11.8341 2.73584 11.4956 2.29785 11.1021 1.9043C10.7085 1.51074 10.2684 1.1722 9.78174 0.888672C9.29508 0.605143 8.77881 0.387207 8.23291 0.234863C7.68701 0.0825195 7.10938 0.00423177 6.5 0C5.90332 0 5.32992 0.0761719 4.77979 0.228516C4.22966 0.380859 3.71126 0.600911 3.22461 0.888672C2.73796 1.17643 2.29997 1.51497 1.91064 1.9043C1.52132 2.29362 1.18066 2.73372 0.888672 3.22461C0.59668 3.71549 0.378743 4.23177 0.234863 4.77344C0.0909834 5.3151 0.0126953 5.89062 0 6.5H0.450684C0.509929 6.40267 0.571289 6.30745 0.634766 6.21436C0.698242 6.12126 0.772298 6.03239 0.856934 5.94775C0.882324 5.57959 0.947917 5.22201 1.05371 4.875H8.82959C8.86344 5.14583 8.88883 5.41455 8.90576 5.68115C8.92269 5.94775 8.93327 6.2207 8.9375 6.5C8.9375 6.77506 8.92904 7.0459 8.91211 7.3125C8.89518 7.5791 8.86768 7.84994 8.82959 8.125H6.5C6.5 8.26042 6.48942 8.39583 6.46826 8.53125C6.4471 8.66667 6.4196 8.80208 6.38574 8.9375H8.68994C8.63916 9.17871 8.57145 9.4432 8.48682 9.73096C8.40218 10.0187 8.29639 10.3001 8.16943 10.5752C8.04248 10.8503 7.89648 11.1084 7.73145 11.3496C7.56641 11.5908 7.38021 11.7876 7.17285 11.9399ZM1.36475 4.0625C1.52979 3.71973 1.72445 3.39811 1.94873 3.09766C2.17301 2.7972 2.42692 2.52214 2.71045 2.27246C2.99398 2.02279 3.29443 1.80062 3.61182 1.60596C3.9292 1.4113 4.27197 1.2526 4.64014 1.12988C4.48779 1.34147 4.35238 1.56576 4.23389 1.80273C4.1154 2.03971 4.00749 2.28304 3.91016 2.53271C3.81283 2.78239 3.73031 3.0363 3.6626 3.29443C3.59489 3.55257 3.53564 3.80859 3.48486 4.0625H1.36475ZM6.5 0.8125C6.71159 0.8125 6.90625 0.869629 7.08398 0.983887C7.26172 1.09814 7.42676 1.24837 7.5791 1.43457C7.73145 1.62077 7.86686 1.83024 7.98535 2.06299C8.10384 2.29574 8.21175 2.53483 8.30908 2.78027C8.40641 3.02572 8.4847 3.25846 8.54395 3.47852C8.60319 3.69857 8.65186 3.89323 8.68994 4.0625H4.31006C4.34391 3.89746 4.39258 3.7028 4.45605 3.47852C4.51953 3.25423 4.59782 3.02148 4.69092 2.78027C4.78402 2.53906 4.88981 2.30208 5.0083 2.06934C5.12679 1.83659 5.26221 1.625 5.41455 1.43457C5.56689 1.24414 5.73405 1.09391 5.91602 0.983887C6.09798 0.873861 6.29264 0.816732 6.5 0.8125ZM8.35352 1.12354C8.71322 1.24626 9.05599 1.40283 9.38184 1.59326C9.70768 1.78369 10.0103 2.00586 10.2896 2.25977C10.5688 2.51367 10.8228 2.79085 11.0513 3.09131C11.2798 3.39176 11.4744 3.71549 11.6353 4.0625H9.51514C9.46859 3.82975 9.41146 3.58219 9.34375 3.31982C9.27604 3.05745 9.19141 2.79508 9.08984 2.53271C8.98828 2.27034 8.87826 2.01855 8.75977 1.77734C8.64128 1.53613 8.50586 1.3182 8.35352 1.12354ZM12.1875 6.5C12.1875 7.06283 12.1092 7.60449 11.9526 8.125H9.64844C9.68229 7.85417 9.70768 7.58545 9.72461 7.31885C9.74154 7.05225 9.75 6.7793 9.75 6.5C9.75 6.22494 9.74154 5.9541 9.72461 5.6875C9.70768 5.4209 9.68229 5.15006 9.64844 4.875H11.9526C12.1092 5.39551 12.1875 5.93717 12.1875 6.5ZM11.6479 8.9375C11.4829 9.28027 11.2882 9.60189 11.064 9.90234C10.8397 10.2028 10.5858 10.48 10.3022 10.7339C10.0187 10.9878 9.71403 11.2078 9.38818 11.394C9.06234 11.5802 8.71956 11.7389 8.35986 11.8701C8.51221 11.6585 8.64762 11.4342 8.76611 11.1973C8.8846 10.9603 8.99251 10.717 9.08984 10.4673C9.18717 10.2176 9.26969 9.9637 9.3374 9.70557C9.40511 9.44743 9.46647 9.19141 9.52148 8.9375H11.6479ZM1.81543 10.0864C1.54036 10.2261 1.29069 10.3975 1.06641 10.6006C0.842122 10.8037 0.651692 11.0322 0.495117 11.2861C0.338542 11.54 0.21582 11.8109 0.126953 12.0986C0.0380859 12.3864 -0.00423145 12.6868 0 13H0.8125C0.8125 12.6657 0.875977 12.3504 1.00293 12.0542C1.12988 11.758 1.30339 11.4998 1.52344 11.2798C1.74349 11.0597 2.00374 10.8841 2.3042 10.7529C2.60466 10.6217 2.91992 10.5583 3.25 10.5625C3.58854 10.5625 3.90381 10.626 4.1958 10.7529C4.48779 10.8799 4.74593 11.0534 4.97021 11.2734C5.1945 11.4935 5.37012 11.7537 5.49707 12.0542C5.62402 12.3547 5.6875 12.6699 5.6875 13H6.5C6.5 12.6911 6.45768 12.3927 6.37305 12.105C6.28841 11.8172 6.16781 11.5443 6.01123 11.2861C5.85465 11.028 5.66423 10.7995 5.43994 10.6006C5.21566 10.4017 4.96598 10.2303 4.69092 10.0864C5.0083 9.85791 5.25374 9.57227 5.42725 9.22949C5.60075 8.88672 5.6875 8.51855 5.6875 8.125C5.6875 7.79069 5.62402 7.47542 5.49707 7.1792C5.37012 6.88298 5.19661 6.62484 4.97656 6.40479C4.75651 6.18473 4.49837 6.00911 4.20215 5.87793C3.90592 5.74674 3.58854 5.68327 3.25 5.6875C2.91569 5.6875 2.60042 5.75098 2.3042 5.87793C2.00798 6.00488 1.74984 6.17839 1.52979 6.39844C1.30973 6.61849 1.13411 6.87874 1.00293 7.1792C0.871745 7.47965 0.808269 7.79492 0.8125 8.125C0.8125 8.51432 0.899251 8.88037 1.07275 9.22314C1.24626 9.56592 1.49382 9.85368 1.81543 10.0864ZM3.25 9.75C3.02572 9.75 2.81624 9.70768 2.62158 9.62305C2.42692 9.53841 2.25342 9.42204 2.10107 9.27393C1.94873 9.12581 1.83236 8.95443 1.75195 8.75977C1.67155 8.5651 1.62923 8.35352 1.625 8.125C1.625 7.90072 1.66732 7.69124 1.75195 7.49658C1.83659 7.30192 1.95296 7.12842 2.10107 6.97607C2.24919 6.82373 2.42057 6.70736 2.61523 6.62695C2.8099 6.54655 3.02148 6.50423 3.25 6.5C3.47428 6.5 3.68376 6.54232 3.87842 6.62695C4.07308 6.71159 4.24658 6.82796 4.39893 6.97607C4.55127 7.12419 4.66764 7.29557 4.74805 7.49023C4.82845 7.6849 4.87077 7.89648 4.875 8.125C4.875 8.34928 4.83268 8.55876 4.74805 8.75342C4.66341 8.94808 4.54704 9.12158 4.39893 9.27393C4.25081 9.42627 4.07943 9.54264 3.88477 9.62305C3.6901 9.70345 3.47852 9.74577 3.25 9.75Z" fill="#4CD964"/>
</g>
<defs>
<clipPath id="clip0_376_2435">
<rect width="13" height="13" fill="white" transform="matrix(-1 0 0 1 13 0)"/>
</clipPath>
</defs>
</svg>
