<svg width="18" height="20" viewBox="0 0 18 20" fill="none" xmlns="http://www.w3.org/2000/svg">
<path d="M9.00009 0.569826C8.16513 0.569055 7.36018 0.881113 6.74392 1.44448C6.12766 2.00785 5.74481 2.78165 5.67085 3.61333C5.59689 4.44501 5.83719 5.27422 6.34437 5.93749C6.85155 6.60076 7.58881 7.04996 8.41081 7.19654V9.60711H4.87509C4.40623 9.60711 3.95657 9.79337 3.62503 10.1249C3.29349 10.4564 3.10724 10.9061 3.10724 11.375V12.8018C2.2857 12.9491 1.54905 13.3986 1.04237 14.0618C0.535676 14.725 0.295659 15.554 0.369577 16.3853C0.443494 17.2167 0.825989 17.9902 1.44174 18.5537C2.0575 19.1171 2.86189 19.4296 3.69652 19.4296C4.53116 19.4296 5.33555 19.1171 5.9513 18.5537C6.56706 17.9902 6.94955 17.2167 7.02347 16.3853C7.09739 15.554 6.85737 14.725 6.35068 14.0618C5.84399 13.3986 5.10735 12.9491 4.28581 12.8018V11.375C4.28581 11.2187 4.34789 11.0688 4.45841 10.9583C4.56892 10.8478 4.71881 10.7857 4.87509 10.7857H13.1251C13.2814 10.7857 13.4313 10.8478 13.5418 10.9583C13.6523 11.0688 13.7144 11.2187 13.7144 11.375V12.8018C12.8928 12.9491 12.1562 13.3986 11.6495 14.0618C11.1428 14.725 10.9028 15.554 10.9767 16.3853C11.0506 17.2167 11.4331 17.9902 12.0489 18.5537C12.6646 19.1171 13.469 19.4296 14.3037 19.4296C15.1383 19.4296 15.9427 19.1171 16.5584 18.5537C17.1742 17.9902 17.5567 17.2167 17.6306 16.3853C17.7045 15.554 17.4645 14.725 16.9578 14.0618C16.4511 13.3986 15.7145 12.9491 14.893 12.8018V11.375C14.893 10.9061 14.7067 10.4564 14.3752 10.1249C14.0436 9.79337 13.594 9.60711 13.1251 9.60711H9.58938V7.19654C10.4097 7.04804 11.1448 6.59814 11.6503 5.93526C12.1558 5.27237 12.3952 4.4444 12.3213 3.61404C12.2475 2.78368 11.8658 2.01094 11.2513 1.44765C10.6367 0.884367 9.83373 0.571252 9.00009 0.569826ZM6.83938 3.90911C6.83938 3.33605 7.06703 2.78647 7.47224 2.38126C7.87745 1.97604 8.42704 1.7484 9.00009 1.7484C9.57315 1.7484 10.1227 1.97604 10.528 2.38126C10.9332 2.78647 11.1608 3.33605 11.1608 3.90911C11.1608 4.48217 10.9332 5.03175 10.528 5.43697C10.1227 5.84218 9.57315 6.06983 9.00009 6.06983C8.42704 6.06983 7.87745 5.84218 7.47224 5.43697C7.06703 5.03175 6.83938 4.48217 6.83938 3.90911ZM1.53581 16.0893C1.53581 15.5162 1.76346 14.9666 2.16867 14.5614C2.57388 14.1562 3.12347 13.9285 3.69652 13.9285C4.26958 13.9285 4.81917 14.1562 5.22438 14.5614C5.62959 14.9666 5.85724 15.5162 5.85724 16.0893C5.85724 16.6623 5.62959 17.2119 5.22438 17.6171C4.81917 18.0223 4.26958 18.25 3.69652 18.25C3.12347 18.25 2.57388 18.0223 2.16867 17.6171C1.76346 17.2119 1.53581 16.6623 1.53581 16.0893ZM14.3037 13.9285C14.8767 13.9285 15.4263 14.1562 15.8315 14.5614C16.2367 14.9666 16.4644 15.5162 16.4644 16.0893C16.4644 16.6623 16.2367 17.2119 15.8315 17.6171C15.4263 18.0223 14.8767 18.25 14.3037 18.25C13.7306 18.25 13.181 18.0223 12.7758 17.6171C12.3706 17.2119 12.143 16.6623 12.143 16.0893C12.143 15.5162 12.3706 14.9666 12.7758 14.5614C13.181 14.1562 13.7306 13.9285 14.3037 13.9285Z" fill="#DBD545"/>
</svg>
