<svg width="18" height="18" viewBox="0 0 18 18" fill="none" xmlns="http://www.w3.org/2000/svg">
<path d="M9.04275 14.7769C9.2925 14.7769 9.50288 14.6914 9.67387 14.5204C9.84488 14.3494 9.93037 14.1394 9.93037 13.8904C9.93037 13.6399 9.84488 13.4295 9.67387 13.2593C9.50288 13.0883 9.29287 13.0027 9.04387 13.0027C8.79412 13.0027 8.58375 13.0883 8.41275 13.2593C8.24175 13.4295 8.15625 13.6395 8.15625 13.8893C8.15625 14.139 8.24175 14.349 8.41275 14.5192C8.58375 14.691 8.79375 14.7769 9.04275 14.7769ZM12.2715 5.97937C12.2715 5.12587 11.9797 4.42463 11.3962 3.87563C10.8127 3.32588 10.0665 3.051 9.1575 3.051C8.5305 3.051 7.94025 3.19912 7.38675 3.49537C6.83325 3.79162 6.39075 4.21012 6.05925 4.75087C5.98575 4.87087 5.9775 5.00212 6.0345 5.14462C6.0915 5.28713 6.19388 5.38613 6.34163 5.44162C6.47963 5.49187 6.62025 5.49262 6.7635 5.44387C6.906 5.39587 7.0185 5.30963 7.101 5.18513C7.33575 4.81763 7.61513 4.54463 7.93913 4.36613C8.26237 4.18687 8.64563 4.09725 9.08888 4.09725C9.71438 4.09725 10.2203 4.27387 10.6065 4.62712C10.992 4.98112 11.1848 5.43863 11.1848 5.99963C11.1848 6.33713 11.094 6.6645 10.9125 6.98175C10.731 7.299 10.4295 7.64512 10.008 8.02012C9.5205 8.47987 9.15862 8.89725 8.92237 9.27225C8.68537 9.64725 8.544 10.059 8.49825 10.5075C8.47575 10.6403 8.51587 10.764 8.61863 10.8787C8.72138 10.9935 8.85075 11.0509 9.00675 11.0509C9.15375 11.0509 9.28125 11.0051 9.38925 10.9136C9.49575 10.8221 9.56287 10.6984 9.59062 10.5424C9.64687 10.2274 9.75712 9.94238 9.92138 9.68738C10.0864 9.43087 10.3564 9.11512 10.7314 8.74012C11.3134 8.15738 11.7158 7.66838 11.9385 7.27313C12.1613 6.87788 12.2723 6.44662 12.2715 5.97937ZM1.81687 18C1.29937 18 0.867375 17.8267 0.520875 17.4802C0.173625 17.133 0 16.7006 0 16.1831V1.81687C0 1.29937 0.173625 0.867375 0.520875 0.520875C0.867375 0.173625 1.29937 0 1.81687 0H16.1831C16.7006 0 17.1326 0.173625 17.4791 0.520875C17.8264 0.867375 18 1.29937 18 1.81687V16.1831C18 16.7006 17.8267 17.1326 17.4802 17.4791C17.133 17.8264 16.7006 18 16.1831 18H1.81687ZM1.81687 16.875H16.1831C16.3556 16.875 16.5142 16.803 16.659 16.659C16.803 16.5142 16.875 16.3556 16.875 16.1831V1.81687C16.875 1.64437 16.803 1.48575 16.659 1.341C16.5142 1.197 16.3556 1.125 16.1831 1.125H1.81687C1.64437 1.125 1.48575 1.197 1.341 1.341C1.197 1.48575 1.125 1.64437 1.125 1.81687V16.1831C1.125 16.3556 1.197 16.5142 1.341 16.659C1.48575 16.803 1.64437 16.875 1.81687 16.875Z" fill="#5BA3BA"/>
</svg>
