<svg width="24" height="24" viewBox="0 0 24 24" fill="none" xmlns="http://www.w3.org/2000/svg">
<path d="M12 3.75001V20.25C12.0001 20.3954 11.9579 20.5377 11.8786 20.6596C11.7993 20.7814 11.6863 20.8776 11.5533 20.9364C11.4204 20.9952 11.2732 21.0141 11.1296 20.9908C10.9861 20.9675 10.8525 20.9029 10.745 20.805L5.46 16H2.75C2.28587 16 1.84075 15.8156 1.51256 15.4874C1.18437 15.1593 1 14.7141 1 14.25V9.75001C1 8.78401 1.784 8.00001 2.75 8.00001H5.46L10.745 3.19501C10.8525 3.09711 10.9861 3.03256 11.1296 3.00923C11.2732 2.9859 11.4204 3.00479 11.5533 3.06359C11.6863 3.1224 11.7993 3.21859 11.8786 3.34045C11.9579 3.46232 12.0001 3.60461 12 3.75001ZM6.255 9.30501C6.11692 9.43078 5.93678 9.50034 5.75 9.50001H2.75C2.6837 9.50001 2.62011 9.52635 2.57322 9.57323C2.52634 9.62012 2.5 9.6837 2.5 9.75001V14.25C2.5 14.388 2.612 14.5 2.75 14.5H5.75C5.937 14.5 6.117 14.569 6.255 14.695L10.5 18.555V5.44501L6.255 9.30501ZM16.28 8.22001C16.2113 8.14632 16.1285 8.08722 16.0365 8.04623C15.9445 8.00524 15.8452 7.98319 15.7445 7.98142C15.6438 7.97964 15.5438 7.99816 15.4504 8.03589C15.357 8.07361 15.2722 8.12975 15.201 8.20097C15.1297 8.27219 15.0736 8.35702 15.0359 8.45041C14.9982 8.5438 14.9796 8.64383 14.9814 8.74453C14.9832 8.84523 15.0052 8.94455 15.0462 9.03655C15.0872 9.12855 15.1463 9.21135 15.22 9.28001L17.94 12L15.22 14.72C15.1463 14.7887 15.0872 14.8715 15.0462 14.9635C15.0052 15.0555 14.9832 15.1548 14.9814 15.2555C14.9796 15.3562 14.9982 15.4562 15.0359 15.5496C15.0736 15.643 15.1297 15.7278 15.201 15.799C15.2722 15.8703 15.357 15.9264 15.4504 15.9641C15.5438 16.0019 15.6438 16.0204 15.7445 16.0186C15.8452 16.0168 15.9445 15.9948 16.0365 15.9538C16.1285 15.9128 16.2113 15.8537 16.28 15.78L19 13.06L21.72 15.78C21.7887 15.8537 21.8715 15.9128 21.9635 15.9538C22.0555 15.9948 22.1548 16.0168 22.2555 16.0186C22.3562 16.0204 22.4562 16.0019 22.5496 15.9641C22.643 15.9264 22.7278 15.8703 22.799 15.799C22.8703 15.7278 22.9264 15.643 22.9641 15.5496C23.0018 15.4562 23.0204 15.3562 23.0186 15.2555C23.0168 15.1548 22.9948 15.0555 22.9538 14.9635C22.9128 14.8715 22.8537 14.7887 22.78 14.72L20.06 12L22.78 9.28001C22.9125 9.13783 22.9846 8.94979 22.9812 8.75549C22.9777 8.56118 22.899 8.3758 22.7616 8.23839C22.6242 8.10097 22.4388 8.02226 22.2445 8.01883C22.0502 8.0154 21.8622 8.08753 21.72 8.22001L19 10.94L16.28 8.22001Z" fill="#4CD964"/>
</svg>
