<svg width="15" height="18" viewBox="0 0 15 18" fill="none" xmlns="http://www.w3.org/2000/svg">
<path d="M10.25 12.5771C10.4727 12.6064 10.7363 12.6504 11.041 12.709C11.3457 12.7676 11.668 12.8467 12.0078 12.9463C12.3477 13.0459 12.6787 13.1631 13.001 13.2979C13.3232 13.4326 13.6162 13.5908 13.8799 13.7725C14.1436 13.9541 14.3516 14.1621 14.5039 14.3965C14.6562 14.6309 14.7383 14.8945 14.75 15.1875C14.75 15.4805 14.6709 15.7412 14.5127 15.9697C14.3545 16.1982 14.1553 16.3975 13.915 16.5674C13.6748 16.7373 13.417 16.8867 13.1416 17.0156C12.8662 17.1445 12.6143 17.2441 12.3857 17.3145C12.0107 17.4434 11.6182 17.5518 11.208 17.6396C10.7979 17.7275 10.376 17.7979 9.94238 17.8506C9.50879 17.9033 9.08398 17.9414 8.66797 17.9648C8.25195 17.9883 7.8418 18 7.4375 18C7.03906 18 6.62891 17.9883 6.20703 17.9648C5.78516 17.9414 5.36035 17.9033 4.93262 17.8506C4.50488 17.7979 4.08594 17.7275 3.67578 17.6396C3.26562 17.5518 2.87012 17.4434 2.48926 17.3145C2.26074 17.2383 2.00879 17.1387 1.7334 17.0156C1.45801 16.8926 1.20312 16.7461 0.96875 16.5762C0.734375 16.4062 0.535156 16.2041 0.371094 15.9697C0.207031 15.7354 0.125 15.4746 0.125 15.1875C0.125 14.8945 0.204102 14.6338 0.362305 14.4053C0.520508 14.1768 0.731445 13.9688 0.995117 13.7812C1.25879 13.5938 1.55176 13.4326 1.87402 13.2979C2.19629 13.1631 2.52734 13.0488 2.86719 12.9551C3.20703 12.8613 3.52637 12.7822 3.8252 12.7178C4.12402 12.6533 4.39062 12.6064 4.625 12.5771V11.1533C4.45508 11.0947 4.30273 11.0127 4.16797 10.9072C4.0332 10.8018 3.91309 10.6787 3.80762 10.5381C3.70215 10.3975 3.62598 10.2451 3.5791 10.0811C3.53223 9.91699 3.50586 9.74414 3.5 9.5625V5.0625C3.5 4.82812 3.54395 4.6084 3.63184 4.40332C3.71973 4.19824 3.83984 4.01953 3.99219 3.86719C4.14453 3.71484 4.32324 3.59473 4.52832 3.50684C4.7334 3.41895 4.95312 3.375 5.1875 3.375H5.48633C5.28711 3.02344 5.1875 2.64844 5.1875 2.25C5.1875 1.93945 5.24609 1.64941 5.36328 1.37988C5.48047 1.11035 5.6416 0.870117 5.84668 0.65918C6.05176 0.448242 6.28906 0.287109 6.55859 0.175781C6.82812 0.0644531 7.12109 0.00585938 7.4375 0C7.74805 0 8.03809 0.0585938 8.30762 0.175781C8.57715 0.292969 8.81738 0.454102 9.02832 0.65918C9.23926 0.864258 9.40039 1.10156 9.51172 1.37109C9.62305 1.64062 9.68164 1.93359 9.6875 2.25C9.6875 2.64844 9.58789 3.02344 9.38867 3.375H9.6875C9.92188 3.375 10.1416 3.41895 10.3467 3.50684C10.5518 3.59473 10.7305 3.71484 10.8828 3.86719C11.0352 4.01953 11.1553 4.19824 11.2432 4.40332C11.3311 4.6084 11.375 4.82812 11.375 5.0625V9.5625C11.375 9.73828 11.3486 9.9082 11.2959 10.0723C11.2432 10.2363 11.167 10.3916 11.0674 10.5381C10.9678 10.6846 10.8506 10.8076 10.7158 10.9072C10.5811 11.0068 10.4258 11.0889 10.25 11.1533V12.5771ZM6.3125 2.25C6.3125 2.4082 6.3418 2.55469 6.40039 2.68945C6.45898 2.82422 6.53809 2.94141 6.6377 3.04102C6.7373 3.14062 6.85742 3.22266 6.99805 3.28711C7.13867 3.35156 7.28516 3.38086 7.4375 3.375C7.5957 3.375 7.74219 3.3457 7.87695 3.28711C8.01172 3.22852 8.12891 3.14941 8.22852 3.0498C8.32812 2.9502 8.41016 2.83008 8.47461 2.68945C8.53906 2.54883 8.56836 2.40234 8.5625 2.25C8.5625 2.0918 8.5332 1.94531 8.47461 1.81055C8.41602 1.67578 8.33691 1.55859 8.2373 1.45898C8.1377 1.35938 8.01758 1.27734 7.87695 1.21289C7.73633 1.14844 7.58984 1.11914 7.4375 1.125C7.2793 1.125 7.13281 1.1543 6.99805 1.21289C6.86328 1.27148 6.74609 1.35059 6.64648 1.4502C6.54688 1.5498 6.46484 1.66992 6.40039 1.81055C6.33594 1.95117 6.30664 2.09766 6.3125 2.25ZM7.4375 16.875C7.68945 16.875 7.98242 16.8691 8.31641 16.8574C8.65039 16.8457 8.99902 16.8193 9.3623 16.7783C9.72559 16.7373 10.1006 16.6875 10.4873 16.6289C10.874 16.5703 11.2402 16.4912 11.5859 16.3916C11.9316 16.292 12.2539 16.1836 12.5527 16.0664C12.8516 15.9492 13.1035 15.7998 13.3086 15.6182C13.3672 15.5713 13.4346 15.5098 13.5107 15.4336C13.5869 15.3574 13.625 15.2754 13.625 15.1875C13.625 15.1055 13.5869 15.0234 13.5107 14.9414C13.4346 14.8594 13.3467 14.7832 13.2471 14.7129C13.1475 14.6426 13.042 14.5781 12.9307 14.5195C12.8193 14.4609 12.7373 14.417 12.6846 14.3877C12.3096 14.2119 11.9141 14.0713 11.498 13.9658C11.082 13.8604 10.666 13.7754 10.25 13.7109V15.1875C10.25 15.2578 10.2002 15.3193 10.1006 15.3721C10.001 15.4248 9.88672 15.4688 9.75781 15.5039C9.62891 15.5391 9.50293 15.5684 9.37988 15.5918C9.25684 15.6152 9.17188 15.6299 9.125 15.6357V10.125H9.47656C9.60547 10.125 9.72852 10.1133 9.8457 10.0898C9.96289 10.0664 10.0596 10.0137 10.1357 9.93164C10.2119 9.84961 10.25 9.72656 10.25 9.5625V5.0625C10.25 4.91016 10.1943 4.77832 10.083 4.66699C9.97168 4.55566 9.83984 4.5 9.6875 4.5H5.1875C5.03516 4.5 4.90332 4.55566 4.79199 4.66699C4.68066 4.77832 4.625 4.91016 4.625 5.0625V9.5625C4.625 9.72656 4.66309 9.84668 4.73926 9.92285C4.81543 9.99902 4.90918 10.0547 5.02051 10.0898C5.13184 10.125 5.25488 10.1396 5.38965 10.1338C5.52441 10.1279 5.64453 10.125 5.75 10.125V15.6357C5.70312 15.6299 5.61816 15.6152 5.49512 15.5918C5.37207 15.5684 5.24609 15.5391 5.11719 15.5039C4.98828 15.4688 4.87402 15.4248 4.77441 15.3721C4.6748 15.3193 4.625 15.2578 4.625 15.1875V13.7109C4.21484 13.7754 3.80176 13.8604 3.38574 13.9658C2.96973 14.0713 2.57129 14.2119 2.19043 14.3877L1.94434 14.5107C1.83887 14.5635 1.73633 14.6279 1.63672 14.7041C1.53711 14.7803 1.44629 14.8594 1.36426 14.9414C1.28223 15.0234 1.24414 15.1055 1.25 15.1875C1.25 15.2695 1.28809 15.3486 1.36426 15.4248C1.44043 15.501 1.50781 15.5654 1.56641 15.6182C1.76562 15.7881 2.01465 15.9346 2.31348 16.0576C2.6123 16.1807 2.9375 16.292 3.28906 16.3916C3.64062 16.4912 4.00684 16.5674 4.3877 16.6201C4.76855 16.6729 5.14062 16.7227 5.50391 16.7695C5.86719 16.8164 6.21875 16.8428 6.55859 16.8486C6.89844 16.8545 7.19141 16.8633 7.4375 16.875ZM6.875 10.125H8V15.7412C7.90625 15.7471 7.8125 15.75 7.71875 15.75C7.625 15.75 7.53125 15.75 7.4375 15.75H7.15625C7.0625 15.75 6.96875 15.7471 6.875 15.7412V10.125Z" fill="#4CD964"/>
</svg>
