<svg width="44" height="44" viewBox="0 0 44 44" fill="none" xmlns="http://www.w3.org/2000/svg">
<path d="M26.7051 26.5806C26.0605 25.8495 25.3516 25.2043 24.5781 24.6452C23.8047 24.086 22.974 23.6057 22.0859 23.2043C21.1979 22.8029 20.2956 22.509 19.3789 22.3226C18.4622 22.1362 17.5026 22.0358 16.5 22.0215C15.2396 22.0215 14.0221 22.1864 12.8477 22.5161C11.6732 22.8459 10.5775 23.3047 9.56055 23.8925C8.54362 24.4803 7.61979 25.1971 6.78906 26.043C5.95833 26.8889 5.24219 27.8208 4.64062 28.8387C4.03906 29.8566 3.57357 30.9534 3.24414 32.129C2.91471 33.3047 2.75 34.5233 2.75 35.7849H0C0 34.0645 0.250651 32.4086 0.751953 30.8172C1.25326 29.2258 1.97656 27.7563 2.92188 26.4086C3.86719 25.0609 4.98438 23.8638 6.27344 22.8172C7.5625 21.7706 9.02344 20.9462 10.6562 20.3441C9.03776 19.2832 7.77734 17.9498 6.875 16.3441C5.97266 14.7384 5.51432 12.9606 5.5 11.0108C5.5 9.49104 5.78646 8.06452 6.35938 6.73118C6.93229 5.39785 7.71289 4.22939 8.70117 3.22581C9.68945 2.22222 10.8568 1.43369 12.2031 0.860215C13.5495 0.286738 14.9818 0 16.5 0C18.0182 0 19.4434 0.286738 20.7754 0.860215C22.1074 1.43369 23.2747 2.21505 24.2773 3.2043C25.2799 4.19355 26.0677 5.36201 26.6406 6.70968C27.2135 8.05735 27.5 9.49104 27.5 11.0108C27.5 11.957 27.3854 12.8817 27.1562 13.7849C26.9271 14.6882 26.5833 15.5412 26.125 16.3441C25.6667 17.147 25.1296 17.8853 24.5137 18.5591C23.8978 19.233 23.1745 19.828 22.3438 20.3441C23.5469 20.8029 24.6784 21.3907 25.7383 22.1075C26.7982 22.8244 27.765 23.6631 28.6387 24.6237L26.7051 26.5806ZM8.25 11.0108C8.25 12.1577 8.46484 13.2258 8.89453 14.2151C9.32422 15.2043 9.91146 16.0789 10.6562 16.8387C11.401 17.5986 12.2747 18.1935 13.2773 18.6237C14.2799 19.0538 15.3542 19.2688 16.5 19.2688C17.6315 19.2688 18.6986 19.0538 19.7012 18.6237C20.7038 18.1935 21.5775 17.6057 22.3223 16.8602C23.0671 16.1147 23.6615 15.2401 24.1055 14.2366C24.5495 13.233 24.7643 12.1577 24.75 11.0108C24.75 9.87814 24.5352 8.81004 24.1055 7.80645C23.6758 6.80287 23.0885 5.92832 22.3438 5.1828C21.599 4.43728 20.7181 3.84229 19.7012 3.39785C18.6842 2.95341 17.6172 2.73835 16.5 2.75269C15.3542 2.75269 14.2871 2.96774 13.2988 3.39785C12.3105 3.82796 11.4368 4.41577 10.6777 5.16129C9.91862 5.90681 9.32422 6.78853 8.89453 7.80645C8.46484 8.82437 8.25 9.89247 8.25 11.0108ZM39.7031 19.2688C40.3047 19.2688 40.8633 19.3763 41.3789 19.5914C41.8945 19.8065 42.3529 20.1004 42.7539 20.4731C43.1549 20.8459 43.4557 21.2975 43.6562 21.828C43.8568 22.3584 43.9714 22.9247 44 23.5269C44 24.086 43.8926 24.6308 43.6777 25.1613C43.4629 25.6918 43.1549 26.1577 42.7539 26.5591L27.3496 41.9785L19.25 44L21.2695 35.8925L36.6738 20.4946C37.0892 20.0789 37.5547 19.7706 38.0703 19.5699C38.5859 19.3692 39.1302 19.2688 39.7031 19.2688ZM40.7988 24.6237C41.0996 24.3226 41.25 23.957 41.25 23.5269C41.25 23.0824 41.1068 22.724 40.8203 22.4516C40.5339 22.1792 40.1615 22.0358 39.7031 22.0215C39.5026 22.0215 39.3092 22.0502 39.123 22.1075C38.9368 22.1649 38.7721 22.2724 38.6289 22.4301L23.7617 37.3118L23.0312 40.2151L25.9316 39.4839L40.7988 24.6237Z" fill="#4CD964"/>
</svg>
