<svg width="23" height="23" viewBox="0 0 23 23" fill="none" xmlns="http://www.w3.org/2000/svg">
<path d="M22.3826 19.8725C21.6594 19.2278 21.0262 18.4887 20.5001 17.675C19.9258 16.552 19.5815 15.3255 19.4876 14.0675V10.3625C19.4926 8.38676 18.7759 6.47716 17.4722 4.99253C16.1684 3.5079 14.3675 2.55044 12.4076 2.30005V1.33255C12.4076 1.067 12.3021 0.812329 12.1143 0.624558C11.9266 0.436787 11.6719 0.331299 11.4063 0.331299C11.1408 0.331299 10.8861 0.436787 10.6984 0.624558C10.5106 0.812329 10.4051 1.067 10.4051 1.33255V2.31505C8.46279 2.58349 6.68358 3.54674 5.39699 5.02638C4.11041 6.50602 3.40365 8.40178 3.4076 10.3625V14.0675C3.31366 15.3255 2.96943 16.552 2.3951 17.675C1.87826 18.4868 1.25524 19.2259 0.542598 19.8725C0.462596 19.9428 0.398479 20.0293 0.354511 20.1263C0.310543 20.2233 0.287733 20.3286 0.287598 20.435V21.455C0.287598 21.654 0.366615 21.8447 0.507268 21.9854C0.64792 22.126 0.838685 22.205 1.0376 22.205H21.8876C22.0865 22.205 22.2773 22.126 22.4179 21.9854C22.5586 21.8447 22.6376 21.654 22.6376 21.455V20.435C22.6375 20.3286 22.6147 20.2233 22.5707 20.1263C22.5267 20.0293 22.4626 19.9428 22.3826 19.8725ZM1.8476 20.705C2.5454 20.031 3.1598 19.2756 3.6776 18.455C4.40106 17.0987 4.82317 15.6021 4.9151 14.0675V10.3625C4.88535 9.48358 5.03279 8.6076 5.34863 7.7868C5.66447 6.96599 6.14226 6.21714 6.75353 5.58482C7.36481 4.95251 8.09708 4.44967 8.90673 4.10625C9.71639 3.76283 10.5869 3.58585 11.4663 3.58585C12.3458 3.58585 13.2163 3.76283 14.026 4.10625C14.8356 4.44967 15.5679 4.95251 16.1792 5.58482C16.7904 6.21714 17.2682 6.96599 17.5841 7.7868C17.8999 8.6076 18.0473 9.48358 18.0176 10.3625V14.0675C18.1095 15.6021 18.5316 17.0987 19.2551 18.455C19.7729 19.2756 20.3873 20.031 21.0851 20.705H1.8476Z" fill="#000080" fill-opacity="0.8"/>
</svg>
