<svg width="312" height="181" viewBox="0 0 312 181" fill="none" xmlns="http://www.w3.org/2000/svg">
<g clip-path="url(#clip0_111_1934)">
<mask id="mask0_111_1934" style="mask-type:luminance" maskUnits="userSpaceOnUse" x="0" y="0" width="312" height="181">
<path d="M311.767 0H0V180.91H311.767V0Z" fill="white"/>
</mask>
<g mask="url(#mask0_111_1934)">
<path d="M295.317 109.051C284.299 137.603 263.583 162.618 234.81 173.611C231.068 175.039 227.247 176.25 223.365 177.239C202.837 182.477 180.379 180.655 161.455 171.11C153.423 167.056 146.1 161.698 138.039 157.702C129.979 153.706 120.774 151.091 112 153.063C104.447 154.762 98.0732 159.629 91.6562 163.965C76.5289 174.187 58.3399 182.276 40.4271 178.765C32.1847 177.151 24.0683 172.682 20.2405 165.212C11.7799 148.696 27.7362 129.06 24.5047 110.795C22.4368 99.1055 12.992 90.3515 7.12047 80.035C-2.92801 62.3887 -1.74014 38.9485 10.0417 22.4135C21.8235 5.87842 43.5738 -2.89256 63.5156 0.858459C87.8332 5.43441 106.219 26.031 129.865 33.3195C144.653 37.8736 160.708 36.5149 174.832 30.5172C197.651 20.8243 229.002 5.95849 254.682 8.37991C268.337 9.66826 281.731 15.7339 290.745 26.0916C302.139 39.1668 305.554 57.7302 303.654 74.9713C302.35 86.6424 299.547 98.0966 295.317 109.051Z" fill="#4CD964"/>
<path d="M302.648 131.635C302.141 131.634 301.637 131.573 301.145 131.453C299.588 131.07 298.238 130.108 297.368 128.761C296.497 127.415 296.173 125.787 296.461 124.21C296.747 122.633 297.627 121.225 298.917 120.274C300.207 119.323 301.811 118.9 303.402 119.093C304.992 119.286 306.449 120.079 307.474 121.31C308.502 122.541 309.019 124.118 308.924 125.719C308.827 127.319 308.124 128.823 306.958 129.922C305.792 131.022 304.25 131.634 302.648 131.635ZM302.648 121.886C301.814 121.889 301.011 122.197 300.388 122.752C299.765 123.307 299.368 124.071 299.268 124.899C299.171 125.727 299.377 126.563 299.853 127.249C300.325 127.935 301.033 128.424 301.843 128.624C302.311 128.737 302.798 128.749 303.273 128.66C303.746 128.57 304.194 128.382 304.59 128.106C304.985 127.831 305.319 127.475 305.567 127.061C305.814 126.648 305.974 126.187 306.03 125.708C306.088 125.229 306.042 124.744 305.899 124.283C305.756 123.823 305.516 123.398 305.196 123.037C304.876 122.676 304.485 122.387 304.044 122.189C303.605 121.99 303.13 121.887 302.648 121.886Z" fill="#E7F6FF"/>
<path d="M296.909 138.309C297.266 136.834 296.362 135.347 294.885 134.99C293.411 134.632 291.928 135.538 291.569 137.013C291.212 138.489 292.117 139.975 293.591 140.333C295.067 140.69 296.551 139.784 296.909 138.309Z" fill="#E7F6FF"/>
<path d="M13.379 131.035C11.7139 130.999 10.1304 130.306 8.9722 129.109C7.81397 127.911 7.17456 126.304 7.19276 124.637C7.21094 122.971 7.8853 121.378 9.06939 120.206C10.2535 119.034 11.8517 118.376 13.5172 118.376C15.1827 118.376 16.781 119.034 17.9651 120.206C19.1492 121.378 19.8235 122.971 19.8417 124.637C19.8599 126.304 19.2205 127.911 18.0623 129.109C16.904 130.306 15.3205 130.999 13.6554 131.035H13.379ZM13.379 121.289H13.236C12.3367 121.308 11.4814 121.682 10.8557 122.329C10.2301 122.976 9.88466 123.843 9.89441 124.744C9.90413 125.644 10.2683 126.504 10.9078 127.137C11.5472 127.77 12.4104 128.125 13.3099 128.125C14.2095 128.125 15.0727 127.77 15.7122 127.137C16.3516 126.504 16.7158 125.644 16.7255 124.744C16.7353 123.843 16.3898 122.976 15.7642 122.329C15.1385 121.682 14.2832 121.308 13.3839 121.289H13.379Z" fill="#E7F6FF"/>
<path d="M8.86998 141.658C10.3855 141.593 11.5611 140.31 11.4957 138.793C11.4303 137.276 10.1488 136.1 8.63323 136.165C7.11771 136.231 5.94212 137.513 6.00748 139.03C6.07286 140.547 7.35444 141.724 8.86998 141.658Z" fill="#E7F6FF"/>
<path d="M171.898 28.6922C170.389 28.6934 168.929 28.154 167.783 27.1714C166.637 26.1888 165.88 24.8279 165.649 23.335C165.419 21.8422 165.73 20.3161 166.526 19.033C167.323 17.7498 168.552 16.7944 169.991 16.3397C171.43 15.885 172.985 15.961 174.373 16.5539C175.761 17.1468 176.891 18.2176 177.559 19.5723C178.226 20.927 178.387 22.4762 178.012 23.9394C177.638 25.4027 176.752 26.6832 175.515 27.5494C174.455 28.2919 173.193 28.6907 171.898 28.6922ZM171.879 18.9482C170.996 18.9473 170.147 19.2875 169.508 19.8979C168.869 20.5084 168.491 21.3419 168.451 22.2248C168.411 23.1078 168.714 23.972 169.295 24.6374C169.876 25.3027 170.692 25.7178 171.571 25.7962C172.451 25.8746 173.327 25.6103 174.017 25.0581C174.706 24.5061 175.156 23.709 175.273 22.833C175.39 21.957 175.165 21.0695 174.644 20.3558C174.123 19.642 173.347 19.1569 172.478 19.0016C172.28 18.9663 172.08 18.9485 171.879 18.9482Z" fill="#E7F6FF"/>
<path d="M159.003 28.3466C160.245 27.4749 160.545 25.7607 159.674 24.5175C158.803 23.2745 157.091 22.9735 155.849 23.8452C154.607 24.7169 154.306 26.4311 155.177 27.6743C156.048 28.9173 157.761 29.2184 159.003 28.3466Z" fill="#E7F6FF"/>
<path d="M311.758 61.3016C311.758 58.634 310.698 56.0752 308.815 54.1888C306.929 52.3021 304.373 51.2423 301.707 51.2423C301.484 51.2423 301.263 51.2423 301.045 51.2641C301.06 51.0458 301.067 50.825 301.067 50.6018C301.067 49.1722 300.761 47.7589 300.172 46.4565C299.583 45.1538 298.725 43.9919 297.651 43.0481C296.577 42.1042 295.316 41.4001 293.949 40.9828C292.584 40.5653 291.144 40.4442 289.729 40.6274C288.31 40.8108 286.95 41.2941 285.733 42.0453C284.519 42.7967 283.476 43.7987 282.679 44.9845C281.881 46.1704 281.346 47.5129 281.106 48.9223C280.868 50.332 280.931 51.7763 281.295 53.1591C280.08 52.2776 278.684 51.6793 277.207 51.4083C275.731 51.1373 274.213 51.2006 272.766 51.5934C271.316 51.986 269.976 52.6983 268.836 53.678C267.7 54.6578 266.798 55.8799 266.192 57.2546C265.588 58.6296 265.3 60.1222 265.348 61.6234C265.396 63.1245 265.78 64.5956 266.47 65.9293C267.159 67.2628 268.138 68.4247 269.336 69.3297C270.533 70.2349 271.918 70.8602 273.389 71.1596C273.99 72.7532 274.984 74.1682 276.281 75.2719C277.576 76.3753 279.132 77.1316 280.798 77.4696C282.466 77.8076 284.194 77.7163 285.816 77.2044C287.438 76.6922 288.904 75.7761 290.078 74.5418C291.278 75.4483 292.664 76.0738 294.138 76.3722C295.612 76.6709 297.132 76.635 298.589 76.2671C300.049 75.8993 301.404 75.2088 302.56 74.247C303.716 73.285 304.64 72.0758 305.268 70.7083C307.176 69.9845 308.817 68.6972 309.978 67.017C311.137 65.3368 311.758 63.3436 311.758 61.3016Z" fill="white"/>
<path d="M46.4122 37.1214C46.4134 35.7998 46.1545 34.4908 45.6502 33.2694C45.1458 32.048 44.4059 30.938 43.4725 30.0029C42.5395 29.0679 41.4313 28.3259 40.2115 27.8198C38.9918 27.3134 37.6842 27.0526 36.3637 27.0524C36.1407 27.0524 35.9201 27.0524 35.7019 27.0742C35.7164 26.8558 35.7237 26.635 35.7237 26.4118C35.7235 24.9823 35.4187 23.5689 34.8296 22.2664C34.2408 20.9638 33.3811 19.8019 32.3082 18.8581C31.2352 17.9142 29.9734 17.2101 28.6071 16.7927C27.2408 16.3753 25.8013 16.2542 24.3845 16.4375C22.9679 16.6207 21.6065 17.1041 20.3911 17.8554C19.1757 18.6067 18.1343 19.6087 17.3363 20.7945C16.5383 21.9803 16.0021 23.3228 15.7633 24.7323C15.5245 26.142 15.5887 27.5864 15.9516 28.9691C14.7368 28.0874 13.3403 27.4891 11.8643 27.2183C10.3884 26.9473 8.87058 27.0106 7.42224 27.4032C5.97393 27.796 4.63184 28.5084 3.49451 29.4881C2.35717 30.4678 1.45344 31.6899 0.849625 33.0647C0.245817 34.4396 -0.0427469 35.9323 0.00511436 37.4334C0.0529755 38.9343 0.436047 40.4056 1.12621 41.7391C1.81638 43.0728 2.79613 44.2347 3.99356 45.1397C5.19099 46.0447 6.57572 46.6702 8.04612 46.9696C8.64704 48.5617 9.64176 49.9753 10.9372 51.0778C12.2325 52.1805 13.7863 52.9361 15.4529 53.2741C17.1196 53.612 18.8446 53.5211 20.4667 53.0101C22.0887 52.4991 23.5547 51.5844 24.7273 50.3519C25.9271 51.2583 27.3147 51.8838 28.7879 52.1822C30.2612 52.4809 31.7826 52.445 33.2401 52.0769C34.6975 51.7091 36.0541 51.0188 37.2098 50.0568C38.3654 49.0948 39.2907 47.8858 39.9176 46.5183C41.8245 45.796 43.467 44.5104 44.627 42.8321C45.787 41.1539 46.4095 39.1621 46.4122 37.1214Z" fill="white"/>
<path d="M231.316 180.255H86.71V177.101H231.316C231.734 177.101 232.135 177.267 232.43 177.563C232.726 177.859 232.892 178.26 232.892 178.678C232.892 179.096 232.726 179.498 232.43 179.793C232.135 180.089 231.734 180.255 231.316 180.255Z" fill="#426572"/>
<path d="M80.2422 180.255H71.401C70.983 180.255 70.5823 180.089 70.2868 179.793C69.9913 179.498 69.8252 179.096 69.8252 178.678C69.8252 178.26 69.9913 177.859 70.2868 177.563C70.5823 177.267 70.983 177.101 71.401 177.101H80.2422C80.6601 177.101 81.0608 177.267 81.3563 177.563C81.6519 177.859 81.8179 178.26 81.8179 178.678C81.8179 179.096 81.6519 179.498 81.3563 179.793C81.0608 180.089 80.6601 180.255 80.2422 180.255Z" fill="#426572"/>
<path d="M65.6632 180.255H62.8463C62.4283 180.255 62.0276 180.089 61.7321 179.793C61.4366 179.498 61.2705 179.096 61.2705 178.678C61.2705 178.26 61.4366 177.859 61.7321 177.563C62.0276 177.267 62.4283 177.101 62.8463 177.101H65.6632C66.0812 177.101 66.4819 177.267 66.7774 177.563C67.0729 177.859 67.239 178.26 67.239 178.678C67.239 179.096 67.0729 179.498 66.7774 179.793C66.4819 180.089 66.0812 180.255 65.6632 180.255Z" fill="#426572"/>
<path d="M282.022 180.255H237.576V177.101H282.022C282.439 177.101 282.842 177.267 283.137 177.563C283.433 177.859 283.598 178.26 283.598 178.678C283.598 179.096 283.433 179.498 283.137 179.793C282.842 180.089 282.439 180.255 282.022 180.255Z" fill="#426572"/>
<path d="M54.7883 180.255H10.3398V177.101H54.7883C55.2063 177.101 55.607 177.267 55.9025 177.563C56.198 177.859 56.3641 178.26 56.3641 178.678C56.3641 179.096 56.198 179.498 55.9025 179.793C55.607 180.089 55.2063 180.255 54.7883 180.255Z" fill="#426572"/>
<path d="M68.8731 57.1528H230.769C233.691 57.1528 236.493 58.314 238.56 60.3815C240.627 62.4491 241.788 65.2532 241.79 68.1778V173.056H57.8525V68.1778C57.8538 65.2532 59.0154 62.4491 61.0821 60.3815C63.1488 58.314 65.9512 57.1528 68.8731 57.1528Z" fill="#EBF0F9"/>
<path d="M235.396 65.1958H64.9746V162.635H235.396V65.1958Z" fill="#5BA3BA"/>
<path d="M63.6968 162.453H236.121C236.121 163.227 235.815 163.969 235.27 164.517C234.725 165.065 233.985 165.375 233.212 165.379H66.618C65.8425 165.379 65.0989 165.071 64.5506 164.522C64.0025 163.973 63.6943 163.229 63.6943 162.453H63.6968Z" fill="white"/>
<g opacity="0.5">
<path opacity="0.5" d="M115.901 64.8315L90.4194 163.183H77.5879L103.069 64.8315H115.901Z" fill="#A7BCD5"/>
<path opacity="0.5" d="M148.606 64.8315L123.127 163.183H96.2178L121.699 64.8315H148.606Z" fill="#A7BCD5"/>
</g>
<path d="M243.244 174.512H56.3975V63.4759C56.4001 61.4136 57.2198 59.4366 58.6767 57.9782C60.1337 56.52 62.1092 55.6997 64.1696 55.6973H235.471C237.532 55.6997 239.507 56.52 240.964 57.9782C242.421 59.4366 243.241 61.4136 243.244 63.4759V174.512ZM59.3066 171.6H240.334V63.4759C240.333 62.1854 239.82 60.9482 238.909 60.0357C237.997 59.1232 236.761 58.61 235.471 58.6088H64.1696C62.8804 58.61 61.644 59.1232 60.7322 60.0357C59.8207 60.9482 59.3078 62.1854 59.3066 63.4759V171.6Z" fill="#426572"/>
<path d="M34.6543 169.584H269.92V170.358C269.92 172.868 268.923 175.274 267.151 177.049C265.377 178.823 262.972 179.82 260.465 179.82H44.1088C41.6014 179.82 39.1966 178.823 37.4235 177.049C35.6504 175.274 34.6543 172.868 34.6543 170.358V169.584Z" fill="#EBF0F9"/>
<path opacity="0.5" d="M268.715 174.519C268.199 175.865 267.285 177.022 266.097 177.839C264.909 178.655 263.5 179.091 262.061 179.09H41.0472C39.6072 179.09 38.2009 178.653 37.0137 177.837C35.8266 177.021 34.9146 175.864 34.3975 174.519H268.715Z" fill="#A7BCD5"/>
<path d="M259.368 180.91H43.0136C40.1212 180.906 37.3484 179.755 35.3033 177.708C33.2579 175.661 32.1076 172.886 32.1045 169.991V167.762H270.279V169.991C270.277 172.886 269.125 175.662 267.079 177.709C265.033 179.756 262.26 180.907 259.368 180.91ZM35.0402 170.673C35.2109 172.671 36.1246 174.533 37.6005 175.889C39.0766 177.246 41.0073 177.998 43.0112 177.998H259.368C261.372 177.998 263.302 177.246 264.778 175.889C266.255 174.533 267.169 172.671 267.338 170.673H35.0402Z" fill="#426572"/>
<path d="M236.485 163.542H63.1514V63.7397H236.485V163.542ZM66.0605 160.631H233.576V66.6513H66.0605V160.631Z" fill="#5BA3BA"/>
<path d="M209.346 33.9166V162.087H93.1738V33.9166C93.1782 33.3389 93.4095 32.7859 93.8177 32.3773C94.226 31.9687 94.7784 31.7373 95.3556 31.7329H207.154C207.286 31.7329 207.418 31.7453 207.547 31.7693C208.049 31.8622 208.504 32.1274 208.832 32.5193C209.161 32.9111 209.342 33.4053 209.346 33.9166Z" fill="white"/>
<path d="M95.0009 42.3264H209.711V34.6158L207.517 31.7236H107.057H97.1924L93.5391 34.6158V42.3264H95.0009Z" fill="#E2F2FF"/>
<path d="M211.166 163.543H92.085V33.9168C92.0888 32.9528 92.4731 32.0294 93.1543 31.3476C93.8355 30.6658 94.7582 30.2812 95.7213 30.2773H207.515C208.478 30.2812 209.401 30.6658 210.082 31.3476C210.763 32.0294 211.148 32.9528 211.152 33.9168L211.166 163.543ZM94.9941 160.631H208.257V33.9168C208.252 33.7253 208.174 33.5429 208.039 33.4075C207.903 33.2721 207.721 33.1937 207.53 33.1889H95.731C95.5398 33.1937 95.3574 33.2721 95.2222 33.4075C95.0869 33.5429 95.0086 33.7253 95.0038 33.9168L94.9941 160.631Z" fill="#426572"/>
<path d="M202.564 36.2168H100.373C99.5657 36.2168 98.9111 36.8716 98.9111 37.6798C98.9111 38.4878 99.5657 39.1429 100.373 39.1429H202.564C203.372 39.1429 204.026 38.4878 204.026 37.6798C204.026 36.8716 203.372 36.2168 202.564 36.2168Z" fill="#CADCE8"/>
<path d="M131.42 56.0562H107.534V83.2959H131.42V56.0562Z" fill="#9BFEC3"/>
<path d="M190.312 56.0562H133.675V83.2959H190.312V56.0562Z" fill="#5FFD9F"/>
<path d="M190.313 86.3115H163.571V113.551H190.313V86.3115Z" fill="#DDE4ED"/>
<path d="M161.316 86.3115H107.835V113.551H161.316V86.3115Z" fill="#DDE4ED"/>
<path d="M190.463 116.567H107.835V143.807H190.463V116.567Z" fill="#DDE4ED"/>
<path d="M191.193 147.468H170.005V150.38H191.193V147.468Z" fill="#DDE4ED"/>
<path d="M75.4478 155.145H40.7666C40.1954 155.149 39.6328 155.009 39.1302 154.738C38.403 154.34 37.9375 153.687 37.9375 152.952L37.9569 105.237C37.9574 104.925 38.041 104.618 38.1993 104.349C38.6405 103.582 39.6369 103.043 40.786 103.043H75.4672C76.6793 103.043 77.6999 103.631 78.1072 104.451C78.2306 104.694 78.2953 104.962 78.2963 105.234L78.2793 152.952C78.2793 154.053 77.2151 154.973 75.8405 155.123C75.7101 155.138 75.579 155.146 75.4478 155.145Z" fill="white"/>
<path d="M76.3906 154.779L41.6973 154.772C41.1263 154.776 40.5634 154.636 40.0609 154.364C39.3336 153.966 38.8682 153.314 38.8682 152.578L38.8876 104.863C38.888 104.551 38.9717 104.245 39.13 103.975C39.5712 103.209 40.5676 102.67 41.7166 102.67H42.1894L42.1821 149.652C42.1821 150.38 42.6524 151.04 43.3748 151.438C43.8774 151.71 44.4403 151.85 45.0112 151.846H79.2221V152.574C79.2221 153.675 78.1579 154.595 76.7833 154.745C76.6531 154.764 76.522 154.775 76.3906 154.779Z" fill="#D6DEE9"/>
<path d="M75.918 156.235H41.2343C40.4166 156.239 39.6108 156.036 38.8925 155.645C37.6804 154.973 36.9531 153.828 36.9531 152.585L36.9725 104.87C36.9754 104.301 37.1284 103.743 37.4162 103.252C38.1434 102.002 39.598 101.224 41.2586 101.224H75.9398C77.6368 101.224 79.1519 102.061 79.8404 103.361L80.0343 103.66V103.795C80.1599 104.142 80.2239 104.507 80.2234 104.875L80.204 152.59C80.204 154.42 78.5968 155.987 76.4683 156.208C76.2855 156.227 76.1017 156.236 75.918 156.235ZM41.2513 104.123C40.5992 104.123 40.0901 104.412 39.9277 104.698C39.8959 104.747 39.8782 104.803 39.8768 104.861L39.8574 152.576C39.8574 152.736 40.0343 152.94 40.2986 153.088C40.5868 153.24 40.9083 153.319 41.2343 153.316H75.9156C75.9917 153.316 76.0678 153.312 76.1434 153.304C76.8707 153.226 77.2925 152.818 77.2925 152.576L77.3119 104.861C77.3119 104.832 77.3071 104.803 77.2974 104.776L77.1616 104.567C76.8263 104.264 76.3861 104.105 75.9349 104.123H41.2537H41.2513Z" fill="#426572"/>
<path d="M71.9175 123.69H48.3975V126.602H71.9175V123.69Z" fill="#426572"/>
<path d="M71.9175 117.615H48.3975V120.527H71.9175V117.615Z" fill="#426572"/>
<path d="M71.9175 130.574H48.3975V133.486H71.9175V130.574Z" fill="#426572"/>
<path opacity="0.2" d="M259.879 68.9063C261.574 65.7233 262.614 62.2328 262.939 58.641C263.263 55.0489 262.866 51.4284 261.77 47.9926C260.674 44.557 258.9 41.3759 256.556 38.6368C254.211 35.8981 251.343 33.6569 248.119 32.0456C244.895 30.4343 241.382 29.4857 237.785 29.2557C234.189 29.0257 230.583 29.5189 227.181 30.7061C223.778 31.8935 220.647 33.7511 217.973 36.1688C215.3 38.5869 213.137 41.5161 211.613 44.7843C209.508 48.7403 208.419 53.1583 208.446 57.6402C208.472 62.1222 209.613 66.5271 211.764 70.4579C213.916 74.3887 217.011 77.7219 220.77 80.1572C224.53 82.5924 228.836 84.0533 233.3 84.4078C232.521 84.5922 231.73 84.7416 230.927 84.8566C235.152 85.4664 239.463 85.0638 243.503 83.6821C247.542 82.3003 251.198 79.9789 254.168 76.9082C256.543 74.6122 258.48 71.9001 259.879 68.9063Z" fill="#606060"/>
<path d="M232.427 78.1012C247.329 78.1012 259.409 66.0108 259.409 51.0967C259.409 36.1827 247.329 24.0923 232.427 24.0923C217.526 24.0923 205.445 36.1827 205.445 51.0967C205.445 66.0108 217.526 78.1012 232.427 78.1012Z" fill="#4CD964"/>
<path d="M258.121 53.0259C258.121 56.8977 257.287 60.724 255.68 64.2454C254.073 67.7669 251.726 70.9012 248.802 73.4359C245.879 75.9707 242.443 77.8464 238.731 78.936C235.019 80.0257 231.116 80.3037 227.287 79.7513C233.707 78.8225 239.579 75.6094 243.825 70.701C248.073 65.7927 250.41 59.5174 250.41 53.0247C250.41 46.5319 248.073 40.2566 243.825 35.3483C239.579 30.4399 233.707 27.2271 227.287 26.298C231.116 25.7453 235.02 26.0231 238.732 27.1128C242.446 28.2024 245.881 30.0782 248.805 32.6131C251.728 35.1481 254.075 38.2829 255.682 41.8048C257.292 45.3268 258.123 49.1538 258.123 53.0259H258.121Z" fill="#4CD964"/>
<path d="M231.784 80.8408C226.16 80.8408 220.662 79.1715 215.986 76.0443C211.309 72.9171 207.664 68.4721 205.512 63.2719C203.36 58.0714 202.797 52.3491 203.894 46.8283C204.991 41.3076 207.7 36.2364 211.676 32.2561C215.653 28.2761 220.72 25.5654 226.236 24.4673C231.752 23.3691 237.47 23.9327 242.666 26.0869C247.862 28.2409 252.303 31.8888 255.428 36.5691C258.552 41.2491 260.22 46.7517 260.22 52.3806C260.213 59.9261 257.214 67.1603 251.883 72.4959C246.552 77.8313 239.323 80.8323 231.784 80.8408ZM231.784 26.8344C226.735 26.8344 221.8 28.3329 217.602 31.14C213.404 33.9475 210.132 37.9375 208.2 42.6059C206.268 47.2743 205.762 52.4114 206.747 57.3673C207.732 62.3232 210.163 66.8757 213.734 70.4486C217.303 74.0218 221.852 76.4551 226.804 77.4409C231.756 78.4267 236.888 77.9205 241.553 75.9868C246.218 74.0531 250.203 70.7786 253.008 66.577C255.813 62.3756 257.311 57.436 257.311 52.383C257.304 45.6094 254.613 39.115 249.828 34.3253C245.04 29.5353 238.552 26.8414 231.784 26.8344Z" fill="#000080" fill-opacity="0.8"/>
<path d="M245.413 41.3389C244.831 41.0133 244.145 40.9259 243.5 41.095C242.855 41.2642 242.301 41.6769 241.954 42.2461L237.282 49.8888L229.818 62.0881L229.609 62.4302L220.991 55.5299L219.42 54.2733C218.39 53.4484 216.836 53.1888 215.845 54.2733C215.001 55.1929 214.742 56.9687 215.845 57.8519L226.926 66.7223L228.497 67.9791C229.149 68.5032 229.769 68.7895 230.62 68.6755C231.001 68.6289 231.365 68.4949 231.685 68.2846C232.006 68.0742 232.273 67.793 232.468 67.4623L237.139 59.8196L244.606 47.6227L246.329 44.8036C247.011 43.673 246.603 41.9746 245.413 41.3389Z" fill="white"/>
</g>
</g>
<defs>
<clipPath id="clip0_111_1934">
<rect width="312" height="181" fill="white"/>
</clipPath>
</defs>
</svg>
