<svg width="317" height="276" viewBox="0 0 317 276" fill="none" xmlns="http://www.w3.org/2000/svg">
<g opacity="0.2">
<path opacity="0.2" d="M240.325 31.3179H78.8164V198.511H240.325V31.3179Z" fill="#D9FAFF"/>
<path opacity="0.2" d="M146.643 34.6323L121.734 113.019H107.568L132.48 34.6323H146.643Z" fill="white"/>
<path opacity="0.2" d="M124.777 34.6323L99.8668 113.019H91.666L116.574 34.6323H124.777Z" fill="white"/>
<path opacity="0.2" d="M230.476 33.9224L205.565 112.31H191.401L216.313 33.9224H230.476Z" fill="white"/>
<path opacity="0.2" d="M208.609 33.9224L183.701 112.31H175.5L200.408 33.9224H208.609Z" fill="white"/>
<path opacity="0.2" d="M230.476 117.993L205.565 196.379H191.401L216.313 117.993H230.476Z" fill="white"/>
<path opacity="0.2" d="M208.609 117.993L183.701 196.379H175.5L200.408 117.993H208.609Z" fill="white"/>
<path opacity="0.2" d="M146.643 117.993L121.734 196.379H107.568L132.48 117.993H146.643Z" fill="white"/>
<path opacity="0.2" d="M124.777 117.993L99.8668 196.379H91.666L116.574 117.993H124.777Z" fill="white"/>
<path opacity="0.2" d="M162.413 198.92V34.4609C162.413 33.7712 161.854 33.2124 161.165 33.2124H157.741C157.051 33.2124 156.492 33.7712 156.492 34.4609V198.92C156.492 199.609 157.051 200.168 157.741 200.168H161.165C161.854 200.168 162.413 199.609 162.413 198.92Z" fill="#E2B38E"/>
<path opacity="0.2" d="M75.9766 33.9877V198.447C75.9766 199.136 76.5354 199.695 77.225 199.695H80.6489C81.3383 199.695 81.8973 199.136 81.8973 198.447V33.9877C81.8973 33.2983 81.3383 32.7393 80.6489 32.7393H77.225C76.5354 32.7393 75.9766 33.2983 75.9766 33.9877Z" fill="#E2B38E"/>
<path opacity="0.2" d="M237.483 33.9877V198.447C237.483 199.136 238.042 199.695 238.732 199.695H242.156C242.845 199.695 243.404 199.136 243.404 198.447V33.9877C243.404 33.2983 242.845 32.7393 242.156 32.7393H238.732C238.042 32.7393 237.483 33.2983 237.483 33.9877Z" fill="#E2B38E"/>
<path opacity="0.2" d="M160.927 200.948H157.503C156.965 200.948 156.45 200.734 156.069 200.354C155.688 199.973 155.475 199.458 155.475 198.92V34.4609C155.475 33.9228 155.688 33.4067 156.069 33.0262C156.45 32.6458 156.965 32.4321 157.503 32.4321H160.927C161.466 32.4321 161.981 32.6458 162.361 33.0262C162.742 33.4067 162.956 33.9228 162.956 34.4609V198.92C162.956 199.458 162.742 199.973 162.361 200.354C161.981 200.734 161.466 200.948 160.927 200.948ZM157.505 33.9927C157.38 33.9927 157.261 34.042 157.174 34.1297C157.087 34.2176 157.037 34.3366 157.037 34.4609V198.92C157.037 199.043 157.087 199.163 157.174 199.25C157.261 199.338 157.38 199.388 157.505 199.388H160.929C161.054 199.388 161.172 199.338 161.26 199.25C161.347 199.163 161.397 199.043 161.397 198.92V34.4609C161.397 34.3366 161.347 34.2176 161.26 34.1297C161.172 34.042 161.054 33.9927 160.929 33.9927H157.505Z" fill="#385868"/>
<path opacity="0.2" d="M80.41 200.475H76.9877C76.4496 200.475 75.9336 200.262 75.5531 199.881C75.1726 199.5 74.959 198.985 74.959 198.447V33.9877C74.959 33.4498 75.1726 32.9337 75.5531 32.5532C75.9336 32.1728 76.4496 31.959 76.9877 31.959H80.4116C80.9495 31.959 81.4656 32.1728 81.8461 32.5532C82.2265 32.9337 82.4403 33.4498 82.4403 33.9877V198.447C82.4403 198.714 82.3877 198.977 82.2857 199.222C82.1836 199.469 82.0341 199.694 81.8454 199.881C81.6569 200.07 81.4331 200.22 81.1869 200.321C80.9405 200.422 80.6766 200.475 80.41 200.475ZM76.9877 33.5195C76.8635 33.5195 76.7444 33.5689 76.6566 33.6567C76.5689 33.7446 76.5195 33.8637 76.5195 33.9877V198.447C76.5195 198.57 76.5689 198.69 76.6566 198.778C76.7444 198.865 76.8635 198.915 76.9877 198.915H80.4116C80.5357 198.915 80.6547 198.865 80.7426 198.778C80.8305 198.69 80.8798 198.57 80.8798 198.447V33.9877C80.8798 33.8637 80.8305 33.7446 80.7426 33.6567C80.6547 33.5689 80.5357 33.5195 80.4116 33.5195H76.9877Z" fill="#385868"/>
<path opacity="0.2" d="M241.918 200.475H238.495C237.956 200.475 237.441 200.262 237.06 199.881C236.68 199.5 236.466 198.985 236.466 198.447V33.9877C236.466 33.4498 236.68 32.9337 237.06 32.5532C237.441 32.1728 237.956 31.959 238.495 31.959H241.918C242.457 31.959 242.972 32.1728 243.353 32.5532C243.733 32.9337 243.947 33.4498 243.947 33.9877V198.447C243.947 198.985 243.733 199.5 243.353 199.881C242.972 200.262 242.457 200.475 241.918 200.475ZM238.495 33.5195C238.37 33.5195 238.251 33.5689 238.164 33.6567C238.076 33.7446 238.026 33.8637 238.026 33.9877V198.447C238.026 198.57 238.076 198.69 238.164 198.778C238.251 198.865 238.37 198.915 238.495 198.915H241.918C242.043 198.915 242.162 198.865 242.249 198.778C242.337 198.69 242.387 198.57 242.387 198.447V33.9877C242.387 33.8637 242.337 33.7446 242.249 33.6567C242.162 33.5689 242.043 33.5195 241.918 33.5195H238.495Z" fill="#385868"/>
<path opacity="0.2" d="M243.576 28.2388H76.2807C75.5912 28.2388 75.0322 28.7976 75.0322 29.4872V32.9111C75.0322 33.6006 75.5912 34.1596 76.2807 34.1596H243.576C244.266 34.1596 244.825 33.6006 244.825 32.9111V29.4872C244.825 28.7976 244.266 28.2388 243.576 28.2388Z" fill="#E2B38E"/>
<path opacity="0.2" d="M243.336 34.9398H76.0434C75.5053 34.9398 74.9892 34.726 74.6088 34.3456C74.2283 33.9651 74.0146 33.449 74.0146 32.9111V29.4872C74.0146 28.9491 74.2283 28.4331 74.6088 28.0526C74.9892 27.6721 75.5053 27.4585 76.0434 27.4585H243.336C243.874 27.4585 244.389 27.6721 244.77 28.0526C245.151 28.4331 245.365 28.9491 245.365 29.4872V32.9111C245.365 33.449 245.151 33.9651 244.77 34.3456C244.389 34.726 243.874 34.9398 243.336 34.9398ZM76.0434 29.0191C75.9192 29.0191 75.8001 29.0684 75.7122 29.1561C75.6245 29.2439 75.5752 29.363 75.5752 29.4872V32.9111C75.5752 33.0352 75.6245 33.1542 75.7122 33.2421C75.8001 33.3298 75.9192 33.3793 76.0434 33.3793H243.336C243.461 33.3793 243.579 33.3298 243.667 33.2421C243.754 33.1542 243.804 33.0352 243.804 32.9111V29.4872C243.804 29.363 243.754 29.2439 243.667 29.1561C243.579 29.0684 243.461 29.0191 243.336 29.0191H76.0434Z" fill="#385868"/>
<path opacity="0.2" d="M243.576 195.432H76.2807C75.5912 195.432 75.0322 195.99 75.0322 196.68V200.104C75.0322 200.794 75.5912 201.352 76.2807 201.352H243.576C244.266 201.352 244.825 200.794 244.825 200.104V196.68C244.825 195.99 244.266 195.432 243.576 195.432Z" fill="#E2B38E"/>
<path opacity="0.2" d="M243.336 202.133H76.0434C75.5053 202.133 74.9892 201.919 74.6088 201.538C74.2283 201.157 74.0146 200.641 74.0146 200.104V196.68C74.0146 196.142 74.2283 195.625 74.6088 195.244C74.9892 194.865 75.5053 194.651 76.0434 194.651H243.336C243.874 194.651 244.389 194.865 244.77 195.244C245.151 195.625 245.365 196.142 245.365 196.68V200.104C245.365 200.641 245.151 201.157 244.77 201.538C244.389 201.919 243.874 202.133 243.336 202.133ZM76.0434 196.212C75.9192 196.212 75.8001 196.26 75.7122 196.349C75.6245 196.437 75.5752 196.555 75.5752 196.68V200.104C75.5752 200.227 75.6245 200.347 75.7122 200.435C75.8001 200.522 75.9192 200.572 76.0434 200.572H243.336C243.461 200.572 243.579 200.522 243.667 200.435C243.754 200.347 243.804 200.227 243.804 200.104V196.68C243.804 196.555 243.754 196.437 243.667 196.349C243.579 196.26 243.461 196.212 243.336 196.212H76.0434Z" fill="#385868"/>
<path opacity="0.2" d="M243.576 112.545H76.2807C75.5912 112.545 75.0322 113.104 75.0322 113.794V117.218C75.0322 117.907 75.5912 118.466 76.2807 118.466H243.576C244.266 118.466 244.825 117.907 244.825 117.218V113.794C244.825 113.104 244.266 112.545 243.576 112.545Z" fill="#E2B38E"/>
<path opacity="0.2" d="M243.336 119.246H76.0434C75.5053 119.246 74.9892 119.032 74.6088 118.652C74.2283 118.271 74.0146 117.755 74.0146 117.217V113.793C74.0146 113.255 74.2283 112.739 74.6088 112.359C74.9892 111.978 75.5053 111.765 76.0434 111.765H243.336C243.874 111.765 244.389 111.978 244.77 112.359C245.151 112.739 245.365 113.255 245.365 113.793V117.217C245.365 117.755 245.151 118.271 244.77 118.652C244.389 119.032 243.874 119.246 243.336 119.246ZM76.0434 113.325C75.9192 113.325 75.8001 113.375 75.7122 113.462C75.6245 113.55 75.5752 113.669 75.5752 113.793V117.217C75.5752 117.341 75.6245 117.461 75.7122 117.548C75.8001 117.636 75.9192 117.685 76.0434 117.685H243.336C243.461 117.685 243.579 117.636 243.667 117.548C243.754 117.461 243.804 117.341 243.804 117.217V113.793C243.804 113.669 243.754 113.55 243.667 113.462C243.579 113.375 243.461 113.325 243.336 113.325H76.0434Z" fill="#385868"/>
</g>
<g opacity="0.2">
<path opacity="0.2" d="M23.624 163.885V165.133H42.975V163.885H23.624Z" fill="#385868"/>
<path opacity="0.2" d="M48.9016 169.161L48.8955 170.41L68.2464 170.503L68.2524 169.255L48.9016 169.161Z" fill="#385868"/>
<path opacity="0.2" d="M24.7655 178.772L24.6533 189.993L25.9018 190.005L26.014 178.785L24.7655 178.772Z" fill="#385868"/>
<path opacity="0.2" d="M51.0712 158.693L50.959 169.913L52.2074 169.926L52.3196 158.705L51.0712 158.693Z" fill="#385868"/>
<path opacity="0.2" d="M33.87 173.912H58.1789C59.7958 173.912 61.1065 172.601 61.1065 170.984V168.194C61.1065 166.577 59.7958 165.266 58.1789 165.266H33.87C32.2531 165.266 30.9424 166.577 30.9424 168.194V170.984C30.9424 172.601 32.2531 173.912 33.87 173.912Z" fill="#F2F2F2"/>
<path opacity="0.2" d="M58.1795 174.537H33.8643C32.9227 174.536 32.0199 174.161 31.3542 173.495C30.6883 172.83 30.3137 171.926 30.3125 170.985V168.197C30.3128 167.254 30.6872 166.35 31.3531 165.684C32.019 165.018 32.9221 164.643 33.8643 164.642H58.1795C59.1211 164.643 60.0238 165.018 60.6897 165.684C61.3554 166.349 61.7301 167.252 61.7313 168.193V170.982C61.7309 171.925 61.3567 172.828 60.6908 173.495C60.0249 174.161 59.1216 174.536 58.1795 174.537ZM33.8643 165.89C33.2537 165.892 32.6683 166.133 32.2365 166.566C31.8047 166.998 31.5617 167.583 31.561 168.193V170.982C31.561 171.594 31.8035 172.179 32.2354 172.611C32.6672 173.045 33.2531 173.287 33.8643 173.289H58.1795C58.7901 173.287 59.3755 173.045 59.8073 172.613C60.2391 172.181 60.482 171.595 60.4829 170.985V168.197C60.4829 167.585 60.2402 167 59.8084 166.567C59.3764 166.133 58.7906 165.892 58.1795 165.89H33.8643Z" fill="#385868"/>
<path opacity="0.2" d="M13.121 182.557H37.4299C39.0468 182.557 40.3575 181.246 40.3575 179.63V176.839C40.3575 175.222 39.0468 173.912 37.4299 173.912H13.121C11.5041 173.912 10.1934 175.222 10.1934 176.839V179.63C10.1934 181.246 11.5041 182.557 13.121 182.557Z" fill="#F2F2F2"/>
<path opacity="0.2" d="M37.4301 183.183H13.1227C12.6557 183.181 12.1933 183.089 11.762 182.91C11.3306 182.732 10.9388 182.47 10.6088 182.139C10.2788 181.808 10.0172 181.416 9.83888 180.984C9.66052 180.552 9.56893 180.09 9.56934 179.623V176.835C9.57059 175.892 9.94518 174.99 10.611 174.324C11.2769 173.659 12.1796 173.284 13.1212 173.283H37.4301C38.3718 173.284 39.2744 173.659 39.9403 174.324C40.606 174.99 40.9807 175.892 40.982 176.835V179.623C40.9827 180.566 40.6092 181.471 39.9429 182.137C39.2769 182.805 38.373 183.181 37.4301 183.183ZM13.1227 174.537C12.5121 174.537 11.9267 174.781 11.4949 175.213C11.0631 175.644 10.8202 176.229 10.8193 176.841V179.623C10.8202 180.233 11.0631 180.819 11.4949 181.251C11.9267 181.683 12.5121 181.925 13.1227 181.927H37.4301C38.0408 181.925 38.6261 181.683 39.058 181.251C39.4898 180.819 39.7327 180.233 39.7335 179.623V176.835C39.7327 176.223 39.4898 175.638 39.058 175.207C38.6261 174.775 38.0408 174.531 37.4301 174.531L13.1227 174.537Z" fill="#385868"/>
</g>
<g opacity="0.2">
<path opacity="0.2" d="M14.0996 34.8091V36.0575H33.4506V34.8091H14.0996Z" fill="#385868"/>
<path opacity="0.2" d="M39.3324 39.4497L39.3262 40.6982L58.677 40.7927L58.6831 39.5443L39.3324 39.4497Z" fill="#385868"/>
<path opacity="0.2" d="M15.1728 48.8452L15.0605 60.0657L16.309 60.0782L16.4212 48.8577L15.1728 48.8452Z" fill="#385868"/>
<path opacity="0.2" d="M41.4813 28.7681L41.3691 39.9885L42.6176 40.001L42.7298 28.7806L41.4813 28.7681Z" fill="#385868"/>
<path opacity="0.2" d="M24.3016 44.207H48.6106C50.2275 44.207 51.5382 42.8963 51.5382 41.2794V38.4891C51.5382 36.8722 50.2275 35.5615 48.6106 35.5615H24.3016C22.6847 35.5615 21.374 36.8722 21.374 38.4891V41.2794C21.374 42.8963 22.6847 44.207 24.3016 44.207Z" fill="#F2F2F2"/>
<path opacity="0.2" d="M48.6088 44.8294H24.303C23.3622 44.8271 22.4608 44.4519 21.7958 43.7862C21.131 43.1205 20.7571 42.2185 20.7559 41.2776V38.4889C20.7571 37.5472 21.1316 36.6446 21.7975 35.9787C22.4634 35.313 23.3661 34.9383 24.3077 34.937H48.6088C49.5505 34.9383 50.4531 35.313 51.119 35.9787C51.7849 36.6446 52.1594 37.5472 52.1607 38.4889V41.2776C52.1594 42.2192 51.7849 43.122 51.119 43.7878C50.4531 44.4536 49.5505 44.8282 48.6088 44.8294ZM24.3015 36.1839C23.6916 36.1864 23.1076 36.4303 22.6771 36.8623C22.2467 37.2942 22.0048 37.8791 22.0043 38.4889V41.2776C22.0051 41.8882 22.2481 42.4738 22.6799 42.9054C23.1117 43.3372 23.6971 43.5802 24.3077 43.581H48.6088C49.2195 43.5802 49.8048 43.3372 50.2366 42.9054C50.6684 42.4738 50.9114 41.8882 50.9122 41.2776V38.4889C50.9114 37.8782 50.6684 37.2928 50.2366 36.861C49.8048 36.4292 49.2195 36.1864 48.6088 36.1855L24.3015 36.1839Z" fill="#385868"/>
<path opacity="0.2" d="M3.55163 52.8506H27.8605C29.4774 52.8506 30.7882 51.5399 30.7882 49.923V47.1327C30.7882 45.516 29.4774 44.2051 27.8605 44.2051H3.55163C1.93476 44.2051 0.624023 45.516 0.624023 47.1327V49.923C0.624023 51.5399 1.93476 52.8506 3.55163 52.8506Z" fill="#F2F2F2"/>
<path opacity="0.2" d="M27.8592 53.4762H3.55184C2.60995 53.4749 1.70701 53.1003 1.04113 52.4341C0.375252 51.7679 0.000825774 50.8648 0 49.9228V47.1309C0.00123871 46.1893 0.375848 45.2867 1.04168 44.6208C1.70751 43.955 2.61022 43.5804 3.55184 43.5791H27.8592C28.8012 43.58 29.7043 43.9544 30.3703 44.6203C31.0365 45.2862 31.4114 46.1891 31.4126 47.1309V49.9197C31.4126 50.8624 31.0384 51.7666 30.372 52.4334C29.7057 53.1004 28.8019 53.4754 27.8592 53.4762ZM3.55184 44.8291C2.94148 44.83 2.35631 45.0727 1.92457 45.5042C1.49282 45.9356 1.24969 46.5206 1.24845 47.1309V49.9197C1.24928 50.5303 1.49222 51.1157 1.924 51.5475C2.3558 51.9793 2.9412 52.2223 3.55184 52.2231H27.8592C28.4698 52.2223 29.0552 51.9793 29.487 51.5475C29.9188 51.1157 30.1618 50.5303 30.1626 49.9197V47.1309C30.1618 46.5203 29.9188 45.9349 29.487 45.5031C29.0552 45.0713 28.4698 44.8285 27.8592 44.8276L3.55184 44.8291Z" fill="#385868"/>
</g>
<g opacity="0.2">
<path opacity="0.2" d="M272.272 169.772L272.266 171.021L291.618 171.115L291.623 169.866L272.272 169.772Z" fill="#385868"/>
<path opacity="0.2" d="M297.383 174.286L297.377 175.534L316.73 175.628L316.736 174.379L297.383 174.286Z" fill="#385868"/>
<path opacity="0.2" d="M273.664 183.899L273.552 195.119L274.8 195.132L274.913 183.911L273.664 183.899Z" fill="#385868"/>
<path opacity="0.2" d="M299.969 163.822L299.858 175.043L301.107 175.055L301.218 163.835L299.969 163.822Z" fill="#385868"/>
<path opacity="0.2" d="M282.348 179.038H306.656C308.273 179.038 309.584 177.727 309.584 176.11V173.32C309.584 171.703 308.273 170.392 306.656 170.392H282.348C280.731 170.392 279.42 171.703 279.42 173.32V176.11C279.42 177.727 280.731 179.038 282.348 179.038Z" fill="#F2F2F2"/>
<path opacity="0.2" d="M306.651 179.663H282.349C281.408 179.662 280.504 179.287 279.838 178.621C279.173 177.956 278.798 177.053 278.797 176.112V173.323C278.798 172.38 279.173 171.478 279.838 170.812C280.504 170.147 281.408 169.773 282.349 169.771H306.651C307.592 169.773 308.496 170.147 309.161 170.812C309.827 171.478 310.202 172.38 310.203 173.323V176.112C310.202 177.053 309.827 177.956 309.161 178.621C308.496 179.287 307.592 179.662 306.651 179.663ZM282.344 171.018C281.734 171.018 281.149 171.261 280.716 171.694C280.284 172.124 280.042 172.71 280.041 173.321V176.11C280.042 176.72 280.284 177.305 280.716 177.738C281.149 178.17 281.734 178.412 282.344 178.413H306.651C307.262 178.412 307.847 178.17 308.279 177.738C308.711 177.305 308.953 176.72 308.955 176.11V173.321C308.953 172.71 308.711 172.124 308.279 171.694C307.847 171.261 307.262 171.018 306.651 171.018H282.344Z" fill="#385868"/>
<path opacity="0.2" d="M261.598 187.685H285.906C287.523 187.685 288.834 186.374 288.834 184.757V181.967C288.834 180.35 287.523 179.039 285.906 179.039H261.598C259.981 179.039 258.67 180.35 258.67 181.967V184.757C258.67 186.374 259.981 187.685 261.598 187.685Z" fill="#F2F2F2"/>
<path opacity="0.2" d="M285.905 188.309H261.598C260.657 188.308 259.753 187.933 259.087 187.267C258.422 186.602 258.047 185.698 258.046 184.757V181.964C258.047 181.021 258.422 180.119 259.087 179.453C259.753 178.788 260.657 178.414 261.598 178.412H285.905C286.846 178.414 287.75 178.788 288.416 179.453C289.081 180.119 289.455 181.021 289.457 181.964V184.753C289.457 185.695 289.082 186.599 288.418 187.265C287.751 187.933 286.848 188.308 285.905 188.309ZM261.598 179.664C260.988 179.664 260.402 179.907 259.97 180.339C259.538 180.77 259.296 181.357 259.294 181.967V184.756C259.296 185.366 259.538 185.951 259.97 186.383C260.402 186.816 260.988 187.058 261.598 187.059H285.905C286.515 187.058 287.1 186.816 287.533 186.383C287.965 185.951 288.207 185.366 288.208 184.756V181.964C288.207 181.354 287.965 180.767 287.533 180.336C287.1 179.904 286.515 179.661 285.905 179.661L261.598 179.664Z" fill="#385868"/>
</g>
<g opacity="0.2">
<path opacity="0.2" d="M272.274 6.22607L272.268 7.47451L291.62 7.56908L291.626 6.32064L272.274 6.22607Z" fill="#385868"/>
<path opacity="0.2" d="M297.382 10.7397L297.377 11.9882L316.728 12.0828L316.734 10.8343L297.382 10.7397Z" fill="#385868"/>
<path opacity="0.2" d="M273.656 20.0776L273.544 31.2981L274.792 31.3106L274.905 20.0901L273.656 20.0776Z" fill="#385868"/>
<path opacity="0.2" d="M299.962 0L299.852 11.2205L301.1 11.2329L301.211 0.0124845L299.962 0Z" fill="#385868"/>
<path opacity="0.2" d="M282.348 15.4966H306.656C308.273 15.4966 309.584 14.1859 309.584 12.569V9.77869C309.584 8.16181 308.273 6.85107 306.656 6.85107H282.348C280.731 6.85107 279.42 8.16181 279.42 9.77869V12.569C279.42 14.1859 280.731 15.4966 282.348 15.4966Z" fill="#F2F2F2"/>
<path opacity="0.2" d="M306.651 16.1206H282.349C281.408 16.1193 280.504 15.7446 279.838 15.0789C279.173 14.413 278.798 13.5103 278.797 12.5687V9.77841C278.798 8.83678 279.173 7.93407 279.838 7.26824C280.504 6.60241 281.408 6.22781 282.349 6.22656H306.651C307.592 6.22781 308.496 6.60241 309.161 7.26824C309.827 7.93407 310.202 8.83678 310.203 9.77841V12.5671C310.202 13.509 309.829 14.4121 309.162 15.0783C308.496 15.7445 307.594 16.1193 306.651 16.1206ZM282.344 7.47501C281.734 7.47584 281.149 7.71879 280.716 8.15058C280.284 8.58237 280.042 9.16776 280.041 9.77841V12.5671C280.042 13.1778 280.284 13.7632 280.716 14.195C281.149 14.6268 281.734 14.8697 282.344 14.8705H306.651C307.262 14.8697 307.847 14.6268 308.279 14.195C308.711 13.7632 308.953 13.1778 308.955 12.5671V9.77841C308.955 9.16749 308.711 8.5817 308.279 8.14957C307.848 7.71745 307.262 7.47428 306.651 7.47345L282.344 7.47501Z" fill="#385868"/>
<path opacity="0.2" d="M261.598 24.1407H285.906C287.523 24.1407 288.834 22.83 288.834 21.2131V18.4228C288.834 16.8059 287.523 15.4951 285.906 15.4951H261.598C259.981 15.4951 258.67 16.8059 258.67 18.4228V21.2131C258.67 22.83 259.981 24.1407 261.598 24.1407Z" fill="#F2F2F2"/>
<path opacity="0.2" d="M285.905 24.7665H261.598C260.657 24.7652 259.753 24.3907 259.087 23.7248C258.422 23.0591 258.047 22.1563 258.046 21.2146V18.4165C258.047 17.4749 258.422 16.5723 259.087 15.9064C259.753 15.2406 260.657 14.866 261.598 14.8647H285.905C286.848 14.8656 287.75 15.24 288.416 15.9059C289.082 16.5718 289.457 17.4747 289.458 18.4165V21.2053C289.458 21.6725 289.368 22.1352 289.19 22.567C289.011 22.9988 288.75 23.3913 288.419 23.7222C288.09 24.0528 287.698 24.3153 287.266 24.4945C286.835 24.6736 286.372 24.7662 285.905 24.7665ZM261.598 16.121C260.989 16.1219 260.404 16.3636 259.973 16.7939C259.541 17.224 259.297 17.8073 259.294 18.4165V21.2053C259.296 21.8159 259.538 22.4013 259.97 22.8331C260.402 23.2649 260.988 23.5079 261.598 23.5087H285.905C286.515 23.5079 287.1 23.2649 287.533 22.8331C287.965 22.4013 288.207 21.8159 288.208 21.2053V18.4165C288.207 17.8059 287.965 17.2205 287.533 16.7887C287.1 16.3569 286.515 16.1141 285.905 16.1132L261.598 16.121Z" fill="#385868"/>
</g>
<path d="M261.516 273.45H48.8115V275.011H261.516V273.45Z" fill="#385868"/>
<path d="M285.393 273.45H265.886V275.011H285.393V273.45Z" fill="#385868"/>
<path d="M45.5339 273.45H31.957V275.011H45.5339V273.45Z" fill="#385868"/>
<path d="M174.888 149.407V157.151C174.888 159.203 175.703 161.171 177.154 162.622C178.606 164.074 180.575 164.89 182.627 164.89H192.07C196.326 164.89 200.407 166.58 203.415 169.589C206.424 172.597 208.114 176.678 208.114 180.934V225.212H124.081V180.934C124.082 176.678 125.772 172.599 128.781 169.59C131.79 166.581 135.87 164.891 140.125 164.891H149.568C150.584 164.891 151.591 164.69 152.53 164.301C153.469 163.913 154.322 163.342 155.04 162.624C155.758 161.904 156.329 161.051 156.717 160.113C157.106 159.173 157.305 158.167 157.305 157.151V149.407" fill="#FFC6AD"/>
<path d="M207.468 181.418V225.697H124.081V181.418C124.082 177.162 125.772 173.083 128.781 170.074C131.79 167.065 135.87 165.375 140.125 165.375H144.615C145.038 169.397 147.864 173.212 151.366 175.23C154.922 177.279 159.102 177.983 163.201 178.169C168.459 178.407 173.843 177.822 178.651 175.681C183.216 173.652 187.234 169.955 189.221 165.381H191.424C195.678 165.381 199.758 167.07 202.766 170.077C205.775 173.084 207.467 177.164 207.468 181.418Z" fill="#82F0B7"/>
<path d="M207.145 181.418V188.999C207.145 184.743 205.455 180.662 202.446 177.654C199.437 174.645 195.356 172.955 191.101 172.955H188.897C186.906 177.535 182.892 181.226 178.327 183.254C173.519 185.395 168.135 185.981 162.878 185.742C158.778 185.556 154.599 184.851 151.043 182.803C147.539 180.786 144.713 176.97 144.292 172.948H139.802C137.694 172.948 135.607 173.362 133.659 174.169C131.712 174.976 129.942 176.157 128.452 177.649C126.961 179.139 125.779 180.909 124.973 182.856C124.167 184.804 123.752 186.891 123.753 188.999V181.418C123.753 179.311 124.169 177.224 124.975 175.277C125.782 173.331 126.964 171.561 128.454 170.072C129.945 168.582 131.714 167.401 133.661 166.595C135.608 165.789 137.695 165.375 139.802 165.375H144.292C144.714 169.397 147.541 173.212 151.043 175.23C154.599 177.279 158.778 177.983 162.878 178.169C168.135 178.407 173.519 177.822 178.327 175.681C182.892 173.652 186.911 169.955 188.897 165.381H191.101C195.355 165.381 199.434 167.07 202.443 170.077C205.452 173.084 207.143 177.164 207.145 181.418Z" fill="#BEF8D9"/>
<path d="M174.565 150.536V156.421L174.424 156.455C168.713 157.819 162.79 158.069 156.983 157.19V150.536H174.565Z" fill="#E39493"/>
<path d="M173.305 149.408C173.305 152.025 173.258 154.645 173.305 157.26C173.328 158.573 173.647 159.863 174.235 161.035C174.825 162.209 175.671 163.233 176.71 164.035C178.356 165.3 180.299 165.826 182.358 165.826C185.351 165.826 188.344 165.814 191.337 165.826C196.248 165.847 200.96 168.191 203.784 172.246C205.733 175.045 206.526 178.23 206.526 181.61V219.703C206.526 221.44 206.389 223.243 206.526 224.976C206.526 225.056 206.526 225.132 206.526 225.22L207.463 224.283H126.844C125.783 224.283 124.637 224.16 123.579 224.283C123.531 224.287 123.482 224.287 123.434 224.283L124.37 225.22V182.557C124.37 180.162 124.494 177.85 125.349 175.564C127.168 170.701 131.55 167.089 136.624 166.095C138.108 165.804 139.6 165.828 141.103 165.828H146.655C148.018 165.828 149.414 165.911 150.755 165.631C152.019 165.357 153.206 164.803 154.229 164.011C155.253 163.219 156.086 162.209 156.669 161.054C157.487 159.405 157.596 157.707 157.596 155.912V149.408C157.596 148.203 155.724 148.201 155.724 149.408C155.724 152.025 155.77 154.645 155.724 157.26C155.696 158.52 155.323 159.748 154.645 160.809C153.967 161.872 153.011 162.727 151.88 163.283C150.454 163.986 148.955 163.954 147.418 163.954H141.956C140.631 163.954 139.286 163.901 137.964 164.025C135.346 164.274 132.82 165.119 130.581 166.5C128.342 167.88 126.45 169.756 125.052 171.984C123.233 174.903 122.504 178.198 122.504 181.604V209.836C122.504 214.875 122.385 219.931 122.504 224.973C122.504 225.054 122.504 225.129 122.504 225.217C122.507 225.463 122.607 225.7 122.782 225.875C122.957 226.05 123.193 226.15 123.44 226.153H197.141C200.529 226.153 203.94 226.275 207.327 226.153C207.375 226.153 207.424 226.153 207.472 226.153C207.718 226.15 207.956 226.05 208.13 225.875C208.305 225.7 208.405 225.463 208.408 225.217V182.557C208.408 180.143 208.302 177.774 207.503 175.457C206.646 172.988 205.237 170.747 203.383 168.905C201.529 167.062 199.281 165.669 196.807 164.826C193.346 163.659 189.607 163.955 186.008 163.955C184.681 163.955 183.355 163.969 182.027 163.955C180.878 163.955 179.749 163.668 178.74 163.12C177.732 162.572 176.877 161.78 176.253 160.817C175.281 159.283 175.184 157.658 175.184 155.914V149.408C175.184 148.203 173.311 148.201 173.311 149.408H173.305Z" fill="#385868"/>
<path d="M154.928 58.5977C156.039 61.7188 159.402 63.373 162.545 64.4139C168.217 66.2889 174.166 67.1947 180.14 67.0934C184.407 67.0185 188.723 66.4348 192.904 67.3118C197.085 68.1889 201.23 70.9761 202.111 75.1506" fill="#EF7679"/>
<path d="M150.864 45.0039C159.415 38.6555 169.777 34.222 180.421 34.5481C191.066 34.8743 201.862 40.6 206.436 50.2162C212.602 63.1689 206.929 79.16 204.911 92.5231C202.677 107.365 203.021 122.481 205.929 137.205C207.272 143.992 209.222 150.821 212.848 156.77C213.718 158.196 215.366 159.665 215.999 161.158C216.806 163.061 216.155 163.125 213.925 163.747C210.606 164.673 207.001 164.267 203.625 164.02C199.871 163.747 196.078 163.429 192.499 162.269C186.568 160.348 180.482 155.032 181.517 148.156" fill="#5BA3BA"/>
<path d="M142.948 85.0524C151.949 84.116 149.741 72.6194 153.247 64.2766C155.492 58.9363 156.252 52.3539 152.84 47.6706C147.878 40.8572 137.931 39.3341 130.351 42.0448C120.007 45.7433 118.09 56.7141 117.673 66.5363C117.28 75.7889 119.344 84.9151 121.822 93.7681C123.275 98.9414 124.173 104.247 124.962 109.553C126.629 120.766 127.806 132.337 125.051 143.332C122.297 154.326 114.893 164.768 104.116 168.282C113.011 169.679 122.462 169.1 130.462 164.974C138.461 160.848 144.721 152.756 145.097 143.762" fill="#5BA3BA"/>
<path d="M191.358 66.7164C193.562 70.5773 194.773 74.886 194.719 79.8345C194.645 86.8805 192.123 93.8905 193.315 100.734C193.661 102.717 194.308 104.569 194.805 106.489C197.755 117.85 195.088 131.254 189.125 139.977C183.162 148.701 174.362 152.966 165.752 152.956H165.696C157.086 152.966 148.286 148.701 142.324 139.977C136.361 131.254 133.694 117.85 136.643 106.489C137.141 104.569 137.787 102.719 138.133 100.734C139.327 93.889 136.805 86.8789 136.729 79.8345C136.677 74.8875 137.887 69.9327 140.09 66.0719L145.688 57.4732L161.656 52.7915L171.487 54.7266" fill="#FFC6AD"/>
<path d="M189.128 134.977C183.165 143.7 174.365 147.965 165.756 147.956H165.699C157.09 147.965 148.29 143.7 142.327 134.977C138.372 129.19 135.869 121.344 135.492 113.402C135.023 122.712 137.676 132.366 142.327 139.171C148.29 147.895 157.09 152.16 165.699 152.151H165.756C174.365 152.16 183.165 147.895 189.128 139.171C193.78 132.366 196.425 122.712 195.964 113.403C195.586 121.344 193.083 129.19 189.128 134.977Z" fill="#E39493"/>
<path d="M193.288 71.0341C193.268 71.0341 193.246 71.0247 193.226 71.02C192.914 70.9534 192.599 70.8952 192.279 70.8452C188.398 70.2288 184.407 70.7329 180.462 70.8015C173.368 70.9248 160.955 70.7391 156.598 64.0084C160.829 70.5331 140.877 81.6303 136.779 83.8635L136.467 80.939C136.434 80.6269 136.407 80.3023 136.574 80.0448C136.731 79.8481 136.938 79.6985 137.174 79.6125C144.27 76.2635 149.437 71.4242 152.612 64.1161C152.633 64.0677 152.653 64.0193 152.672 63.971C152.762 63.7525 152.851 63.5324 152.934 63.3093L152.948 63.2749C153.711 61.468 154.261 59.5784 154.588 57.6444L155.571 60.9559C155.616 60.4878 155.645 60.0102 155.655 59.5421V59.4999C155.665 58.9912 155.655 58.4856 155.616 57.9831C155.538 56.7778 155.302 55.5879 154.916 54.4437V53.7087L158.157 52.7583C157.917 54.0973 157.461 55.5096 157.965 56.7736C158.528 58.1875 160.084 58.896 161.515 59.4172C168.984 62.1343 176.885 63.4639 184.832 63.3405C185.537 63.3296 186.244 63.3062 186.953 63.2812L191.04 65.7484C191.107 65.867 191.175 65.9888 191.241 66.1105L191.18 66.1011C191.269 66.2572 191.355 66.4132 191.439 66.5693C192.196 67.995 192.816 69.4902 193.288 71.0341Z" fill="#5BA3BA"/>
<path d="M155.25 59.0816C156.361 62.2027 159.724 63.8569 162.867 64.8978C168.54 66.7719 174.489 67.6767 180.463 67.5742C184.729 67.4993 189.046 66.9157 193.226 67.7927C197.407 68.6697 201.552 71.4569 202.434 75.6314L205.692 51.0182L155.208 48.437L155.25 59.0816Z" fill="#5BA3BA"/>
<path d="M209.089 165.11C207.572 165.11 206.052 164.993 204.564 164.877L203.568 164.802C199.478 164.504 195.804 164.164 192.257 163.015C188.98 161.956 185.907 159.979 183.81 157.589C181.297 154.729 180.236 151.427 180.743 148.043L182.287 148.274C181.736 151.957 183.448 154.813 184.982 156.559C186.9 158.744 189.726 160.556 192.738 161.531C196.118 162.624 199.695 162.956 203.682 163.248L204.684 163.324C207.721 163.559 210.861 163.793 213.724 163.001L214.06 162.909C214.693 162.735 215.41 162.536 215.559 162.388C215.559 162.335 215.559 162.113 215.289 161.47C214.965 160.706 214.283 159.882 213.623 159.084C213.102 158.485 212.622 157.85 212.19 157.185C210.222 153.958 207.352 148.391 205.168 137.366C202.229 122.557 201.883 107.349 204.144 92.4216C204.586 89.4924 205.189 86.5055 205.828 83.3407C208.098 72.0968 210.445 60.4706 205.734 50.5688C203.616 46.1165 200.013 42.3197 195.316 39.5887C190.768 36.9693 185.647 35.5048 180.401 35.3237C168.335 34.9554 157.929 40.7279 151.333 45.6234L150.396 44.3749C157.199 39.3249 167.933 33.387 180.444 33.7631C185.949 33.9273 191.329 35.4579 196.096 38.2169C201.066 41.1071 204.885 45.138 207.14 49.8759C209.355 54.5295 210.271 59.9697 209.949 66.5084C209.664 72.2232 208.492 78.0223 207.36 83.6309C206.725 86.7755 206.126 89.7452 205.689 92.6354C203.454 107.387 203.796 122.415 206.7 137.049C208.835 147.831 211.614 153.234 213.521 156.36C213.916 156.96 214.35 157.535 214.823 158.076C215.555 158.96 216.31 159.874 216.724 160.848C217.036 161.597 217.29 162.382 216.964 163.056C216.597 163.814 215.751 164.049 214.467 164.401L214.136 164.493C212.484 164.954 210.789 165.11 209.089 165.11Z" fill="#5BA3BA"/>
<path d="M152.935 65.0773C149.747 72.6617 143.304 79.2941 135.393 81.134C134.682 81.3005 133.962 81.4261 133.236 81.5101C130.409 78.6339 125.304 72.8489 125.538 68.7571C125.861 63.1126 135.37 54.08 137.634 50.8543C138.672 49.3718 139.88 45.5406 140.883 41.8296C141.119 41.8655 141.351 41.9061 141.587 41.9482C145.903 42.7534 149.909 44.8758 152.528 48.4714C155.932 53.1608 155.175 59.7433 152.935 65.0773Z" fill="#5BA3BA"/>
<path d="M112.605 169.749C109.722 169.742 106.844 169.511 103.996 169.06L100.784 168.556L103.876 167.547C113.487 164.412 121.312 155.062 124.296 143.149C127.116 131.888 125.72 119.965 124.191 109.675C123.439 104.616 122.542 99.2192 121.07 93.9788C118.665 85.3645 116.491 76.0807 116.897 66.5035C117.307 56.828 119.18 45.2128 130.092 41.3098C134.157 39.88 138.539 39.6099 142.749 40.5295C147.312 41.5361 151.02 43.8473 153.475 47.2165C155.167 49.5402 155.999 52.4085 155.949 55.7435C155.906 58.5525 155.221 61.6065 153.971 64.5841C152.165 68.9235 149.385 72.7893 145.845 75.8825C142.1 79.1145 137.791 81.0621 133.378 81.5193L133.222 79.9664C141.22 79.1393 148.801 72.8644 152.537 63.9801C153.712 61.1851 154.354 58.3293 154.394 55.7216C154.44 52.7316 153.708 50.18 152.22 48.1357C149.995 45.0801 146.602 42.9765 142.42 42.0495C138.495 41.1928 134.409 41.4456 130.619 42.7798C126.131 44.3841 122.991 47.4959 121.017 52.2899C119.066 57.0309 118.621 62.7098 118.458 66.5707C118.06 75.934 120.204 85.0727 122.579 93.5591C124.068 98.8759 124.976 104.336 125.734 109.446C127.286 119.886 128.7 131.99 125.809 143.528C123 154.764 116.007 163.832 107.215 167.906C113.82 168.588 122.37 168.278 130.104 164.287C138.394 160.011 143.973 151.944 144.318 143.737L145.878 143.803C145.512 152.561 139.602 161.146 130.822 165.675C124.801 168.779 118.337 169.749 112.605 169.749Z" fill="#5BA3BA"/>
<path d="M201.349 75.3097C200.461 71.1165 196.158 68.7912 192.744 68.0734C189.746 67.4491 186.568 67.5974 183.496 67.7457C182.403 67.7987 181.27 67.8533 180.155 67.8721C174.092 67.9797 168.054 67.0606 162.299 65.1536C157.824 63.6726 155.173 61.6142 154.184 58.8598L155.654 58.3354C156.474 60.6388 158.739 62.3352 162.782 63.6726C168.371 65.524 174.232 66.4168 180.119 66.3131C181.211 66.2943 182.33 66.2397 183.411 66.1882C186.582 66.0322 189.861 65.8761 193.056 66.5487C195.3 67.0113 197.408 67.9813 199.22 69.3842C201.157 70.9245 202.418 72.8627 202.867 74.9882L201.349 75.3097Z" fill="#5BA3BA"/>
<path d="M150.783 92.4716C150.827 90.8704 152.082 89.5377 153.717 89.5377C155.353 89.5377 156.609 90.8704 156.651 92.4716C156.684 93.6748 158.556 93.6795 158.524 92.4716C158.453 89.8592 156.384 87.665 153.717 87.665C151.05 87.665 148.981 89.8608 148.911 92.4716C148.878 93.6763 150.75 93.6763 150.783 92.4716Z" fill="#385868"/>
<path d="M173.202 92.4716C173.246 90.8704 174.501 89.5377 176.136 89.5377C177.772 89.5377 179.028 90.8704 179.07 92.4716C179.103 93.6748 180.975 93.6795 180.943 92.4716C180.872 89.8592 178.803 87.665 176.136 87.665C173.469 87.665 171.4 89.8608 171.33 92.4716C171.297 93.6763 173.169 93.6763 173.202 92.4716Z" fill="#385868"/>
<path d="M167.862 109.567C167.818 111.168 166.564 112.501 164.928 112.501C163.293 112.501 162.036 111.168 161.994 109.567C161.961 108.364 160.089 108.359 160.122 109.567C160.192 112.18 162.261 114.374 164.928 114.374C167.595 114.374 169.664 112.178 169.735 109.567C169.767 108.362 167.895 108.362 167.862 109.567Z" fill="#385868"/>
<path d="M206.137 59.7339C205.881 56.4911 204.489 53.4199 202.618 50.7591C197.936 44.0955 190.186 39.8352 182.102 38.8333C174.019 37.8314 165.69 39.96 158.725 44.1829C158.276 44.456 157.803 44.7697 157.613 45.2613C157.372 45.8855 157.658 46.569 157.892 47.1932C158.666 49.278 158.867 51.5319 158.477 53.7211C158.235 55.0616 157.779 56.477 158.284 57.7426C158.847 59.1565 160.403 59.8666 161.834 60.3878C169.303 63.1041 177.204 64.4333 185.15 64.3095C188.914 64.2486 192.736 63.8679 196.402 64.7184C200.068 65.5689 203.663 67.9846 204.64 71.6207C205.228 71.2148 205.706 70.6702 206.032 70.0351C206.36 69.3999 206.524 68.6941 206.513 67.9799" fill="#5BA3BA"/>
<path d="M120.885 78.5275C119.032 71.08 119.237 63.2691 121.478 55.9289C122.414 52.8843 123.764 49.8427 126.143 47.7282C128.521 45.6136 131.686 44.6227 134.838 44.3105C137.266 44.0718 139.762 44.2153 142.063 45.0222C148.122 47.1445 151.907 53.9283 151.307 60.3157C150.706 66.7031 146.21 72.3804 140.451 75.2113C137.369 76.7266 133.97 77.51 130.877 79.0034C127.784 80.4969 124.863 82.961 124.133 86.3178" fill="#5BA3BA"/>
<path d="M194.929 41.834C195.904 42.5194 196.831 43.2724 197.702 44.0875C198.506 44.8526 199.261 45.6655 199.967 46.5219C201.148 47.9772 202.162 49.5619 202.986 51.2458C203.334 51.9636 203.611 52.63 203.834 53.2214C203.94 53.5195 204.038 53.7957 204.124 54.0532L204.33 54.7648L204.411 55.0676L204.469 55.3376C204.503 55.5061 204.528 55.6497 204.545 55.7652C204.58 55.9977 204.578 56.1256 204.545 56.1366C204.513 56.1475 204.43 56.0445 204.322 55.8369C204.269 55.7339 204.207 55.6044 204.138 55.4499L204.029 55.2018L203.898 54.9209L203.6 54.2608L203.227 53.4805C202.954 52.9281 202.631 52.3069 202.247 51.6375C201.346 50.0724 200.302 48.5953 199.125 47.2257C198.426 46.4272 197.685 45.6663 196.906 44.9458C196.065 44.1795 195.176 43.467 194.244 42.8125C193.309 42.1566 192.334 41.5593 191.326 41.0241L190.962 40.8259L190.595 40.6433C190.352 40.5247 190.113 40.3983 189.871 40.2859C189.386 40.0674 188.915 39.8427 188.44 39.6617C187.551 39.2968 186.644 38.9771 185.723 38.7035L185.08 38.5303C184.87 38.4725 184.664 38.4132 184.456 38.3742C184.046 38.29 183.656 38.1838 183.276 38.1323C182.897 38.0808 182.538 37.9966 182.193 37.9763L181.692 37.9201L181.452 37.892L181.22 37.8811L180.368 37.8343C180.107 37.8343 179.867 37.8343 179.65 37.8343H179.338L179.069 37.8499C178.902 37.8577 178.757 37.8624 178.643 37.8608C178.411 37.8608 178.283 37.839 178.275 37.7984C178.267 37.7578 178.378 37.6985 178.601 37.6236C178.713 37.5861 178.852 37.544 179.019 37.4987L179.289 37.427L179.601 37.3755C179.821 37.3402 180.068 37.3037 180.339 37.2662C180.611 37.2444 180.906 37.2303 181.226 37.2132L181.469 37.2007H181.721L182.246 37.2132C182.61 37.2132 182.988 37.2615 183.387 37.2974C183.787 37.3333 184.2 37.4082 184.636 37.4722C184.853 37.5019 185.071 37.5518 185.293 37.6002L185.971 37.7484C186.944 37.99 187.902 38.2892 188.84 38.6442C189.339 38.8221 189.834 39.0422 190.344 39.2591C190.597 39.3699 190.848 39.4947 191.104 39.6149L191.488 39.799L191.869 39.9988C192.93 40.5395 193.952 41.1527 194.929 41.834Z" fill="white"/>
<path d="M190.061 89.8809C189.827 92.1468 189.924 94.1912 190.186 95.6456C190.312 96.3744 190.467 96.9549 190.557 97.3622C190.648 97.7695 190.693 98.0177 190.618 98.0551C190.543 98.0926 190.371 97.9131 190.128 97.5433C189.808 97.0078 189.552 96.437 189.365 95.8422C188.866 94.341 188.625 92.1265 188.87 89.756C188.983 88.6515 189.159 87.5542 189.396 86.4695C189.608 85.4754 189.83 84.5968 190.02 83.8571C190.415 82.3855 190.699 81.4819 190.863 81.5053C191.027 81.5287 191.035 82.4932 190.851 84.0163C190.762 84.7778 190.624 85.6767 190.476 86.6692C190.328 87.6617 190.167 88.7495 190.061 89.8809Z" fill="white"/>
<path d="M190.857 72.1513C191.163 72.9261 191.332 73.7484 191.355 74.5811C191.355 75.2194 191.247 75.6142 191.087 75.6329C190.926 75.6517 190.735 75.2959 190.523 74.7341C190.311 74.1723 190.055 73.4045 189.743 72.5852C189.587 72.1763 189.418 71.7924 189.267 71.4413L188.843 70.5049C188.598 69.9681 188.457 69.5982 188.583 69.4859C188.71 69.3735 189.08 69.5608 189.535 70.0212C189.799 70.2927 190.033 70.5908 190.235 70.9107C190.481 71.3038 190.689 71.7192 190.857 72.1513Z" fill="white"/>
<path d="M130.571 131.592C130.548 133.21 130.457 134.789 130.31 136.308C130.164 137.826 129.941 139.284 129.686 140.663L129.483 141.682C129.413 142.016 129.327 142.344 129.257 142.668C129.115 143.318 128.931 143.937 128.772 144.541C128.687 144.841 128.592 145.133 128.505 145.421C128.417 145.71 128.336 145.994 128.235 146.266L127.954 147.069L127.817 147.458L127.67 147.832C127.473 148.325 127.299 148.798 127.097 149.237C126.896 149.675 126.732 150.09 126.537 150.465C126.342 150.84 126.181 151.195 126.013 151.515L125.535 152.378C125.462 152.508 125.396 152.631 125.329 152.743L125.136 153.056L124.823 153.544C124.747 153.683 124.655 153.814 124.549 153.933C124.601 153.782 124.67 153.637 124.755 153.502L125.029 152.996L125.207 152.675C125.268 152.559 125.329 152.434 125.396 152.302L125.839 151.426C125.995 151.103 126.152 150.747 126.331 150.368C126.51 149.989 126.673 149.572 126.858 149.137C127.044 148.702 127.214 148.229 127.402 147.732L127.542 147.358L127.672 146.971L127.938 146.17C128.034 145.899 128.107 145.615 128.194 145.329C128.282 145.044 128.369 144.752 128.449 144.454C128.605 143.853 128.776 143.238 128.917 142.592C128.987 142.27 129.073 141.944 129.132 141.612L129.326 140.599C129.568 139.229 129.794 137.79 129.92 136.273C130.047 134.756 130.147 133.197 130.17 131.592C130.189 128.568 130.033 125.546 129.702 122.54C129.407 119.766 129.031 117.28 128.687 115.196C128.344 113.113 128.04 111.429 127.834 110.265C127.732 109.683 127.653 109.23 127.604 108.923C127.569 108.769 127.551 108.612 127.55 108.455C127.611 108.602 127.655 108.755 127.682 108.912C127.756 109.215 127.86 109.662 127.985 110.24C128.238 111.395 128.584 113.071 128.964 115.153C129.343 117.234 129.744 119.722 130.065 122.506C130.42 125.521 130.589 128.555 130.571 131.592Z" fill="#516D7B"/>
<path d="M134.588 156.839C135.456 155.551 136.207 154.188 136.832 152.766L137.222 151.795L137.317 151.561C137.347 151.483 137.37 151.405 137.397 151.325L137.553 150.857C137.65 150.553 137.759 150.264 137.835 149.979L138.049 149.155C138.205 148.633 138.272 148.146 138.361 147.724C138.402 147.511 138.445 147.315 138.475 147.132L138.542 146.631C138.627 146.029 138.686 145.695 138.712 145.695C138.739 145.695 138.733 146.035 138.697 146.647L138.664 147.157C138.645 147.343 138.611 147.543 138.581 147.758C138.52 148.248 138.434 148.735 138.324 149.217L138.132 150.058C138.062 150.35 137.959 150.645 137.868 150.955L137.723 151.424C137.698 151.503 137.676 151.58 137.646 151.664L137.554 151.904L137.174 152.911C135.962 155.839 134.148 158.481 131.851 160.664L131.061 161.375L130.87 161.547C130.807 161.603 130.738 161.653 130.672 161.703L130.284 162.015C130.026 162.212 129.789 162.413 129.541 162.583L128.825 163.065C128.415 163.342 127.991 163.598 127.556 163.83C127.365 163.936 127.191 164.039 127.024 164.124L126.556 164.337C125.997 164.592 125.685 164.72 125.672 164.695C125.66 164.67 125.952 164.495 126.484 164.2L126.927 163.957C127.083 163.863 127.255 163.751 127.437 163.644C127.799 163.41 128.228 163.176 128.661 162.839L129.352 162.343C129.591 162.17 129.82 161.964 130.07 161.764L130.446 161.452C130.508 161.399 130.576 161.349 130.638 161.296L130.822 161.123L131.588 160.409C132.693 159.311 133.697 158.117 134.588 156.839Z" fill="#516D7B"/>
<path d="M136.348 145.309C136.45 144.66 136.514 144.037 136.553 143.469C136.567 143.185 136.585 142.914 136.587 142.661C136.589 142.408 136.595 142.171 136.587 141.954C136.587 141.089 136.543 140.549 136.603 140.549C136.662 140.549 136.788 141.071 136.868 141.954C136.887 142.172 136.905 142.413 136.91 142.672C136.915 142.931 136.91 143.207 136.91 143.499C136.874 144.764 136.673 146.02 136.312 147.233C136.225 147.511 136.144 147.776 136.052 148.013C135.96 148.251 135.874 148.482 135.788 148.683C135.438 149.491 135.143 149.95 135.1 149.931C135.056 149.913 135.256 149.406 135.526 148.586C135.594 148.382 135.669 148.157 135.74 147.914C135.81 147.67 135.885 147.41 135.96 147.133C136.108 146.57 136.237 145.958 136.348 145.309Z" fill="#516D7B"/>
<path d="M170.658 62.8596C172.028 63.1703 173.414 63.4109 174.809 63.5806C175.454 63.6461 176.066 63.7179 176.643 63.7475C176.93 63.7647 177.208 63.7912 177.476 63.8006L178.246 63.8271C178.736 63.8521 179.182 63.8412 179.571 63.8458H180.115L180.573 63.8349C181.123 63.8256 181.429 63.8349 181.431 63.8599C181.432 63.8849 181.131 63.9317 180.58 63.9894L180.123 64.0347C179.956 64.0472 179.774 64.055 179.577 64.0643C179.185 64.0815 178.737 64.1127 178.243 64.1049H177.462C177.192 64.1049 176.912 64.0846 176.621 64.0737C176.039 64.0581 175.42 63.9972 174.767 63.941C171.936 63.6545 169.152 63.0085 166.485 62.0184C165.875 61.7812 165.292 61.5627 164.769 61.3209C164.503 61.2023 164.243 61.0946 163.999 60.9775L163.302 60.6358C162.854 60.4251 162.467 60.1988 162.122 60.0115C161.95 59.9163 161.79 59.829 161.645 59.7431L161.253 59.4997C160.785 59.2063 160.533 59.0315 160.547 59.0081C160.561 58.9847 160.839 59.1127 161.328 59.3639L161.733 59.5746L162.223 59.8118C162.576 59.9803 162.969 60.1863 163.42 60.3783L164.123 60.6904C164.368 60.7996 164.628 60.8979 164.894 61.0025C165.424 61.2303 166.005 61.4348 166.61 61.6595C167.938 62.1281 169.29 62.5287 170.658 62.8596Z" fill="#5BA3BA"/>
<path d="M178.193 62.5495C179.167 62.6463 180.098 62.6947 180.947 62.715C181.372 62.715 181.774 62.7274 182.152 62.715C182.53 62.7025 182.881 62.6994 183.202 62.6853C184.487 62.6291 185.281 62.548 185.29 62.6088C185.3 62.6697 184.51 62.8367 183.223 62.9662C182.899 62.9974 182.545 63.0286 182.164 63.0442C181.784 63.0598 181.375 63.0739 180.946 63.0801C180.087 63.0801 179.142 63.0427 178.154 62.9444C177.166 62.846 176.234 62.6869 175.393 62.5136C174.973 62.42 174.575 62.3342 174.207 62.2327C173.839 62.1313 173.496 62.0377 173.187 61.9425C171.947 61.5555 171.216 61.2199 171.233 61.1747C171.25 61.1294 172.013 61.3573 173.261 61.6709C173.574 61.749 173.914 61.827 174.284 61.9113C174.653 61.9955 175.048 62.0673 175.463 62.1532C176.298 62.3061 177.219 62.4465 178.193 62.5495Z" fill="#516D7B"/>
<path d="M164.037 41.5005C164.854 41.0371 165.697 40.6173 166.559 40.2426C166.958 40.0772 167.339 39.9165 167.701 39.7885C167.882 39.723 168.055 39.6559 168.225 39.5997L168.714 39.4436C169.962 39.0519 170.763 38.9146 170.774 38.9614C170.785 39.0082 170.018 39.2548 168.806 39.7105L168.338 39.8915C168.172 39.9539 168.004 40.0289 167.827 40.1006C167.473 40.2411 167.105 40.4128 166.713 40.5829C165.933 40.9418 165.098 41.3631 164.24 41.8516C163.381 42.34 162.596 42.8535 161.899 43.3404C161.552 43.5901 161.218 43.821 160.917 44.0551C160.761 44.1706 160.618 44.2783 160.479 44.3891L160.082 44.7012C159.074 45.5158 158.483 46.062 158.439 46.0183C158.395 45.9746 158.927 45.366 159.9 44.4874L160.285 44.1472C160.419 44.0301 160.566 43.9147 160.714 43.7914C161.009 43.5432 161.339 43.2982 161.685 43.0376C162.442 42.4844 163.227 41.9713 164.037 41.5005Z" fill="#516D7B"/>
<path d="M168.098 41.0556C168.606 40.8307 169.127 40.6328 169.658 40.4626C170.093 40.3251 170.535 40.2099 170.981 40.1177C171.745 39.9616 172.23 39.9398 172.23 39.9897C172.253 40.1099 170.374 40.4579 168.247 41.4207C166.12 42.3836 164.591 43.5166 164.518 43.4198C164.486 43.3808 164.83 43.0375 165.454 42.574C165.822 42.3039 166.203 42.0528 166.596 41.8218C167.083 41.54 167.584 41.2842 168.098 41.0556Z" fill="#516D7B"/>
<path d="M202.997 86.9501C202.156 90.8783 201.803 94.8955 201.946 98.9102C202.003 100.451 202.12 101.694 202.201 102.554C202.282 103.414 202.34 103.89 202.312 103.893C202.265 103.786 202.235 103.672 202.223 103.556C202.179 103.333 202.115 103.002 202.048 102.574C201.92 101.718 201.759 100.472 201.667 98.9227C201.436 94.8795 201.751 90.8235 202.603 86.8642C202.861 85.7079 203.142 84.5842 203.462 83.5153C203.782 82.4463 204.102 81.4225 204.398 80.4456C204.695 79.4687 204.963 78.5386 205.178 77.6585C205.292 77.22 205.375 76.7924 205.465 76.3819C205.556 75.9715 205.622 75.5751 205.665 75.1928C205.848 73.9933 205.887 72.7764 205.782 71.5676C205.754 71.1384 205.692 70.8091 205.662 70.5844C205.636 70.4699 205.626 70.3521 205.636 70.2349C205.687 70.3396 205.723 70.4516 205.742 70.5673C205.829 70.8895 205.895 71.2176 205.937 71.5489C206.104 72.7691 206.105 74.0061 205.945 75.2271C205.909 75.6157 205.831 76.0152 205.768 76.4365C205.706 76.8579 205.612 77.2886 205.5 77.7318C205.3 78.6245 205.041 79.5639 204.754 80.5408L203.843 83.6151C203.527 84.6904 203.253 85.8031 202.997 86.9501Z" fill="#516D7B"/>
<path d="M204.935 148.137C205.614 150.035 206.403 151.892 207.297 153.699L207.922 154.904C208.117 155.298 208.345 155.662 208.546 156.022C208.747 156.383 208.942 156.733 209.145 157.059L209.732 157.995C210.094 158.599 210.469 159.114 210.779 159.579C210.935 159.81 211.08 160.029 211.218 160.224L211.605 160.753C212.073 161.391 212.315 161.752 212.294 161.769C212.274 161.786 211.982 161.457 211.483 160.847L211.066 160.336C210.918 160.146 210.767 159.934 210.598 159.712C210.269 159.256 209.875 158.749 209.496 158.151L208.885 157.223C208.674 156.898 208.477 156.549 208.26 156.191C208.043 155.834 207.817 155.468 207.614 155.074L206.968 153.867C205.103 150.247 203.747 146.387 202.937 142.396L202.688 141.049C202.599 140.613 202.555 140.184 202.492 139.772C202.43 139.36 202.372 138.962 202.336 138.577L202.233 137.47C202.155 136.767 202.144 136.125 202.118 135.563C202.107 135.283 202.093 135.022 202.09 134.783V134.125C202.101 133.333 202.119 132.896 202.146 132.896C202.173 132.896 202.207 133.333 202.244 134.12L202.272 134.775C202.286 135.014 202.313 135.275 202.333 135.556C202.382 136.113 202.413 136.75 202.507 137.447L202.634 138.539C202.68 138.92 202.753 139.32 202.814 139.722C202.875 140.125 202.933 140.556 203.028 140.986L203.293 142.319C203.727 144.288 204.276 146.231 204.935 148.137Z" fill="#516D7B"/>
<path d="M201.646 140.618C201.861 141.672 202.101 142.667 202.337 143.569C202.46 144.019 202.573 144.446 202.693 144.844C202.813 145.242 202.921 145.612 203.025 145.949C203.445 147.296 203.737 148.121 203.681 148.145C203.624 148.168 203.25 147.372 202.758 146.04C202.637 145.706 202.505 145.34 202.377 144.947C202.249 144.554 202.118 144.123 201.984 143.672C201.727 142.769 201.474 141.765 201.257 140.707C201.04 139.649 200.886 138.622 200.77 137.689C200.719 137.221 200.666 136.779 200.636 136.363C200.606 135.946 200.577 135.559 200.558 135.203C200.491 133.784 200.538 132.906 200.586 132.904C200.634 132.903 200.7 133.777 200.839 135.181C200.875 135.532 200.912 135.916 200.964 136.328C201.015 136.74 201.071 137.179 201.134 137.641C201.266 138.554 201.435 139.563 201.646 140.618Z" fill="#516D7B"/>
<path d="M188.994 157.224C189.79 157.814 190.633 158.337 191.518 158.785C191.933 158.977 192.321 159.172 192.704 159.312C192.894 159.385 193.073 159.468 193.253 159.526L193.769 159.696C194.096 159.815 194.403 159.882 194.668 159.957C194.803 159.993 194.926 160.03 195.04 160.057L195.352 160.124C195.733 160.208 195.943 160.267 195.94 160.295C195.937 160.323 195.72 160.316 195.327 160.277L195.001 160.242C194.882 160.225 194.754 160.199 194.617 160.174C194.302 160.12 193.989 160.05 193.68 159.966L193.145 159.81C192.96 159.757 192.772 159.682 192.576 159.613C192.179 159.484 191.775 159.301 191.346 159.108C189.5 158.238 187.855 156.99 186.521 155.446C186.224 155.084 185.934 154.745 185.703 154.397C185.584 154.226 185.463 154.067 185.361 153.903L185.074 153.435C184.91 153.163 184.76 152.882 184.625 152.595C184.564 152.469 184.503 152.353 184.454 152.244L184.334 151.932C184.192 151.563 184.127 151.356 184.152 151.347C184.177 151.337 184.292 151.523 184.475 151.866L184.631 152.153C184.689 152.256 184.757 152.366 184.827 152.484C184.971 152.72 185.118 152.998 185.321 153.28L185.623 153.731C185.729 153.887 185.856 154.043 185.978 154.199C186.215 154.53 186.507 154.853 186.805 155.2C187.476 155.936 188.208 156.612 188.994 157.224Z" fill="#516D7B"/>
<path d="M194.759 157.986C195.744 158.396 196.75 158.747 197.777 159.037C198.253 159.161 198.704 159.286 199.133 159.37C199.347 159.415 199.553 159.465 199.757 159.501L200.333 159.601C200.7 159.673 201.036 159.707 201.329 159.757L201.738 159.815L202.084 159.852C202.499 159.899 202.73 159.938 202.73 159.966C202.73 159.994 202.496 160.007 202.075 160.007H201.724C201.596 160.007 201.457 159.991 201.307 159.982C201.009 159.958 200.667 159.944 200.293 159.89L199.704 159.813C199.5 159.785 199.291 159.741 199.071 159.702C198.632 159.63 198.172 159.515 197.685 159.401C195.58 158.863 193.568 158.007 191.721 156.865C191.301 156.595 190.898 156.342 190.542 156.077C190.363 155.945 190.185 155.825 190.024 155.697L189.556 155.328C189.258 155.097 189.01 154.859 188.785 154.663C188.674 154.561 188.57 154.469 188.473 154.38L188.228 154.129C187.936 153.825 187.783 153.648 187.804 153.63C187.824 153.611 188.011 153.748 188.334 154.015L188.601 154.238L188.927 154.493C189.163 154.674 189.42 154.892 189.726 155.104L190.194 155.449C190.358 155.569 190.538 155.682 190.719 155.805C191.078 156.056 191.48 156.294 191.898 156.551C192.822 157.085 193.777 157.564 194.759 157.986Z" fill="#516D7B"/>
<path d="M172.419 128.436C172.367 132.587 168.998 136.048 164.806 136.048C160.615 136.048 157.246 132.587 157.194 128.436C157.178 127.231 155.306 127.228 155.321 128.436C155.34 130.378 155.946 132.269 157.06 133.86C158.174 135.451 159.744 136.667 161.564 137.348C165.234 138.715 169.554 137.548 172.055 134.539C173.483 132.824 174.273 130.668 174.292 128.436C174.307 127.231 172.435 127.23 172.419 128.436Z" fill="#385868"/>
<path d="M143.659 165.996C144.012 169.561 145.928 172.738 148.686 174.985C151.807 177.529 155.699 178.755 159.644 179.278C167.522 180.321 176.378 179.448 183.026 174.753C186.327 172.426 188.956 169.303 190.425 165.523C190.862 164.4 189.051 163.913 188.619 165.026C186.122 171.454 179.83 175.441 173.337 176.925C169.58 177.783 165.666 177.919 161.832 177.626C158.154 177.345 154.388 176.546 151.241 174.534C148.29 172.647 145.883 169.554 145.53 165.989C145.413 164.801 143.539 164.788 143.658 165.989L143.659 165.996Z" fill="#385868"/>
<path d="M110.412 193H225.336C226.507 193 227.629 193.465 228.456 194.292C229.283 195.119 229.748 196.241 229.748 197.412V271.236C229.748 271.935 229.47 272.606 228.976 273.102C228.481 273.597 227.808 273.875 227.109 273.875H108.639C107.939 273.875 107.268 273.597 106.773 273.102C106.278 272.606 106 271.935 106 271.236V197.412C106 196.241 106.465 195.119 107.292 194.292C108.12 193.465 109.242 193 110.412 193Z" fill="#DBD545"/>
<path d="M225.325 192.613H111.22C108.556 192.613 106.397 194.651 106.397 197.164V199.566C106.397 197.053 108.556 195.015 111.22 195.015H225.325C227.989 195.015 230.147 197.053 230.147 199.566V197.164C230.147 194.65 227.989 192.613 225.325 192.613Z" fill="#347888"/>
<path d="M230.951 274.444H105.614V197.083C105.616 195.737 106.15 194.448 107.101 193.498C108.051 192.548 109.34 192.012 110.685 192.011H225.882C227.227 192.012 228.515 192.548 229.467 193.498C230.417 194.448 230.951 195.737 230.953 197.083L230.951 274.444ZM107.175 272.884H229.39V197.083C229.389 196.151 229.019 195.26 228.362 194.601C227.703 193.943 226.811 193.573 225.881 193.571H110.685C109.754 193.573 108.862 193.943 108.204 194.601C107.546 195.26 107.176 196.151 107.175 197.083V272.884Z" fill="#385868"/>
<path d="M80.0959 265.179C78.0504 265.173 76.0528 264.561 74.3549 263.42C72.657 262.28 71.3353 260.661 70.5566 258.77C69.7779 256.879 69.5772 254.798 69.9798 252.793C70.3824 250.788 71.3704 248.948 72.8188 247.503C74.2672 246.059 76.1111 245.076 78.1175 244.68C80.1241 244.282 82.2032 244.489 84.0923 245.273C85.9815 246.058 87.5959 247.384 88.7317 249.085C89.8675 250.786 90.4736 252.785 90.4736 254.831C90.4666 257.578 89.37 260.21 87.4244 262.15C85.4789 264.09 82.8434 265.179 80.0959 265.179ZM80.0959 247.294C78.606 247.298 77.1512 247.746 75.9153 248.578C74.6795 249.41 73.7177 250.589 73.1517 251.967C72.5856 253.345 72.4407 254.861 72.735 256.321C73.0293 257.782 73.7498 259.123 74.8055 260.174C75.8613 261.225 77.2048 261.941 78.6665 262.228C80.1283 262.517 81.6427 262.366 83.0185 261.794C84.3943 261.222 85.5699 260.256 86.3968 259.017C87.2237 257.777 87.6649 256.32 87.6646 254.831C87.658 252.829 86.8575 250.909 85.4386 249.497C84.0197 248.085 82.0984 247.292 80.0959 247.294Z" fill="#385868"/>
<path d="M84.388 247.146V250.598C83.4516 260.951 74.1679 269.081 62.8522 269.081C51.5365 269.081 42.2527 260.951 41.3164 250.598V247.146C41.4061 246.141 41.5758 245.145 41.8236 244.168C41.9292 243.752 42.1707 243.382 42.5098 243.116C42.8489 242.853 43.2663 242.708 43.6963 242.708H82.0019C82.432 242.708 82.8493 242.853 83.1884 243.116C83.5275 243.382 83.7689 243.752 83.8746 244.168C84.1246 245.145 84.2962 246.141 84.388 247.146Z" fill="#68B9E1"/>
<path d="M84.3872 243.488C84.3877 243.959 84.3395 244.43 84.2436 244.892H60.1735C60.1735 247.65 58.0964 249.886 55.5339 249.886H55.2437C54.626 249.881 54.0158 249.75 53.4518 249.499C52.8877 249.246 52.3819 248.881 51.9665 248.424C51.084 247.459 50.5983 246.198 50.6072 244.892H41.6153C41.5194 244.43 41.4712 243.959 41.4717 243.488H84.3872Z" fill="#ACD8F8"/>
<path d="M63.0083 269.861C57.3699 269.861 51.9813 267.89 47.838 264.312C43.6947 260.734 41.1682 255.897 40.6953 250.668V250.598V247.076C40.7905 246.03 40.9684 244.994 41.2275 243.976C41.3754 243.391 41.7137 242.873 42.1889 242.502C42.6643 242.132 43.2495 241.929 43.8523 241.927H82.158C82.7622 241.927 83.3493 242.129 83.826 242.5C84.3029 242.871 84.6424 243.389 84.7906 243.976C85.0492 244.994 85.2266 246.03 85.3212 247.076V247.146V250.668C84.853 255.897 82.3109 260.743 78.1785 264.312C74.0461 267.881 68.6466 269.861 63.0083 269.861ZM42.2528 250.562C42.6975 255.373 45.0415 259.835 48.8586 263.131C52.7195 266.464 57.7445 268.301 63.0083 268.301C68.272 268.301 73.2986 266.466 77.1579 263.131C80.9735 259.835 83.319 255.373 83.7638 250.562V247.182C83.6754 246.23 83.5127 245.287 83.2769 244.362C83.2138 244.112 83.0695 243.892 82.8669 243.733C82.6644 243.575 82.4148 243.489 82.158 243.489H43.8523C43.5955 243.489 43.3459 243.575 43.1434 243.733C42.9408 243.892 42.7965 244.112 42.7334 244.362C42.4976 245.287 42.3348 246.23 42.2465 247.182L42.2528 250.562Z" fill="#FDFFFF"/>
<path d="M39.7559 266.896H85.9486C85.9486 268.592 85.2744 270.22 84.0745 271.42C82.8746 272.62 81.2472 273.294 79.5503 273.294H46.1542C44.4572 273.294 42.8299 272.62 41.6299 271.42C40.43 270.22 39.7559 268.592 39.7559 266.896Z" fill="#68B9E1"/>
<path d="M85.012 267.208C85.0101 267.681 84.9579 268.151 84.856 268.613H59.8307C59.8307 271.37 57.6694 273.606 55.0055 273.606H54.7043C54.0662 273.605 53.4349 273.475 52.8483 273.224C52.2619 272.973 51.7322 272.604 51.2913 272.144C50.3798 271.195 49.8734 269.928 49.879 268.613H40.5281C40.4262 268.151 40.3739 267.681 40.3721 267.208H85.012Z" fill="#ACD8F8"/>
<path d="M79.7055 274.075H46.3095C44.4062 274.073 42.5816 273.315 41.2357 271.969C39.8899 270.624 39.1329 268.798 39.1309 266.896V266.116H86.8841V266.896C86.8821 268.798 86.1251 270.624 84.7792 271.969C83.4334 273.315 81.6088 274.073 79.7055 274.075ZM40.746 267.676C40.9358 269.017 41.6028 270.245 42.6248 271.133C43.6468 272.022 44.9552 272.512 46.3095 272.514H79.7055C81.0598 272.512 82.3679 272.021 83.3899 271.133C84.4117 270.245 85.0789 269.017 85.269 267.676H40.746Z" fill="#385868"/>
<path d="M84.3872 247.311H72.9951V248.403H84.3872V247.311Z" fill="#385868"/>
<g opacity="0.4">
<path opacity="0.4" d="M147.574 116.535C150.915 116.535 153.624 115.068 153.624 113.258C153.624 111.448 150.915 109.981 147.574 109.981C144.232 109.981 141.523 111.448 141.523 113.258C141.523 115.068 144.232 116.535 147.574 116.535Z" fill="white"/>
<path opacity="0.4" d="M182.02 116.535C185.361 116.535 188.07 115.068 188.07 113.258C188.07 111.448 185.361 109.981 182.02 109.981C178.679 109.981 175.97 111.448 175.97 113.258C175.97 115.068 178.679 116.535 182.02 116.535Z" fill="white"/>
</g>
</svg>
