<svg width="18" height="19" viewBox="0 0 18 19" fill="none" xmlns="http://www.w3.org/2000/svg">
<path d="M4.6875 9.89307C4.53832 9.89307 4.39524 9.95233 4.28975 10.0578C4.18426 10.1633 4.125 10.3064 4.125 10.4556C4.125 10.6048 4.18426 10.7478 4.28975 10.8533C4.39524 10.9588 4.53832 11.0181 4.6875 11.0181H5.0625C5.21168 11.0181 5.35476 10.9588 5.46025 10.8533C5.56574 10.7478 5.625 10.6048 5.625 10.4556C5.625 10.3064 5.56574 10.1633 5.46025 10.0578C5.35476 9.95233 5.21168 9.89307 5.0625 9.89307H4.6875ZM4.125 7.83057C4.125 7.68138 4.18426 7.53831 4.28975 7.43282C4.39524 7.32733 4.53832 7.26807 4.6875 7.26807H5.0625C5.21168 7.26807 5.35476 7.32733 5.46025 7.43282C5.56574 7.53831 5.625 7.68138 5.625 7.83057C5.625 7.97975 5.56574 8.12282 5.46025 8.22831C5.35476 8.3338 5.21168 8.39307 5.0625 8.39307H4.6875C4.53832 8.39307 4.39524 8.3338 4.28975 8.22831C4.18426 8.12282 4.125 7.97975 4.125 7.83057ZM4.6875 4.64307C4.53832 4.64307 4.39524 4.70233 4.28975 4.80782C4.18426 4.91331 4.125 5.05638 4.125 5.20557C4.125 5.35475 4.18426 5.49782 4.28975 5.60331C4.39524 5.7088 4.53832 5.76807 4.6875 5.76807H5.0625C5.21168 5.76807 5.35476 5.7088 5.46025 5.60331C5.56574 5.49782 5.625 5.35475 5.625 5.20557C5.625 5.05638 5.56574 4.91331 5.46025 4.80782C5.35476 4.70233 5.21168 4.64307 5.0625 4.64307H4.6875ZM6.75 10.4556C6.75 10.3064 6.80926 10.1633 6.91475 10.0578C7.02024 9.95233 7.16332 9.89307 7.3125 9.89307H7.6875C7.83668 9.89307 7.97976 9.95233 8.08525 10.0578C8.19074 10.1633 8.25 10.3064 8.25 10.4556C8.25 10.6048 8.19074 10.7478 8.08525 10.8533C7.97976 10.9588 7.83668 11.0181 7.6875 11.0181H7.3125C7.16332 11.0181 7.02024 10.9588 6.91475 10.8533C6.80926 10.7478 6.75 10.6048 6.75 10.4556ZM7.3125 7.26807C7.16332 7.26807 7.02024 7.32733 6.91475 7.43282C6.80926 7.53831 6.75 7.68138 6.75 7.83057C6.75 7.97975 6.80926 8.12282 6.91475 8.22831C7.02024 8.3338 7.16332 8.39307 7.3125 8.39307H7.6875C7.83668 8.39307 7.97976 8.3338 8.08525 8.22831C8.19074 8.12282 8.25 7.97975 8.25 7.83057C8.25 7.68138 8.19074 7.53831 8.08525 7.43282C7.97976 7.32733 7.83668 7.26807 7.6875 7.26807H7.3125ZM6.75 5.20557C6.75 5.05638 6.80926 4.91331 6.91475 4.80782C7.02024 4.70233 7.16332 4.64307 7.3125 4.64307H7.6875C7.83668 4.64307 7.97976 4.70233 8.08525 4.80782C8.19074 4.91331 8.25 5.05638 8.25 5.20557C8.25 5.35475 8.19074 5.49782 8.08525 5.60331C7.97976 5.7088 7.83668 5.76807 7.6875 5.76807H7.3125C7.16332 5.76807 7.02024 5.7088 6.91475 5.60331C6.80926 5.49782 6.75 5.35475 6.75 5.20557ZM9.9375 9.89307C9.78832 9.89307 9.64524 9.95233 9.53975 10.0578C9.43426 10.1633 9.375 10.3064 9.375 10.4556C9.375 10.6048 9.43426 10.7478 9.53975 10.8533C9.64524 10.9588 9.78832 11.0181 9.9375 11.0181H10.3125C10.4617 11.0181 10.6048 10.9588 10.7102 10.8533C10.8157 10.7478 10.875 10.6048 10.875 10.4556C10.875 10.3064 10.8157 10.1633 10.7102 10.0578C10.6048 9.95233 10.4617 9.89307 10.3125 9.89307H9.9375ZM9.375 7.83057C9.375 7.68138 9.43426 7.53831 9.53975 7.43282C9.64524 7.32733 9.78832 7.26807 9.9375 7.26807H10.3125C10.4617 7.26807 10.6048 7.32733 10.7102 7.43282C10.8157 7.53831 10.875 7.68138 10.875 7.83057C10.875 7.97975 10.8157 8.12282 10.7102 8.22831C10.6048 8.3338 10.4617 8.39307 10.3125 8.39307H9.9375C9.78832 8.39307 9.64524 8.3338 9.53975 8.22831C9.43426 8.12282 9.375 7.97975 9.375 7.83057ZM9.9375 4.64307C9.78832 4.64307 9.64524 4.70233 9.53975 4.80782C9.43426 4.91331 9.375 5.05638 9.375 5.20557C9.375 5.35475 9.43426 5.49782 9.53975 5.60331C9.64524 5.7088 9.78832 5.76807 9.9375 5.76807H10.3125C10.4617 5.76807 10.6048 5.7088 10.7102 5.60331C10.8157 5.49782 10.875 5.35475 10.875 5.20557C10.875 5.05638 10.8157 4.91331 10.7102 4.80782C10.6048 4.70233 10.4617 4.64307 10.3125 4.64307H9.9375Z" fill="#DBD545"/>
<path d="M1.5 15.8931V3.14307C1.5 2.74524 1.65804 2.36371 1.93934 2.08241C2.22064 1.8011 2.60218 1.64307 3 1.64307H12C12.3978 1.64307 12.7794 1.8011 13.0607 2.08241C13.342 2.36371 13.5 2.74524 13.5 3.14307V15.8931C13.5 16.0228 13.4835 16.1481 13.4528 16.2681H15C15.0995 16.2681 15.1948 16.2286 15.2652 16.1582C15.3355 16.0879 15.375 15.9925 15.375 15.8931V9.89307C15.375 9.83485 15.3614 9.77743 15.3354 9.72536C15.3094 9.67329 15.2716 9.628 15.225 9.59307L14.85 9.31182C14.7307 9.22231 14.6518 9.08905 14.6307 8.94137C14.6096 8.79368 14.648 8.64366 14.7375 8.52432C14.827 8.40497 14.9603 8.32607 15.108 8.30497C15.2556 8.28387 15.4057 8.32231 15.525 8.41182L15.9 8.69307C16.278 8.97657 16.5 9.42057 16.5 9.89307V15.8931C16.5 16.2909 16.342 16.6724 16.0607 16.9537C15.7794 17.235 15.3978 17.3931 15 17.3931H12.3285C12.2866 17.3931 12.2449 17.3886 12.204 17.3796C12.1372 17.3886 12.069 17.3931 12 17.3931H9.1875C9.03832 17.3931 8.89524 17.3338 8.78975 17.2283C8.68426 17.1228 8.625 16.9798 8.625 16.8306V15.1431H6.375V16.8306C6.375 16.9798 6.31574 17.1228 6.21025 17.2283C6.10476 17.3338 5.96168 17.3931 5.8125 17.3931H3C2.60218 17.3931 2.22064 17.235 1.93934 16.9537C1.65804 16.6724 1.5 16.2909 1.5 15.8931ZM3 16.2681H5.25V14.5806C5.25 14.4314 5.30926 14.2883 5.41475 14.1828C5.52024 14.0773 5.66332 14.0181 5.8125 14.0181H9.1875C9.33668 14.0181 9.47976 14.0773 9.58525 14.1828C9.69074 14.2883 9.75 14.4314 9.75 14.5806V16.2681H12C12.0995 16.2681 12.1948 16.2286 12.2652 16.1582C12.3355 16.0879 12.375 15.9925 12.375 15.8931V3.14307C12.375 3.04361 12.3355 2.94823 12.2652 2.8779C12.1948 2.80758 12.0995 2.76807 12 2.76807H3C2.90054 2.76807 2.80516 2.80758 2.73484 2.8779C2.66451 2.94823 2.625 3.04361 2.625 3.14307V15.8931C2.625 15.9925 2.66451 16.0879 2.73484 16.1582C2.80516 16.2286 2.90054 16.2681 3 16.2681Z" fill="#DBD545"/>
</svg>
