<svg width="20" height="21" viewBox="0 0 20 21" fill="none" xmlns="http://www.w3.org/2000/svg">
<path d="M0.833252 18.3332V2.74984C0.833252 2.26361 1.02641 1.79729 1.37022 1.45347C1.71404 1.10966 2.18036 0.916504 2.66659 0.916504H13.6666C14.1528 0.916504 14.6191 1.10966 14.9629 1.45347C15.3068 1.79729 15.4999 2.26361 15.4999 2.74984V18.3332C15.4999 18.4918 15.4798 18.6448 15.4422 18.7915H17.3333C17.4548 18.7915 17.5714 18.7432 17.6573 18.6573C17.7433 18.5713 17.7916 18.4547 17.7916 18.3332V10.9998C17.7916 10.9287 17.775 10.8585 17.7432 10.7949C17.7114 10.7312 17.6652 10.6759 17.6083 10.6332L17.1499 10.2894C17.004 10.18 16.9076 10.0172 16.8818 9.83665C16.856 9.65614 16.903 9.47279 17.0124 9.32692C17.1218 9.18105 17.2847 9.08462 17.4652 9.05883C17.6457 9.03304 17.8291 9.08002 17.9749 9.18942L18.4333 9.53317C18.8953 9.87967 19.1666 10.4223 19.1666 10.9998V18.3332C19.1666 18.8194 18.9734 19.2857 18.6296 19.6295C18.2858 19.9734 17.8195 20.1665 17.3333 20.1665H14.0681C14.0169 20.1666 13.9659 20.161 13.9159 20.15C13.8343 20.161 13.7509 20.1665 13.6666 20.1665H10.2291C10.0467 20.1665 9.87188 20.0941 9.74295 19.9651C9.61402 19.8362 9.54159 19.6613 9.54159 19.479V17.4165H6.79159V19.479C6.79159 19.6613 6.71915 19.8362 6.59022 19.9651C6.46129 20.0941 6.28642 20.1665 6.10409 20.1665H2.66659C2.18036 20.1665 1.71404 19.9734 1.37022 19.6295C1.02641 19.2857 0.833252 18.8194 0.833252 18.3332ZM2.66659 18.7915H5.41659V16.729C5.41659 16.5467 5.48902 16.3718 5.61795 16.2429C5.74688 16.1139 5.92175 16.0415 6.10409 16.0415H10.2291C10.4114 16.0415 10.5863 16.1139 10.7152 16.2429C10.8442 16.3718 10.9166 16.5467 10.9166 16.729V18.7915H13.6666C13.7881 18.7915 13.9047 18.7432 13.9907 18.6573C14.0766 18.5713 14.1249 18.4547 14.1249 18.3332V2.74984C14.1249 2.62828 14.0766 2.5117 13.9907 2.42575C13.9047 2.33979 13.7881 2.2915 13.6666 2.2915H2.66659C2.54503 2.2915 2.42845 2.33979 2.34249 2.42575C2.25654 2.5117 2.20825 2.62828 2.20825 2.74984V18.3332C2.20825 18.4547 2.25654 18.5713 2.34249 18.6573C2.42845 18.7432 2.54503 18.7915 2.66659 18.7915Z" fill="#4CD964"/>
</svg>
