<svg width="26" height="26" viewBox="0 0 26 26" fill="none" xmlns="http://www.w3.org/2000/svg">
<path d="M15.8308 6.44873V10.8988L17.3876 11.8779C17.4438 11.8902 17.502 11.8902 17.5582 11.8779L24.2516 7.36523C24.2467 7.14622 24.1665 6.93557 24.0247 6.76867C23.8828 6.60177 23.6877 6.48879 23.4724 6.44873H15.8308Z" fill="#0072C6"/>
<path d="M15.8306 12.5587L17.2501 13.5337C17.3165 13.5742 17.3929 13.5956 17.4707 13.5956C17.5485 13.5956 17.6248 13.5742 17.6913 13.5337C17.4475 13.6807 24.2506 9.16406 24.2506 9.16406V17.3427C24.2683 17.5084 24.2496 17.676 24.1958 17.8338C24.142 17.9915 24.0544 18.1356 23.9391 18.2559C23.8238 18.3763 23.6836 18.47 23.5282 18.5305C23.3729 18.591 23.2063 18.6168 23.04 18.6061H15.8298L15.8306 12.5587ZM8.48239 10.5071C8.24654 10.506 8.01478 10.5687 7.81167 10.6885C7.60855 10.8084 7.44165 10.981 7.32864 11.188C7.01998 11.7367 6.87188 12.3612 6.90126 12.9901C6.86919 13.6177 7.01749 14.2414 7.32864 14.7874C7.44118 14.9859 7.60397 15.1512 7.80067 15.2669C7.99737 15.3825 8.22103 15.4443 8.4492 15.4462C8.67736 15.448 8.90198 15.3897 9.10049 15.2772C9.299 15.1647 9.4644 15.0019 9.58008 14.8052C9.88783 14.2618 10.0331 13.6414 9.99851 13.0177C10.0338 12.3746 9.89332 11.7339 9.59226 11.1644C9.48467 10.9642 9.32443 10.7971 9.12883 10.6813C8.93323 10.5654 8.70971 10.5052 8.48239 10.5071Z" fill="#0072C6"/>
<path d="M1.74927 4.18844V21.5979L14.993 24.375V1.625L1.74927 4.18844ZM10.612 15.8364C10.3643 16.1857 10.0349 16.4691 9.65248 16.6618C9.2701 16.8545 8.84639 16.9508 8.41827 16.9422C8.00092 16.9497 7.58796 16.8562 7.21451 16.6697C6.84105 16.4833 6.51815 16.2094 6.27327 15.8714C5.69248 15.0605 5.40195 14.0776 5.44858 13.0813C5.39917 12.0361 5.69496 11.0037 6.29033 10.1433C6.5412 9.78732 6.87579 9.49857 7.2646 9.30247C7.6534 9.10637 8.08448 9.00893 8.51983 9.01875C8.93415 9.01044 9.34418 9.10395 9.71392 9.29109C10.0837 9.47823 10.4018 9.75327 10.6405 10.0921C11.2154 10.9205 11.501 11.9155 11.453 12.9228C11.5036 13.9604 11.2078 14.9854 10.612 15.8364Z" fill="#0072C6"/>
</svg>
