<svg width="47" height="47" viewBox="0 0 47 47" fill="none" xmlns="http://www.w3.org/2000/svg">
<path fill-rule="evenodd" clip-rule="evenodd" d="M27.1802 12.4462C26.4572 12.9475 25.6416 13.2997 24.7811 13.4824C23.9205 13.6651 23.0322 13.6745 22.1679 13.5102C21.3036 13.3458 20.4808 13.011 19.7473 12.5253C19.0138 12.0395 18.3844 11.4125 17.8959 10.6809C17.4073 9.94926 17.0694 9.12766 16.9018 8.26403C16.7341 7.40039 16.7402 6.51203 16.9196 5.65077C17.099 4.78951 17.4482 3.9726 17.9467 3.24773C18.4452 2.52285 19.0831 1.90452 19.8231 1.42883C21.2842 0.463758 23.0679 0.116378 24.7844 0.46262C26.5009 0.808863 28.0105 1.82056 28.9832 3.27657C29.9559 4.73258 30.3126 6.51448 29.9754 8.23273C29.6382 9.95099 28.6344 11.4659 27.1835 12.4462H27.1802ZM25.3417 4.18483C24.981 3.92531 24.5717 3.74103 24.1383 3.64297C23.7049 3.5449 23.2561 3.53505 22.8188 3.61401C22.3815 3.69296 21.9645 3.8591 21.5927 4.10254C21.2209 4.34598 20.9019 4.66174 20.6547 5.03101C20.4075 5.40029 20.2371 5.81554 20.1537 6.25203C20.0703 6.68852 20.0755 7.13734 20.1692 7.57175C20.2628 8.00617 20.4429 8.4173 20.6987 8.78068C20.9545 9.14405 21.2809 9.45224 21.6582 9.68689C22.3874 10.1298 23.2593 10.2743 24.0923 10.0904C24.9254 9.90642 25.6553 9.40816 26.1301 8.69937C26.6049 7.99059 26.7879 7.12595 26.6411 6.28558C26.4942 5.4452 26.0288 4.69388 25.3417 4.18814V4.18483ZM33.9874 4.2842C34.9427 3.64158 36.0923 3.35219 37.238 3.46586C38.3838 3.57953 39.4541 4.08914 40.2646 4.90695C40.8421 5.48912 41.2679 6.2041 41.5048 6.98919C41.7416 7.77428 41.7822 8.60549 41.6229 9.40992C41.4637 10.2143 41.1095 10.9674 40.5914 11.603C40.0733 12.2387 39.4071 12.7375 38.6514 13.0557C37.7437 13.4352 36.7434 13.5352 35.7785 13.3428C34.8136 13.1504 33.9282 12.6745 33.2354 11.9758C32.7148 11.4525 32.3163 10.8206 32.0684 10.1252C31.8205 9.42991 31.7294 8.68838 31.8015 7.95372C31.8737 7.21906 32.1074 6.50943 32.4858 5.87563C32.8643 5.24183 33.3782 4.69952 33.9907 4.28751L33.9874 4.2842ZM35.5774 9.61733C35.8884 9.92701 36.3097 10.1005 36.7485 10.0995C36.9659 10.0991 37.181 10.0558 37.3815 9.97222C37.5821 9.88863 37.7643 9.76635 37.9177 9.61236C38.071 9.45837 38.1925 9.27568 38.2752 9.07473C38.358 8.87378 38.4003 8.6585 38.3999 8.44119C38.3994 8.22387 38.3561 8.00878 38.2725 7.80818C38.189 7.60758 38.0667 7.42542 37.9127 7.27208C37.6042 6.9619 37.1873 6.78373 36.75 6.7752C36.5315 6.77476 36.3151 6.81762 36.1133 6.90132C35.9116 6.98502 35.7284 7.10789 35.5743 7.26283C35.4203 7.41777 35.2985 7.60171 35.2161 7.804C35.1336 8.00629 35.092 8.22293 35.0937 8.44139C35.0948 8.88254 35.2684 9.30247 35.5774 9.61733ZM7.56687 38.3632H13.5625V41.6923H7.56687C6.51729 41.6828 5.51428 41.2575 4.77775 40.5097C4.03838 39.7591 3.62426 38.7476 3.625 37.6941V31.6985C3.17901 31.6835 2.74068 31.5784 2.33646 31.3894C1.93223 31.2004 1.57051 30.9314 1.27312 30.5987C0.957122 30.2786 0.709124 29.8979 0.54404 29.4795C0.378955 29.0611 0.300195 28.6136 0.312497 28.164V20.9361C0.322434 19.3726 0.941872 17.8787 2.035 16.769C3.12481 15.6726 4.59887 15.0465 6.1425 15.0366H12.2375C11.4154 16.0157 10.7961 17.1484 10.4156 18.369H6.1425C5.47019 18.3882 4.83051 18.663 4.35375 19.1375C3.88544 19.619 3.62391 20.2645 3.625 20.9361V28.3296H6.9375V37.6908C6.92982 37.781 6.94053 37.8719 6.969 37.9578C6.99747 38.0438 7.0431 38.1231 7.10312 38.191C7.23628 38.2939 7.39865 38.3518 7.56687 38.3566V38.3632ZM31.7481 16.7723C31.2061 16.225 30.5613 15.7902 29.8507 15.4929C29.1401 15.1956 28.3778 15.0417 27.6075 15.0399H19.3925C17.8483 15.0522 16.3716 15.675 15.285 16.7723C14.1919 17.882 13.5724 19.376 13.5625 20.9395V31.4666C13.5578 32.3705 13.9019 33.2414 14.5231 33.8979C14.8209 34.2302 15.1827 34.4989 15.5868 34.6878C15.991 34.8768 16.4291 34.9822 16.875 34.9977V42.6926C16.8719 43.2179 16.9727 43.7385 17.1717 44.2246C17.3707 44.7106 17.6639 45.1525 18.0344 45.5248C18.6306 46.0813 19.3826 46.4424 20.1875 46.5583H26.8125C27.7442 46.436 28.5978 45.9736 29.2093 45.2601C29.8208 44.5465 30.1469 43.6321 30.125 42.6926V34.9944C30.571 34.9795 31.0093 34.8743 31.4135 34.6853C31.8178 34.4963 32.1795 34.2273 32.4769 33.8946C32.7926 33.575 33.0405 33.1949 33.2056 32.7771C33.3706 32.3593 33.4495 31.9124 33.4375 31.4633V20.9361C33.4398 19.3799 32.8335 17.8877 31.7481 16.7723ZM30.125 31.6289H26.8125V42.6926C26.8093 42.8672 26.738 43.0337 26.6137 43.1564C26.5572 43.2233 26.4859 43.2761 26.4054 43.3106C26.3249 43.3451 26.2374 43.3604 26.15 43.3551H20.8169C20.6438 43.3471 20.4799 43.2747 20.3574 43.1521C20.2348 43.0296 20.1624 42.8657 20.1544 42.6926V31.6289H16.875V20.9361C16.875 20.2637 17.1367 19.6178 17.6037 19.1375C18.0805 18.663 18.7202 18.3882 19.3925 18.369H27.6075C28.1093 18.3778 28.5976 18.533 29.0124 18.8154C29.4273 19.0979 29.7507 19.4953 29.9428 19.959C30.0689 20.269 30.1309 20.6014 30.125 20.9361V31.6289ZM39.4331 41.689H33.4375V38.3599H39.4C39.5682 38.3552 39.7306 38.2972 39.8637 38.1943C39.9305 38.1291 39.9826 38.0505 40.0169 37.9637C40.0511 37.877 40.0667 37.784 40.0625 37.6908V28.3296H43.375V20.9361C43.3761 20.2645 43.1146 19.619 42.6462 19.1375C42.1695 18.663 41.5298 18.3882 40.8575 18.369H36.5844C36.2041 17.1483 35.5848 16.0156 34.7625 15.0366H40.8575C42.4014 15.0507 43.8773 15.6732 44.965 16.769C46.0581 17.8787 46.6776 19.3726 46.6875 20.9361V28.164C46.6875 29.0683 46.3463 29.9362 45.7302 30.5921C45.1141 31.2513 44.2727 31.6455 43.375 31.6951V37.6908C43.375 38.7475 42.9609 39.7578 42.2222 40.5064C41.4857 41.2542 40.4827 41.6795 39.4331 41.689ZM10.25 3.44283C9.26429 3.44168 8.3007 3.73492 7.48272 4.28496C6.66475 4.83499 6.02967 5.61677 5.65887 6.53008C5.28466 7.44306 5.18751 8.44602 5.37955 9.41385C5.57159 10.3817 6.0443 11.2716 6.73875 11.9725C7.43293 12.6727 8.32007 13.15 9.28684 13.3435C10.2536 13.537 11.2561 13.4379 12.1663 13.0589C13.0765 12.6799 13.853 12.0382 14.3968 11.2157C14.9405 10.3932 15.2266 9.4273 15.2187 8.44139C15.2187 7.11639 14.6954 5.84439 13.7612 4.90695C13.3013 4.44364 12.7543 4.07579 12.1517 3.82453C11.5491 3.57326 10.9029 3.44355 10.25 3.44283ZM10.25 10.1076C10.0315 10.108 9.81515 10.0652 9.61335 9.98146C9.41155 9.89776 9.22835 9.77488 9.07434 9.61994C8.92032 9.465 8.79855 9.28107 8.71606 9.07878C8.63357 8.87649 8.592 8.65985 8.59375 8.44139C8.59461 8.00147 8.76906 7.57967 9.0792 7.26767C9.38934 6.95567 9.81009 6.77869 10.25 6.7752C10.6886 6.78293 11.1069 6.96126 11.4161 7.27235C11.7253 7.58343 11.9011 8.00278 11.9062 8.44139C11.9054 8.88131 11.7309 9.30311 11.4208 9.61511C11.1107 9.92711 10.6899 10.1041 10.25 10.1076Z" fill="#DBD545"/>
</svg>
