<svg width="16" height="16" viewBox="0 0 16 16" fill="none" xmlns="http://www.w3.org/2000/svg">
<path fill-rule="evenodd" clip-rule="evenodd" d="M9.24981 4.24568C9.00427 4.41592 8.72729 4.53555 8.43502 4.59759C8.14275 4.65963 7.84105 4.66284 7.54752 4.60703C7.254 4.55122 6.97453 4.43751 6.72543 4.27253C6.47632 4.10755 6.26257 3.89461 6.09665 3.64613C5.93073 3.39766 5.81595 3.11862 5.75903 2.82532C5.7021 2.53201 5.70416 2.2303 5.76509 1.93779C5.82602 1.64529 5.9446 1.36785 6.1139 1.12167C6.28321 0.875483 6.49985 0.665485 6.75119 0.503927C7.24741 0.176168 7.8532 0.0581899 8.43615 0.175782C9.0191 0.293373 9.53179 0.63697 9.86215 1.13146C10.1925 1.62596 10.3137 2.23113 10.1991 2.81469C10.0846 3.39825 9.74369 3.91273 9.25094 4.24568H9.24981ZM8.62543 1.43993C8.50292 1.35179 8.36392 1.2892 8.21671 1.2559C8.06951 1.22259 7.91711 1.21925 7.76858 1.24606C7.62006 1.27288 7.47845 1.3293 7.35218 1.41198C7.22592 1.49466 7.11758 1.6019 7.03362 1.72731C6.94965 1.85273 6.89178 1.99375 6.86346 2.142C6.83513 2.29024 6.83691 2.44267 6.86871 2.5902C6.90051 2.73774 6.96168 2.87737 7.04856 3.00078C7.13544 3.12419 7.24626 3.22886 7.37444 3.30855C7.62206 3.45898 7.91818 3.50806 8.2011 3.44559C8.48402 3.38311 8.73193 3.21389 8.89318 2.97317C9.05443 2.73245 9.1166 2.4388 9.06672 2.15339C9.01684 1.86798 8.85877 1.61281 8.62543 1.44105V1.43993ZM11.5617 1.47368C11.8862 1.25543 12.2766 1.15714 12.6657 1.19575C13.0548 1.23435 13.4183 1.40743 13.6936 1.68518C13.8897 1.88289 14.0343 2.12572 14.1148 2.39235C14.1952 2.65899 14.209 2.94129 14.1549 3.21449C14.1008 3.48769 13.9805 3.74344 13.8046 3.95932C13.6286 4.1752 13.4024 4.3446 13.1457 4.45268C12.8374 4.58157 12.4977 4.61552 12.17 4.55018C11.8423 4.48485 11.5416 4.3232 11.3063 4.08593C11.1295 3.9082 10.9941 3.69358 10.9099 3.45743C10.8258 3.22128 10.7948 2.96943 10.8193 2.71993C10.8438 2.47042 10.9232 2.22942 11.0517 2.01416C11.1803 1.79891 11.3548 1.61473 11.5628 1.4748L11.5617 1.47368ZM12.1017 3.28493C12.2073 3.3901 12.3504 3.44901 12.4994 3.44869C12.5732 3.44854 12.6463 3.43385 12.7144 3.40546C12.7826 3.37707 12.8444 3.33554 12.8965 3.28324C12.9486 3.23094 12.9898 3.1689 13.0179 3.10065C13.046 3.0324 13.0604 2.95929 13.0603 2.88548C13.0601 2.81168 13.0454 2.73863 13.017 2.6705C12.9886 2.60237 12.9471 2.5405 12.8948 2.48843C12.7901 2.38308 12.6485 2.32257 12.4999 2.31968C12.4257 2.31953 12.3523 2.33408 12.2837 2.36251C12.2152 2.39094 12.153 2.43267 12.1007 2.48529C12.0483 2.53791 12.007 2.60038 11.979 2.66908C11.951 2.73778 11.9368 2.81136 11.9374 2.88555C11.9378 3.03538 11.9967 3.17799 12.1017 3.28493ZM2.58869 13.0477H4.62494V14.1783H2.58869C2.23222 14.1751 1.89158 14.0307 1.64144 13.7767C1.39033 13.5218 1.24968 13.1782 1.24994 12.8204V10.7842C1.09847 10.7791 0.949601 10.7434 0.812318 10.6792C0.675035 10.615 0.552185 10.5237 0.451185 10.4107C0.343865 10.302 0.259639 10.1727 0.203573 10.0306C0.147506 9.88848 0.120758 9.7365 0.124935 9.5838V7.12905C0.12831 6.59805 0.338685 6.09068 0.709935 5.7138C1.08006 5.34143 1.58069 5.1288 2.10494 5.12543H4.17494C3.89572 5.45795 3.6854 5.84265 3.55619 6.25718H2.10494C1.87661 6.26372 1.65936 6.35706 1.49744 6.51818C1.33839 6.68171 1.24957 6.90093 1.24994 7.12905V9.64005H2.37494V12.8193C2.37233 12.85 2.37597 12.8808 2.38564 12.91C2.3953 12.9392 2.4108 12.9661 2.43119 12.9892C2.47641 13.0241 2.53156 13.0438 2.58869 13.0454V13.0477ZM10.8012 5.71493C10.6171 5.52905 10.3981 5.38139 10.1568 5.28042C9.91544 5.17944 9.65654 5.12715 9.39494 5.12655H6.60494C6.08048 5.13075 5.57898 5.34226 5.20994 5.71493C4.83869 6.0918 4.62831 6.59918 4.62494 7.13018V10.7054C4.62334 11.0124 4.7402 11.3082 4.95119 11.5312C5.05231 11.644 5.17519 11.7353 5.31244 11.7994C5.4497 11.8636 5.59851 11.8994 5.74994 11.9047V14.5181C5.74888 14.6964 5.78313 14.8732 5.85071 15.0383C5.91828 15.2034 6.01786 15.3535 6.14369 15.4799C6.34619 15.6689 6.60156 15.7916 6.87494 15.8309H9.12494C9.44137 15.7894 9.73128 15.6324 9.93894 15.39C10.1466 15.1477 10.2574 14.8371 10.2499 14.5181V11.9036C10.4014 11.8985 10.5503 11.8628 10.6876 11.7986C10.8248 11.7344 10.9477 11.643 11.0487 11.5301C11.1559 11.4215 11.2401 11.2924 11.2962 11.1505C11.3522 11.0086 11.379 10.8568 11.3749 10.7043V7.12905C11.3757 6.6005 11.1698 6.09372 10.8012 5.71493ZM10.2499 10.7606H9.12494V14.5181C9.12385 14.5773 9.09962 14.6339 9.05744 14.6756C9.03824 14.6983 9.01401 14.7162 8.98667 14.7279C8.95933 14.7396 8.92963 14.7448 8.89994 14.7431H7.08869C7.02989 14.7403 6.97424 14.7157 6.93263 14.6741C6.89101 14.6325 6.86642 14.5768 6.86369 14.5181V10.7606H5.74994V7.12905C5.74994 6.90068 5.83881 6.6813 5.99744 6.51818C6.15936 6.35706 6.37661 6.26372 6.60494 6.25718H9.39494C9.56536 6.26018 9.7312 6.31288 9.87209 6.40881C10.013 6.50474 10.1228 6.63972 10.1881 6.79718C10.2309 6.90249 10.2519 7.01538 10.2499 7.12905V10.7606ZM13.4112 14.1772H11.3749V13.0466H13.3999C13.4571 13.0449 13.5122 13.0252 13.5574 12.9903C13.5801 12.9682 13.5978 12.9415 13.6094 12.912C13.6211 12.8825 13.6264 12.851 13.6249 12.8193V9.64005H14.7499V7.12905C14.7503 6.90093 14.6615 6.68171 14.5024 6.51818C14.3405 6.35706 14.1233 6.26372 13.8949 6.25718H12.4437C12.3145 5.84263 12.1042 5.45791 11.8249 5.12543H13.8949C14.4193 5.13023 14.9205 5.34166 15.2899 5.7138C15.6612 6.09068 15.8716 6.59805 15.8749 7.12905V9.5838C15.8749 9.89093 15.7591 10.1857 15.5498 10.4084C15.3406 10.6323 15.0548 10.7662 14.7499 10.7831V12.8193C14.7499 13.1782 14.6093 13.5213 14.3584 13.7756C14.1083 14.0295 13.7676 14.174 13.4112 14.1772ZM3.49994 1.18793C3.16517 1.18754 2.83791 1.28713 2.56011 1.47393C2.2823 1.66074 2.06662 1.92625 1.94069 2.23643C1.81359 2.5465 1.7806 2.88712 1.84582 3.21582C1.91104 3.54452 2.07159 3.84674 2.30744 4.0848C2.5432 4.32259 2.84449 4.48469 3.17283 4.55041C3.50116 4.61613 3.84164 4.58248 4.15076 4.45376C4.45988 4.32504 4.72361 4.10709 4.90827 3.82776C5.09292 3.54843 5.19012 3.22039 5.18744 2.88555C5.18744 2.43555 5.00969 2.00355 4.69244 1.68518C4.53622 1.52783 4.35045 1.4029 4.1458 1.31756C3.94115 1.23223 3.72166 1.18817 3.49994 1.18793ZM3.49994 3.45143C3.42574 3.45158 3.35225 3.43702 3.28372 3.40859C3.21518 3.38017 3.15296 3.33844 3.10065 3.28582C3.04835 3.2332 3.00699 3.17073 2.97897 3.10202C2.95096 3.03332 2.93684 2.95975 2.93744 2.88555C2.93773 2.73615 2.99698 2.59289 3.10231 2.48693C3.20764 2.38097 3.35053 2.32086 3.49994 2.31968C3.64888 2.3223 3.79094 2.38287 3.89597 2.48852C4.00099 2.59417 4.0607 2.73659 4.06244 2.88555C4.06214 3.03496 4.00289 3.17821 3.89756 3.28417C3.79223 3.39014 3.64934 3.45024 3.49994 3.45143Z" fill="#824548"/>
</svg>
