<svg width="30" height="30" viewBox="0 0 30 30" fill="none" xmlns="http://www.w3.org/2000/svg">
<path d="M24.375 3.75H21.5625V2.8125C21.5625 2.56386 21.4637 2.3254 21.2879 2.14959C21.1121 1.97377 20.8736 1.875 20.625 1.875C20.3764 1.875 20.1379 1.97377 19.9621 2.14959C19.7863 2.3254 19.6875 2.56386 19.6875 2.8125V3.75H10.3125V2.8125C10.3125 2.56386 10.2137 2.3254 10.0379 2.14959C9.8621 1.97377 9.62364 1.875 9.375 1.875C9.12636 1.875 8.8879 1.97377 8.71209 2.14959C8.53627 2.3254 8.4375 2.56386 8.4375 2.8125V3.75H5.625C5.12772 3.75 4.65081 3.94754 4.29917 4.29917C3.94754 4.65081 3.75 5.12772 3.75 5.625V24.375C3.75 24.8723 3.94754 25.3492 4.29917 25.7008C4.65081 26.0525 5.12772 26.25 5.625 26.25H24.375C24.8723 26.25 25.3492 26.0525 25.7008 25.7008C26.0525 25.3492 26.25 24.8723 26.25 24.375V5.625C26.25 5.12772 26.0525 4.65081 25.7008 4.29917C25.3492 3.94754 24.8723 3.75 24.375 3.75ZM8.4375 5.625V6.5625C8.4375 6.81114 8.53627 7.0496 8.71209 7.22541C8.8879 7.40123 9.12636 7.5 9.375 7.5C9.62364 7.5 9.8621 7.40123 10.0379 7.22541C10.2137 7.0496 10.3125 6.81114 10.3125 6.5625V5.625H19.6875V6.5625C19.6875 6.81114 19.7863 7.0496 19.9621 7.22541C20.1379 7.40123 20.3764 7.5 20.625 7.5C20.8736 7.5 21.1121 7.40123 21.2879 7.22541C21.4637 7.0496 21.5625 6.81114 21.5625 6.5625V5.625H24.375V9.375H5.625V5.625H8.4375ZM24.375 24.375H5.625V11.25H24.375V24.375ZM13.125 14.0625V21.5625C13.125 21.8111 13.0262 22.0496 12.8504 22.2254C12.6746 22.4012 12.4361 22.5 12.1875 22.5C11.9389 22.5 11.7004 22.4012 11.5246 22.2254C11.3488 22.0496 11.25 21.8111 11.25 21.5625V15.5789L10.732 15.8391C10.5095 15.9503 10.2519 15.9686 10.0158 15.89C9.77981 15.8113 9.5847 15.6421 9.47344 15.4195C9.36217 15.197 9.34386 14.9394 9.42254 14.7033C9.50122 14.4673 9.67044 14.2722 9.89297 14.1609L11.768 13.2234C11.911 13.1519 12.0699 13.1181 12.2296 13.1253C12.3893 13.1325 12.5445 13.1804 12.6805 13.2644C12.8165 13.3485 12.9287 13.466 13.0065 13.6057C13.0843 13.7454 13.1251 13.9026 13.125 14.0625ZM20.0578 17.6309L17.8125 20.625H19.6875C19.9361 20.625 20.1746 20.7238 20.3504 20.8996C20.5262 21.0754 20.625 21.3139 20.625 21.5625C20.625 21.8111 20.5262 22.0496 20.3504 22.2254C20.1746 22.4012 19.9361 22.5 19.6875 22.5H15.9375C15.7634 22.5 15.5927 22.4515 15.4446 22.36C15.2965 22.2685 15.1768 22.1375 15.099 21.9818C15.0211 21.826 14.9882 21.6517 15.0038 21.4783C15.0194 21.3049 15.083 21.1393 15.1875 21L18.5602 16.5035C18.6369 16.4014 18.6919 16.2847 18.7219 16.1605C18.7519 16.0363 18.7562 15.9074 18.7345 15.7815C18.7128 15.6556 18.6657 15.5355 18.5959 15.4285C18.5262 15.3215 18.4353 15.2299 18.3288 15.1592C18.2224 15.0886 18.1027 15.0405 17.977 15.0178C17.8513 14.9952 17.7222 14.9984 17.5978 15.0274C17.4734 15.0564 17.3563 15.1105 17.2535 15.1864C17.1508 15.2623 17.0647 15.3584 17.0004 15.4688C16.9406 15.5788 16.8595 15.6757 16.7617 15.7538C16.6639 15.832 16.5514 15.8897 16.4309 15.9237C16.3104 15.9577 16.1843 15.9672 16.0601 15.9516C15.9359 15.9361 15.816 15.8958 15.7076 15.8332C15.5992 15.7706 15.5044 15.6869 15.4289 15.587C15.3534 15.4872 15.2986 15.3732 15.2678 15.2519C15.237 15.1305 15.2309 15.0043 15.2497 14.8805C15.2685 14.7567 15.3119 14.638 15.3773 14.5312C15.687 13.9953 16.1648 13.5766 16.7367 13.3398C17.3086 13.1031 17.9426 13.0616 18.5405 13.2218C19.1384 13.382 19.6667 13.735 20.0435 14.226C20.4204 14.7169 20.6248 15.3185 20.625 15.9375C20.627 16.5489 20.4277 17.144 20.0578 17.6309Z" fill="#5BA3BA"/>
</svg>
