<svg width="19" height="18" viewBox="0 0 19 18" fill="none" xmlns="http://www.w3.org/2000/svg">
<path d="M15.7859 5.32934L13.1915 2.73322C11.4179 0.95697 10.5315 0.0705957 9.57864 0.280596C8.62664 0.490596 8.19527 1.66922 7.33164 4.0256L6.74714 5.62072C6.51702 6.24897 6.40152 6.5631 6.19414 6.80634C6.10122 6.91551 5.99545 7.01304 5.87914 7.09684C5.62014 7.28322 5.29814 7.37159 4.65414 7.54922C3.20164 7.94997 2.47452 8.15034 2.20064 8.62547C2.08217 8.83109 2.02056 9.06454 2.02214 9.30184C2.02564 9.85047 2.55852 10.3833 3.62339 11.45L4.86239 12.689L0.945893 16.609C0.826548 16.7355 0.761208 16.9035 0.763743 17.0774C0.766278 17.2513 0.836489 17.4174 0.959471 17.5404C1.08245 17.6634 1.24852 17.7336 1.42243 17.7361C1.59633 17.7387 1.76438 17.6733 1.89089 17.554L5.80652 13.634L7.08927 14.9185C8.16202 15.9912 8.69839 16.5285 9.25052 16.5285C9.48239 16.5285 9.71077 16.469 9.91289 16.3535C10.3924 16.0796 10.5936 15.3481 10.997 13.8842C11.1738 13.2411 11.2621 12.92 11.4476 12.6601C11.529 12.5472 11.6235 12.444 11.7294 12.3521C11.97 12.1438 12.2824 12.0266 12.9063 11.7921L14.5198 11.1857C16.8508 10.3107 18.0163 9.87234 18.221 8.92297C18.4266 7.97272 17.5473 7.09159 15.7859 5.32934Z" fill="black" fill-opacity="0.6"/>
</svg>
