<svg width="12" height="12" viewBox="0 0 12 12" fill="none" xmlns="http://www.w3.org/2000/svg">
<path d="M0 5.33333H5.33037V0H0V5.33333ZM1.33259 1.33333H3.99778V4H1.33259V1.33333ZM0 12H5.33037V6.66667H0V12ZM1.33259 8H3.99778V10.6667H1.33259V8ZM6.66296 0V5.33333H11.9933V0H6.66296ZM10.6607 4H7.99556V1.33333H10.6607V4ZM6.66963 6.66667H8.00222V8H6.66963V6.66667ZM8.00222 8H9.33481V9.33333H8.00222V8ZM6.66963 9.33333H8.00222V10.6667H6.66963V9.33333ZM9.33481 9.33333H10.6674V10.6667H9.33481V9.33333ZM10.6674 10.6667H12V12H10.6674V10.6667ZM8.00222 10.6667H9.33481V12H8.00222V10.6667ZM9.33481 6.66667H10.6674V8H9.33481V6.66667ZM10.6674 8H12V9.33333H10.6674V8Z" fill="#E23C46"/>
</svg>
