<svg width="45" height="45" viewBox="0 0 45 45" fill="none" xmlns="http://www.w3.org/2000/svg">
<path d="M11.5 17C11.5 16.2707 11.7897 15.5712 12.3055 15.0555C12.8212 14.5397 13.5207 14.25 14.25 14.25H22.5C23.2293 14.25 23.9288 14.5397 24.4445 15.0555C24.9603 15.5712 25.25 16.2707 25.25 17V28C25.25 28.7293 24.9603 29.4288 24.4445 29.9445C23.9288 30.4603 23.2293 30.75 22.5 30.75H14.25C13.5207 30.75 12.8212 30.4603 12.3055 29.9445C11.7897 29.4288 11.5 28.7293 11.5 28V17ZM28 19.75L31.1515 16.5985C31.3436 16.4059 31.5886 16.2746 31.8554 16.2212C32.1222 16.1679 32.3988 16.1949 32.6503 16.2988C32.9017 16.4028 33.1166 16.5789 33.2679 16.8051C33.4192 17.0312 33.4999 17.2972 33.5 17.5692V27.4308C33.4999 27.7028 33.4192 27.9688 33.2679 28.1949C33.1166 28.4211 32.9017 28.5972 32.6503 28.7012C32.3988 28.8051 32.1222 28.8321 31.8554 28.7788C31.5886 28.7254 31.3436 28.5941 31.1515 28.4015L28 25.25V19.75ZM22.5 0.5C25.8223 0.50192 29.101 1.25627 32.0901 2.70643C35.0792 4.15659 37.7011 6.26491 39.7589 8.87316C41.8168 11.4814 43.2571 14.5219 43.972 17.7664C44.6868 21.0109 44.6576 24.3751 43.8864 27.6067C43.1152 30.8382 41.6222 33.8532 39.5193 36.4252C37.4164 38.9973 34.7582 41.0597 31.7443 42.4576C28.7305 43.8556 25.4391 44.5528 22.1173 44.4969C18.7954 44.441 15.5294 43.6335 12.5643 42.135L12.2315 41.9563L2.20775 44.4588C2.01484 44.5073 1.8137 44.5133 1.61822 44.4766C1.42273 44.4398 1.23755 44.361 1.07546 44.2457C0.913367 44.1304 0.77822 43.9813 0.679344 43.8087C0.580467 43.6361 0.520216 43.4441 0.50275 43.246V43.0205L0.54125 42.7922L3.04375 32.7712L2.8705 32.4412C1.61206 29.9639 0.837397 27.2694 0.588 24.502L0.51925 23.4515L0.5 22.5C0.5 16.6652 2.81785 11.0695 6.94365 6.94365C11.0695 2.81785 16.6652 0.5 22.5 0.5ZM22.5 3.25C19.1408 3.24946 15.8399 4.12798 12.9253 5.79826C10.0108 7.46855 7.58407 9.87244 5.88632 12.7711C4.18857 15.6697 3.2789 18.9621 3.24771 22.3212C3.21651 25.6803 4.06488 28.9891 5.7085 31.9188C5.8361 32.1466 5.8962 32.406 5.88175 32.6667L5.84325 32.9253L3.76425 41.233L12.0802 39.1595C12.2493 39.1178 12.4247 39.1085 12.5973 39.132L12.8475 39.1898L13.0868 39.297C15.6534 40.7339 18.5153 41.5635 21.4526 41.722C24.3898 41.8806 27.3243 41.3639 30.0308 40.2116C32.7372 39.0593 35.1436 37.3021 37.0652 35.075C38.9867 32.8478 40.3723 30.2099 41.1155 27.3638C41.8587 24.5177 41.9398 21.5392 41.3526 18.6568C40.7653 15.7745 39.5253 13.0651 37.7278 10.7367C35.9303 8.40828 33.6231 6.52276 30.9833 5.22494C28.3436 3.92712 25.4415 3.25151 22.5 3.25Z" fill="#5BA3BA"/>
</svg>
