<svg width="17" height="17" viewBox="0 0 17 17" fill="none" xmlns="http://www.w3.org/2000/svg">
<path d="M8.50008 16.2917C4.56387 15.4169 1.41675 11.7031 1.41675 7.79168V3.54168L8.50008 0.708344L15.5834 3.54168V7.79168C15.5834 11.7045 12.4363 15.4169 8.50008 16.2917ZM2.83341 4.25001V7.79168C2.87389 9.42943 3.44992 11.0088 4.47333 12.2881C5.49674 13.5673 6.91115 14.476 8.50008 14.875C10.089 14.476 11.5034 13.5673 12.5268 12.2881C13.5502 11.0088 14.1263 9.42943 14.1667 7.79168V4.25001L8.50008 2.12501L2.83341 4.25001Z" fill="#5BA3BA"/>
<path d="M8.50008 7.79167C9.47809 7.79167 10.2709 6.99884 10.2709 6.02083C10.2709 5.04283 9.47809 4.25 8.50008 4.25C7.52208 4.25 6.72925 5.04283 6.72925 6.02083C6.72925 6.99884 7.52208 7.79167 8.50008 7.79167Z" fill="#5BA3BA"/>
<path d="M4.95825 10.625C5.30738 11.2612 5.8193 11.7933 6.4416 12.1666C7.0639 12.54 7.77425 12.7413 8.49992 12.75C9.22559 12.7413 9.93593 12.54 10.5582 12.1666C11.1805 11.7933 11.6925 11.2612 12.0416 10.625C12.0239 9.282 9.67434 8.5 8.49992 8.5C7.31913 8.5 4.97596 9.282 4.95825 10.625Z" fill="#5BA3BA"/>
</svg>
