<svg width="17" height="17" viewBox="0 0 17 17" fill="none" xmlns="http://www.w3.org/2000/svg">
<path d="M5.09433 9.64396H5.85083C5.92686 9.64396 5.99769 9.63097 6.06333 9.605C6.12944 9.57856 6.19319 9.5344 6.25458 9.47254L9.81608 5.91175C9.877 5.84186 9.92257 5.76867 9.95279 5.69217C9.98301 5.61519 9.99812 5.53893 9.99812 5.46337C9.99812 5.38782 9.98231 5.31321 9.95067 5.23954C9.91903 5.1654 9.87417 5.09339 9.81608 5.0235L9.16442 4.35058C9.10397 4.28967 9.03361 4.2441 8.95333 4.21387C8.87353 4.18365 8.79467 4.16854 8.71675 4.16854C8.64119 4.16854 8.56517 4.18365 8.48867 4.21387C8.41169 4.2441 8.3385 4.28967 8.26908 4.35058L4.69342 7.91208C4.63203 7.97394 4.58788 8.03769 4.56096 8.10333C4.53499 8.16944 4.522 8.24051 4.522 8.31654V9.07304C4.522 9.23737 4.57631 9.37385 4.68492 9.48246C4.79353 9.59107 4.92976 9.64537 5.09362 9.64537M5.14817 9.0185V8.34558L7.5905 5.90325L7.91775 6.24892L8.25067 6.58892L5.82108 9.0185H5.14817ZM7.91775 6.24892L8.25067 6.58892L7.5905 5.90325L7.91775 6.24892ZM8.364 9.64467H12.1224C12.2235 9.64467 12.3078 9.6109 12.3753 9.54337C12.4428 9.47585 12.4766 9.39156 12.4766 9.2905C12.4766 9.18992 12.4428 9.10586 12.3753 9.03833C12.3078 8.97033 12.2235 8.93633 12.1224 8.93633H9.07375L8.364 9.64467ZM4.30525 12.0417L3.09825 13.2487C2.91928 13.4276 2.71244 13.4687 2.47775 13.3719C2.24258 13.2751 2.125 13.0992 2.125 12.8442V3.26896C2.125 2.94312 2.23432 2.67113 2.45296 2.45296C2.67113 2.23432 2.94312 2.125 3.26896 2.125H13.731C14.0569 2.125 14.3289 2.23432 14.547 2.45296C14.7657 2.67113 14.875 2.94312 14.875 3.26896V10.8977C14.875 11.2235 14.7659 11.4958 14.5477 11.7144C14.3291 11.9326 14.0569 12.0417 13.731 12.0417H4.30525ZM4.00279 11.3333H13.7317C13.8404 11.3333 13.9402 11.288 14.0314 11.1973C14.122 11.1062 14.1674 11.0063 14.1674 10.8977V3.26896C14.1674 3.16035 14.122 3.06047 14.0314 2.96933C13.9398 2.87867 13.8397 2.83333 13.731 2.83333H3.26896C3.16035 2.83333 3.06047 2.87867 2.96933 2.96933C2.87867 3.06047 2.83333 3.16035 2.83333 3.26896V12.4985L4.00279 11.3333Z" fill="#E23C46"/>
</svg>
