<svg width="24" height="24" viewBox="0 0 24 24" fill="none" xmlns="http://www.w3.org/2000/svg">
<path d="M11.6667 0.603644C18.1102 0.603644 23.3333 5.82681 23.3333 12.2703C23.3333 18.7138 18.1102 23.937 11.6667 23.937C5.22317 23.937 0 18.7138 0 12.2703H2.33333C2.33351 14.4651 3.10714 16.5896 4.5183 18.2706C5.92946 19.9515 7.88788 21.0814 10.0495 21.4617C12.211 21.842 14.4375 21.4484 16.3376 20.35C18.2378 19.2516 19.6901 17.5187 20.4393 15.4558C21.1886 13.3928 21.1868 11.1318 20.4345 9.07005C19.6821 7.00826 18.2272 5.27757 16.3253 4.18206C14.4235 3.08655 12.1965 2.69631 10.0355 3.07989C7.87446 3.46348 5.91777 4.59636 4.50917 6.27948L7 8.77031H0V1.77031L2.85483 4.62398C3.94888 3.36051 5.30219 2.34747 6.82272 1.65374C8.34326 0.960006 9.99536 0.601856 11.6667 0.603644ZM7.58333 8.18698H9.33333V16.3536H7.58333V8.18698ZM17.2083 8.18698H11.6667V13.1453H15.0208C15.2142 13.1453 15.3997 13.2221 15.5364 13.3589C15.6732 13.4956 15.75 13.6811 15.75 13.8745C15.75 14.0679 15.6732 14.2533 15.5364 14.3901C15.3997 14.5268 15.2142 14.6036 15.0208 14.6036H11.6667V16.3536H15.0208C15.6784 16.3536 16.3089 16.0924 16.7739 15.6275C17.2388 15.1626 17.5 14.532 17.5 13.8745C17.5 13.217 17.2388 12.5864 16.7739 12.1214C16.3089 11.6565 15.6784 11.3953 15.0208 11.3953H13.4167V9.93698H17.2083V8.18698Z" fill="black"/>
</svg>
