<svg width="13" height="17" viewBox="0 0 13 17" fill="none" xmlns="http://www.w3.org/2000/svg">
<path d="M2.72211 16.1273H10.278C11.7509 16.1273 12.4837 15.3802 12.4837 13.9003V7.43996C12.4837 6.52196 12.3842 6.12368 11.815 5.54021L7.88738 1.54886C7.34702 0.993624 6.90563 0.872803 6.10177 0.872803H2.72211C1.25646 0.872803 0.516357 1.62687 0.516357 3.10709V13.9003C0.516357 15.3872 1.25646 16.1273 2.72211 16.1273ZM2.77888 14.9819C2.04605 14.9819 1.66173 14.5903 1.66173 13.879V3.12834C1.66173 2.42405 2.04605 2.01818 2.78616 2.01818H5.94513V6.15221C5.94513 7.04866 6.40048 7.48975 7.28266 7.48975H11.3384V13.879C11.3384 14.5903 10.961 14.9819 10.2212 14.9819H2.77888ZM7.41077 6.41511C7.1333 6.41511 7.01916 6.30157 7.01916 6.01682V2.23887L11.1174 6.41541L7.41077 6.41511Z" fill="#5BA3BA"/>
</svg>
