<svg width="19" height="19" viewBox="0 0 19 19" fill="none" xmlns="http://www.w3.org/2000/svg">
<path fill-rule="evenodd" clip-rule="evenodd" d="M0.833252 8.74992C0.833252 4.37768 4.37768 0.833252 8.74992 0.833252C13.1222 0.833252 16.6666 4.37768 16.6666 8.74992C16.6666 10.6359 16.0071 12.3678 14.9062 13.7277L17.9671 16.7886C18.2926 17.1141 18.2926 17.6417 17.9671 17.9671C17.6417 18.2926 17.1141 18.2926 16.7886 17.9671L13.7277 14.9062C12.3678 16.0071 10.6359 16.6666 8.74992 16.6666C4.37768 16.6666 0.833252 13.1222 0.833252 8.74992ZM8.74992 2.49992C5.29816 2.49992 2.49992 5.29816 2.49992 8.74992C2.49992 12.2017 5.29816 14.9999 8.74992 14.9999C12.2017 14.9999 14.9999 12.2017 14.9999 8.74992C14.9999 5.29816 12.2017 2.49992 8.74992 2.49992ZM5.80364 5.38693C6.55678 4.63385 7.59957 4.16659 8.74992 4.16659C9.90026 4.16659 10.9431 4.63385 11.6962 5.38695C12.0216 5.71239 12.0216 6.24003 11.6962 6.56547C11.3707 6.8909 10.8431 6.8909 10.5177 6.56547C10.0644 6.11215 9.4405 5.83325 8.74992 5.83325C8.05935 5.83325 7.43548 6.11215 6.98211 6.56549C6.65666 6.89091 6.12903 6.89089 5.8036 6.56545C5.47818 6.24 5.47819 5.71236 5.80364 5.38693Z" fill="black" fill-opacity="0.4"/>
</svg>
