<svg width="16" height="16" viewBox="0 0 16 16" fill="none" xmlns="http://www.w3.org/2000/svg">
<path d="M15.2129 9.87627L14.0615 8.89189C14.116 8.55791 14.1441 8.21689 14.1441 7.87588C14.1441 7.53486 14.116 7.19385 14.0615 6.85986L15.2129 5.87549C15.2997 5.80114 15.3619 5.70213 15.3911 5.5916C15.4203 5.48107 15.4152 5.36427 15.3764 5.25674L15.3606 5.21103C15.0436 4.32514 14.5689 3.50391 13.9596 2.78701L13.9279 2.7501C13.854 2.66318 13.7555 2.60069 13.6453 2.57088C13.5352 2.54107 13.4186 2.54533 13.3109 2.58311L11.8818 3.09111C11.3545 2.65869 10.7656 2.31768 10.1293 2.07861L9.85332 0.584473C9.8325 0.472047 9.77797 0.368618 9.69696 0.287926C9.61595 0.207234 9.51231 0.1531 9.39981 0.132715L9.35235 0.123926C8.43653 -0.0413086 7.47325 -0.0413086 6.55743 0.123926L6.50996 0.132715C6.39746 0.1531 6.29382 0.207234 6.21281 0.287926C6.13181 0.368618 6.07727 0.472047 6.05645 0.584473L5.77871 2.08564C5.14746 2.32476 4.55961 2.66559 4.03848 3.09463L2.59883 2.58311C2.49119 2.54503 2.37452 2.54062 2.26431 2.57045C2.1541 2.60028 2.05558 2.66294 1.98184 2.7501L1.9502 2.78701C1.34155 3.50442 0.866993 4.32551 0.549222 5.21103L0.533402 5.25674C0.4543 5.47646 0.51934 5.72256 0.696879 5.87549L1.86231 6.87041C1.80782 7.20088 1.78145 7.53838 1.78145 7.87412C1.78145 8.21162 1.80782 8.54912 1.86231 8.87783L0.696879 9.87275C0.610035 9.9471 0.54788 10.0461 0.518679 10.1566C0.489477 10.2672 0.494612 10.384 0.533402 10.4915L0.549222 10.5372C0.867386 11.4231 1.33848 12.2405 1.9502 12.9612L1.98184 12.9981C2.05576 13.0851 2.15429 13.1475 2.26443 13.1774C2.37457 13.2072 2.49116 13.2029 2.59883 13.1651L4.03848 12.6536C4.56231 13.0843 5.14766 13.4253 5.77871 13.6626L6.05645 15.1638C6.07727 15.2762 6.13181 15.3796 6.21281 15.4603C6.29382 15.541 6.39746 15.5951 6.50996 15.6155L6.55743 15.6243C7.48166 15.7904 8.42811 15.7904 9.35235 15.6243L9.39981 15.6155C9.51231 15.5951 9.61595 15.541 9.69696 15.4603C9.77797 15.3796 9.8325 15.2762 9.85332 15.1638L10.1293 13.6696C10.7654 13.4312 11.3576 13.0891 11.8818 12.6571L13.3109 13.1651C13.4186 13.2032 13.5353 13.2076 13.6455 13.1778C13.7557 13.148 13.8542 13.0853 13.9279 12.9981L13.9596 12.9612C14.5713 12.2388 15.0424 11.4231 15.3606 10.5372L15.3764 10.4915C15.4555 10.2753 15.3904 10.0292 15.2129 9.87627ZM12.8135 7.06728C12.8574 7.33271 12.8803 7.60518 12.8803 7.87764C12.8803 8.1501 12.8574 8.42256 12.8135 8.68799L12.6975 9.39287L14.0106 10.5161C13.8115 10.9747 13.5602 11.4088 13.2617 11.8099L11.6305 11.2315L11.0785 11.6851C10.6584 12.0296 10.1908 12.3003 9.68457 12.4901L9.01485 12.7415L8.7002 14.4466C8.20374 14.5028 7.70252 14.5028 7.20606 14.4466L6.89141 12.738L6.22696 12.4831C5.72598 12.2933 5.26016 12.0226 4.84356 11.6798L4.29161 11.2245L2.64981 11.8081C2.35098 11.4056 2.10137 10.9714 1.90098 10.5144L3.22813 9.38057L3.11387 8.67744C3.07168 8.41553 3.04883 8.14482 3.04883 7.87764C3.04883 7.60869 3.06993 7.33975 3.11387 7.07783L3.22813 6.37471L1.90098 5.24092C2.09961 4.78213 2.35098 4.34971 2.64981 3.94717L4.29161 4.53076L4.84356 4.07549C5.26016 3.73271 5.72598 3.46201 6.22696 3.27217L6.89317 3.0208L7.20782 1.31221C7.70176 1.25596 8.20625 1.25596 8.70196 1.31221L9.0166 3.01728L9.68633 3.26865C10.1908 3.4585 10.6602 3.7292 11.0803 4.07373L11.6322 4.52725L13.2635 3.94893C13.5623 4.35146 13.8119 4.78564 14.0123 5.24268L12.6992 6.36592L12.8135 7.06728ZM7.95664 4.6081C6.24805 4.6081 4.86289 5.99326 4.86289 7.70185C4.86289 9.41045 6.24805 10.7956 7.95664 10.7956C9.66524 10.7956 11.0504 9.41045 11.0504 7.70185C11.0504 5.99326 9.66524 4.6081 7.95664 4.6081ZM9.34883 9.09404C9.16623 9.27717 8.94923 9.42238 8.71031 9.52133C8.47138 9.62028 8.21525 9.67101 7.95664 9.6706C7.43106 9.6706 6.93711 9.46494 6.56446 9.09404C6.38133 8.91144 6.23612 8.69444 6.13717 8.45552C6.03822 8.21659 5.98749 7.96046 5.98789 7.70185C5.98789 7.17627 6.19356 6.68232 6.56446 6.30967C6.93711 5.93701 7.43106 5.7331 7.95664 5.7331C8.48223 5.7331 8.97618 5.93701 9.34883 6.30967C9.53195 6.49227 9.67717 6.70927 9.77612 6.94819C9.87506 7.18712 9.9258 7.44325 9.92539 7.70185C9.92539 8.22744 9.71973 8.72139 9.34883 9.09404Z" fill="#625F5F"/>
</svg>
