<svg width="43" height="43" viewBox="0 0 43 43" fill="none" xmlns="http://www.w3.org/2000/svg">
<path d="M37.625 22.8438H24.1875C23.4751 22.8448 22.7921 23.1283 22.2883 23.6321C21.7846 24.1359 21.5011 24.8188 21.5 25.5312V33.5938C21.5011 34.3062 21.7846 34.9891 22.2883 35.4929C22.7921 35.9967 23.4751 36.2802 24.1875 36.2812H29.5625V33.5938H24.1875V25.5312H37.625V33.5938H34.2186L30.7329 38.8209L32.9689 40.3125L35.6564 36.2812H37.625C38.3374 36.2802 39.0204 35.9967 39.5242 35.4929C40.0279 34.9891 40.3114 34.3062 40.3125 33.5938V25.5312C40.3114 24.8188 40.0279 24.1359 39.5242 23.6321C39.0204 23.1283 38.3374 22.8448 37.625 22.8438ZM11.6463 32.3965L12.8032 31.2382C12.9583 31.0832 13.1554 30.9771 13.3702 30.9332C13.5849 30.8892 13.8078 30.9093 14.0113 30.9909L15.4222 31.5553C15.6297 31.6385 15.8075 31.7819 15.9327 31.967C16.058 32.1521 16.125 32.3705 16.125 32.594V35.1579C16.1254 35.3103 16.0947 35.4613 16.0347 35.6014C15.9747 35.7416 15.8867 35.868 15.7761 35.9729C15.6655 36.0779 15.5346 36.1591 15.3915 36.2117C15.2484 36.2642 15.0961 36.287 14.9438 36.2786C5.06191 35.6645 3.06509 27.2943 2.69556 24.0881C2.67775 23.9314 2.69326 23.7728 2.74108 23.6226C2.78889 23.4724 2.86792 23.334 2.97299 23.2165C3.07806 23.099 3.20678 23.0051 3.35072 22.9408C3.49466 22.8766 3.65056 22.8435 3.80819 22.8438H6.32638C6.55023 22.8438 6.76894 22.9109 6.95432 23.0364C7.13969 23.1619 7.28323 23.3401 7.36644 23.5479L7.93081 24.9588C8.01213 25.1621 8.03204 25.3847 7.98809 25.5992C7.94415 25.8137 7.83827 26.0106 7.68356 26.1655L6.52525 27.3225C6.72641 28.6035 7.33164 29.7866 8.25264 30.6994C9.17363 31.6122 10.3635 32.2068 11.6463 32.3965ZM28.2188 12.0938H37.625V14.7812H28.2188V12.0938ZM28.2188 6.71875H40.3125V9.40625H28.2188V6.71875ZM22.8438 8.0625L18.8125 11.0187V8.0625C18.8118 7.34995 18.5284 6.66679 18.0246 6.16294C17.5207 5.65909 16.8376 5.37571 16.125 5.375H5.375C4.66245 5.37571 3.97929 5.65909 3.47544 6.16294C2.97159 6.66679 2.68821 7.34995 2.6875 8.0625V16.125C2.68821 16.8376 2.97159 17.5207 3.47544 18.0246C3.97929 18.5284 4.66245 18.8118 5.375 18.8125H16.125C16.8376 18.8118 17.5207 18.5284 18.0246 18.0246C18.5284 17.5207 18.8118 16.8376 18.8125 16.125V13.1688L22.8438 16.125V8.0625ZM5.375 16.125V8.0625H16.125V16.125H5.375Z" fill="#E23C46"/>
</svg>
