<svg width="29" height="28" viewBox="0 0 29 28" fill="none" xmlns="http://www.w3.org/2000/svg">
<path d="M19.1668 8.55566H10.2393H9.8335V14.7103L13.4857 18.6668H15.9205L19.1668 15.1499V8.55566Z" fill="white" fill-opacity="0.8"/>
<path d="M14.5002 18.0833C17.0785 18.0833 19.1668 15.9949 19.1668 13.4166V6.99992C19.1668 4.42159 17.0785 2.33325 14.5002 2.33325C11.9218 2.33325 9.8335 4.42159 9.8335 6.99992V13.4166C9.8335 15.9949 11.9218 18.0833 14.5002 18.0833Z" stroke="white" stroke-width="2.25" stroke-linecap="round" stroke-linejoin="round"/>
<path d="M5.57568 11.2583V13.2416C5.57568 18.165 9.57735 22.1666 14.5007 22.1666C19.424 22.1666 23.4257 18.165 23.4257 13.2416V11.2583" stroke="white" stroke-width="2.25" stroke-linecap="round" stroke-linejoin="round"/>
<path d="M14.5 22.1667V25.6667" stroke="white" stroke-width="2.25" stroke-linecap="round" stroke-linejoin="round"/>
</svg>
