<svg width="19" height="19" viewBox="0 0 19 19" fill="none" xmlns="http://www.w3.org/2000/svg">
<path fill-rule="evenodd" clip-rule="evenodd" d="M0.821289 9.29159C0.821289 4.58937 4.63319 0.777466 9.33541 0.777466C9.54069 0.777466 9.73757 0.859013 9.88272 1.00417L17.6228 8.74428C17.768 8.88944 17.8495 9.08631 17.8495 9.29159C17.8495 13.9938 14.0376 17.8057 9.33541 17.8057C4.63319 17.8057 0.821289 13.9938 0.821289 9.29159ZM8.3189 2.39912C4.95345 2.89116 2.36931 5.7896 2.36931 9.29159C2.36931 13.1389 5.48814 16.2577 9.33541 16.2577C12.8625 16.2577 15.7773 13.6364 16.2381 10.2357C15.8159 10.2895 15.2874 10.3283 14.7012 10.307C13.2563 10.2544 11.3784 9.8309 9.92924 8.27024C8.49673 6.72754 8.17182 4.96212 8.19874 3.61616C8.20789 3.15863 8.25745 2.74551 8.3189 2.39912ZM9.78244 3.09313L15.4433 8.75396C15.2291 8.76523 14.9988 8.76874 14.7574 8.75997C13.5416 8.71576 12.13 8.36527 11.0636 7.21689C9.9806 6.05056 9.725 4.71993 9.74645 3.64711C9.75036 3.45173 9.76353 3.26607 9.78244 3.09313Z" fill="black" fill-opacity="0.4"/>
</svg>
