<svg width="25" height="24" viewBox="0 0 25 24" fill="none" xmlns="http://www.w3.org/2000/svg">
<path d="M12.2383 22C10.8549 22 9.55495 21.7373 8.33828 21.212C7.12161 20.6867 6.06328 19.9743 5.16328 19.075C4.26328 18.175 3.55095 17.1167 3.02628 15.9C2.50161 14.6833 2.23895 13.3833 2.23828 12C2.23828 10.6167 2.50095 9.31667 3.02628 8.1C3.55161 6.88333 4.26395 5.825 5.16328 4.925C6.06328 4.025 7.12161 3.31267 8.33828 2.788C9.55495 2.26333 10.8549 2.00067 12.2383 2C13.3216 2 14.3466 2.15833 15.3133 2.475C16.2799 2.79167 17.1716 3.23333 17.9883 3.8L16.5383 5.275C15.9049 4.875 15.2299 4.56267 14.5133 4.338C13.7966 4.11333 13.0383 4.00067 12.2383 4C10.0216 4 8.13395 4.77933 6.57528 6.338C5.01661 7.89667 4.23761 9.784 4.23828 12C4.23828 14.2167 5.01761 16.1043 6.57628 17.663C8.13495 19.2217 10.0223 20.0007 12.2383 20C14.4549 20 16.3426 19.221 17.9013 17.663C19.4599 16.105 20.2389 14.2173 20.2383 12C20.2383 11.7 20.2216 11.4 20.1883 11.1C20.1549 10.8 20.1049 10.5083 20.0383 10.225L21.6633 8.6C21.8466 9.13333 21.9883 9.68333 22.0883 10.25C22.1883 10.8167 22.2383 11.4 22.2383 12C22.2383 13.3833 21.9756 14.6833 21.4503 15.9C20.9249 17.1167 20.2126 18.175 19.3133 19.075C18.4133 19.975 17.3549 20.6877 16.1383 21.213C14.9216 21.7383 13.6216 22.0007 12.2383 22ZM10.8383 16.6L6.58828 12.35L7.98828 10.95L10.8383 13.8L20.8383 3.775L22.2383 5.175L10.8383 16.6Z" fill="black"/>
</svg>
