<svg width="25" height="24" viewBox="0 0 25 24" fill="none" xmlns="http://www.w3.org/2000/svg">
<path d="M14.6835 23.3166C13.8668 23.5499 12.9335 23.6666 12.0002 23.6666C5.5835 23.6666 0.333496 18.4166 0.333496 11.9999C0.333496 5.58325 5.5835 0.333252 12.0002 0.333252C13.5168 0.333252 15.0335 0.683252 16.4335 1.14992L14.5668 3.01659C13.7502 2.78325 12.9335 2.66659 12.0002 2.66659C6.86683 2.66659 2.66683 6.86659 2.66683 11.9999C2.66683 17.1333 6.86683 21.3333 12.0002 21.3333C12.4668 21.3333 13.0502 21.3333 13.5168 21.2166C13.7502 22.0333 14.2168 22.7333 14.6835 23.3166ZM7.21683 9.78325L5.5835 11.4166L10.8335 16.6666L22.5002 4.99992L20.8668 3.36659L10.8335 13.3999L7.21683 9.78325ZM15.5002 17.8333V20.1666H24.8335V17.8333H15.5002Z" fill="#4CD964"/>
</svg>
