<svg width="15" height="16" viewBox="0 0 15 16" fill="none" xmlns="http://www.w3.org/2000/svg">
<path d="M4.5 0.5H10.5C11.6935 0.5 12.8381 0.974106 13.682 1.81802C14.5259 2.66193 15 3.80653 15 5V11C15 12.1935 14.5259 13.3381 13.682 14.182C12.8381 15.0259 11.6935 15.5 10.5 15.5H4.5C3.30653 15.5 2.16193 15.0259 1.31802 14.182C0.474106 13.3381 0 12.1935 0 11L0 5C0 3.80653 0.474106 2.66193 1.31802 1.81802C2.16193 0.974106 3.30653 0.5 4.5 0.5ZM4.5 2C3.70435 2 2.94129 2.31607 2.37868 2.87868C1.81607 3.44129 1.5 4.20435 1.5 5V11C1.5 11.7956 1.81607 12.5587 2.37868 13.1213C2.94129 13.6839 3.70435 14 4.5 14H10.5C11.2956 14 12.0587 13.6839 12.6213 13.1213C13.1839 12.5587 13.5 11.7956 13.5 11V5C13.5 4.20435 13.1839 3.44129 12.6213 2.87868C12.0587 2.31607 11.2956 2 10.5 2H4.5ZM9 7.25H11.25C11.4489 7.25 11.6397 7.32902 11.7803 7.46967C11.921 7.61032 12 7.80109 12 8C12 8.19891 11.921 8.38968 11.7803 8.53033C11.6397 8.67098 11.4489 8.75 11.25 8.75H9C8.80109 8.75 8.61032 8.67098 8.46967 8.53033C8.32902 8.38968 8.25 8.19891 8.25 8C8.25 7.80109 8.32902 7.61032 8.46967 7.46967C8.61032 7.32902 8.80109 7.25 9 7.25ZM7.5 10.25H11.25C11.4489 10.25 11.6397 10.329 11.7803 10.4697C11.921 10.6103 12 10.8011 12 11C12 11.1989 11.921 11.3897 11.7803 11.5303C11.6397 11.671 11.4489 11.75 11.25 11.75H7.5C7.30109 11.75 7.11032 11.671 6.96967 11.5303C6.82902 11.3897 6.75 11.1989 6.75 11C6.75 10.8011 6.82902 10.6103 6.96967 10.4697C7.11032 10.329 7.30109 10.25 7.5 10.25ZM7.5 4.25H11.25C11.4489 4.25 11.6397 4.32902 11.7803 4.46967C11.921 4.61032 12 4.80109 12 5C12 5.19891 11.921 5.38968 11.7803 5.53033C11.6397 5.67098 11.4489 5.75 11.25 5.75H7.5C7.30109 5.75 7.11032 5.67098 6.96967 5.53033C6.82902 5.38968 6.75 5.19891 6.75 5C6.75 4.80109 6.82902 4.61032 6.96967 4.46967C7.11032 4.32902 7.30109 4.25 7.5 4.25ZM4.371 8.18225L5.9625 6.59C6.03218 6.52037 6.1149 6.46514 6.20592 6.42747C6.29695 6.38981 6.3945 6.37044 6.49302 6.37047C6.59153 6.37051 6.68907 6.38995 6.78007 6.42768C6.87107 6.46541 6.95374 6.52069 7.02338 6.59037C7.09301 6.66006 7.14823 6.74277 7.1859 6.8338C7.22357 6.92483 7.24294 7.02238 7.2429 7.12089C7.24287 7.2194 7.22343 7.31694 7.1857 7.40794C7.14797 7.49894 7.09268 7.58162 7.023 7.65125L4.902 9.77225C4.83235 9.84198 4.74963 9.8973 4.65858 9.93505C4.56753 9.97279 4.46994 9.99221 4.37138 9.99221C4.27281 9.99221 4.17522 9.97279 4.08417 9.93505C3.99312 9.8973 3.9104 9.84198 3.84075 9.77225L2.78025 8.7125C2.64363 8.57105 2.56804 8.3816 2.56974 8.18495C2.57145 7.9883 2.65033 7.80019 2.78939 7.66114C2.92844 7.52208 3.11655 7.4432 3.3132 7.44149C3.50985 7.43979 3.6993 7.51538 3.84075 7.652L4.371 8.18225Z" fill="#625F5F"/>
</svg>
