<svg width="18" height="20" viewBox="0 0 18 20" fill="none" xmlns="http://www.w3.org/2000/svg">
<path d="M9.00527 10.0104C11.4574 10.0104 13.4563 7.72134 13.4563 4.93515C13.4563 2.17062 11.478 0 9.00527 0C6.56328 0 4.55429 2.21393 4.55429 4.9568C4.5644 7.73193 6.56328 10.0104 9.00527 10.0104ZM9.00527 8.37976C7.50095 8.37976 6.21291 6.86848 6.21291 4.95634C6.21291 3.07785 7.48029 1.63061 9.00527 1.63061C10.5505 1.63061 11.7972 3.05619 11.7972 4.93515C11.7972 6.84636 10.5298 8.37976 9.00527 8.37976ZM2.53475 20H15.4758C17.1859 20 18 19.4595 18 18.2722C18 15.4422 14.5997 11.3498 9.00527 11.3498C3.41044 11.3498 0 15.4427 0 18.2717C0 19.4595 0.814146 20 2.53475 20ZM2.0402 18.3685C1.77204 18.3685 1.65906 18.2929 1.65906 18.0662C1.65906 16.2951 4.27602 12.9795 9.00484 12.9795C13.7345 12.9795 16.3409 16.2951 16.3409 18.0662C16.3409 18.2929 16.2381 18.3685 15.9704 18.3685H2.0402Z" fill="black"/>
</svg>
