<svg width="43" height="54" viewBox="0 0 43 54" fill="none" xmlns="http://www.w3.org/2000/svg">
<path d="M27.3857 11.9475H5.88574C4.40148 11.9475 3.19824 13.4585 3.19824 15.3225V33.3225C3.19824 35.1865 4.40148 36.6975 5.88574 36.6975H27.3857C28.87 36.6975 30.0732 35.1865 30.0732 33.3225V15.3225C30.0732 13.4585 28.87 11.9475 27.3857 11.9475Z" stroke="#4CD964" stroke-linecap="round" stroke-linejoin="round"/>
<path d="M30.0729 28.7335L37.1679 33.8781C37.3041 33.9769 37.4586 34.0289 37.6159 34.0289C37.7731 34.0289 37.9276 33.9769 38.0638 33.8781C38.2 33.7794 38.313 33.6374 38.3917 33.4664C38.4703 33.2954 38.5117 33.1014 38.5117 32.9039V17.3159C38.5117 17.1184 38.4703 16.9244 38.3917 16.7534C38.313 16.5824 38.2 16.4404 38.0638 16.3416C37.9276 16.2429 37.7731 16.1909 37.6159 16.1909C37.4586 16.1909 37.3041 16.2429 37.1679 16.3416L30.0729 21.4863M16.6354 16.4474C17.2368 16.4474 17.8246 16.6713 18.3246 17.0909C18.8246 17.5104 19.2143 18.1068 19.4445 18.8045C19.6746 19.5022 19.7348 20.2699 19.6175 21.0105C19.5002 21.7512 19.2106 22.4316 18.7854 22.9656C18.3602 23.4995 17.8184 23.8632 17.2286 24.0105C16.6388 24.1579 16.0275 24.0822 15.4719 23.7932C14.9163 23.5042 14.4415 23.0149 14.1074 22.3869C13.7733 21.759 13.595 21.0208 13.595 20.2656C13.595 19.253 13.9153 18.2818 14.4855 17.5657C15.0557 16.8497 15.8291 16.4474 16.6354 16.4474ZM16.6354 25.9424C20.0145 25.9424 22.7173 27.1315 22.7173 28.5479V32.1974H10.5527V28.5648C10.5527 27.1315 13.2573 25.9424 16.6354 25.9424Z" stroke="#4CD964" stroke-linecap="round" stroke-linejoin="round"/>
</svg>
